<?xml version="1.0" encoding="utf-8"?>
<!-- Generator: Adobe Illustrator 25.1.0, SVG Export Plug-In . SVG Version: 6.00 Build 0)  -->
<svg version="1.1" id="Capa_1" xmlns="http://www.w3.org/2000/svg" xmlns:xlink="http://www.w3.org/1999/xlink" x="0px" y="0px"
	 viewBox="0 0 130 82.3" style="enable-background:new 0 0 130 82.3;" xml:space="preserve">
<style type="text/css">
	.st0{opacity:0.15;fill:#54678B;enable-background:new    ;}
	.st1{fill:#00C99B;}
	.st2{fill:#A5ADB7;}
	.st3{opacity:0.81;fill:#1CA379;enable-background:new    ;}
	.st4{fill:#848B93;}
	.st5{fill:#8DE3D8;}
	.st6{fill:#F2EF63;}
	.st7{fill:#FF7A7A;}
	.st8{fill:#FFA3A3;}
	.st9{fill:none;stroke:#00668F;stroke-miterlimit:10;}
	.st10{fill:none;stroke:#00668F;stroke-linecap:round;stroke-linejoin:round;stroke-miterlimit:10;}
	.st11{fill:#00668F;stroke:#00668F;stroke-width:1.5978;stroke-miterlimit:10;}
	.st12{fill:none;stroke:#FFFFFF;stroke-width:1.5978;stroke-linecap:round;stroke-linejoin:round;stroke-miterlimit:10;}
	.st13{fill:none;stroke:#00668F;stroke-width:1.5978;stroke-linecap:round;stroke-linejoin:round;stroke-miterlimit:10;}
	.st14{fill:#00668F;}
	.st15{fill:none;stroke:#00668F;stroke-width:1.5302;stroke-miterlimit:10;}
	.st16{fill:none;stroke:#00668F;stroke-width:1.5978;stroke-linecap:round;stroke-miterlimit:10;}
	.st17{fill:none;stroke:#00668F;stroke-linecap:round;stroke-miterlimit:10;}
	.st18{fill:none;stroke:#00668F;stroke-width:2.3967;stroke-linecap:round;stroke-linejoin:round;stroke-miterlimit:10;}
	.st19{fill:#FFFFFF;}
	.st20{font-family:'Monoround';}
	.st21{font-size:35.3273px;}
</style>
<path class="st0" d="M129.8,75.8c-1.2,0-2.1-1.2-2.1-2.7s1-2.7,2.1-2.7l0,0v-4.1l0,0c-1.2,0-2.1-1.2-2.1-2.7c0-1.5,1-2.7,2.1-2.7
	l0,0v-4.1l0,0c-1.2,0-2.1-1.2-2.1-2.7s1-2.7,2.1-2.7l0,0v-4.1l0,0c-1.2,0-2.1-1.2-2.1-2.7s1-2.7,2.1-2.7l0,0V38l0,0
	c-1.2,0-2.1-1.2-2.1-2.7s1-2.7,2.1-2.7l0,0v-4.1l0,0c-1.2,0-2.1-1.2-2.1-2.7s1-2.7,2.1-2.7l0,0V19l0,0c-1.2,0-2.1-1.2-2.1-2.7
	s1-2.7,2.1-2.7l0,0V8.9H4.5v4.8l0,0c1.2,0,2.1,1.2,2.1,2.7s-1,2.7-2.1,2.7l0,0v4.1l0,0c1.2,0,2.1,1.2,2.1,2.7s-1,2.7-2.1,2.7l0,0
	v4.1c1.2,0,2.1,1.2,2.1,2.7s-1,2.7-2.1,2.7v4.1c1.2,0,2.1,1.2,2.1,2.7s-1,2.7-2.1,2.7v4.1c1.2,0,2.1,1.2,2.1,2.7s-1,2.7-2.1,2.7V61
	c1.2,0,2.1,1.2,2.1,2.7c0,1.5-1,2.7-2.1,2.7v4.1c1.2,0,2.1,1.2,2.1,2.7s-1,2.7-2.1,2.7v4.8h125.3V75.8L129.8,75.8z"/>
<g>
	<g>
		<path class="st1" d="M125.9,69.4c-1.2,0-2.1-1.2-2.1-2.7s1-2.7,2.1-2.7l0,0v-4.1l0,0c-1.2,0-2.1-1.2-2.1-2.7s1-2.7,2.1-2.7l0,0
			v-4.1l0,0c-1.2,0-2.1-1.2-2.1-2.7s1-2.7,2.1-2.7l0,0v-4.1l0,0c-1.2,0-2.1-1.2-2.1-2.7s1-2.7,2.1-2.7l0,0v-4.1l0,0
			c-1.2,0-2.1-1.2-2.1-2.7s1-2.7,2.1-2.7l0,0v-4.1l0,0c-1.2,0-2.1-1.2-2.1-2.7s1-2.7,2.1-2.7l0,0v-4.1l0,0c-1.2,0-2.1-1.2-2.1-2.7
			s1-2.7,2.1-2.7l0,0V1.9H-0.2v4.9l0,0C1,6.7,2,8,2,9.5s-1,2.7-2.1,2.7l0,0v4.1l0,0C1,16.3,2,17.5,2,19s-1,2.7-2.1,2.7l0,0v4.1
			C1,25.8,2,27,2,28.5s-1,2.7-2.1,2.7v4.1C1,35.4,2,36.6,2,38.1s-1,2.7-2.1,2.7v4.1C1,44.9,2,46.1,2,47.6s-1,2.7-2.1,2.7v4.1
			C1,54.5,2,55.7,2,57.2s-1,2.7-2.1,2.7V64C1,64,2,65.2,2,66.7s-1,2.7-2.1,2.7v4.9H126L125.9,69.4L125.9,69.4z"/>
		<g>
			<g>
				<path class="st2" d="M121.3,5.4c0-0.4,0.3-0.8,0.6-0.8l0,0c0.4,0,0.6,0.4,0.6,0.8l0,0c0,0.4-0.3,0.8-0.6,0.8l0,0
					C121.6,6.2,121.3,5.8,121.3,5.4z M116.2,5.4c0-0.4,0.3-0.8,0.6-0.8l0,0c0.4,0,0.6,0.4,0.6,0.8l0,0c0,0.4-0.3,0.8-0.6,0.8l0,0
					C116.4,6.2,116.2,5.8,116.2,5.4z M111,5.4c0-0.4,0.3-0.8,0.6-0.8l0,0c0.4,0,0.6,0.4,0.6,0.8l0,0c0,0.4-0.3,0.8-0.6,0.8l0,0
					C111.3,6.2,111,5.8,111,5.4z M105.9,5.4c0-0.4,0.3-0.8,0.6-0.8l0,0c0.4,0,0.6,0.4,0.6,0.8l0,0c0,0.4-0.3,0.8-0.6,0.8l0,0
					C106.2,6.2,105.9,5.8,105.9,5.4z M100.8,5.4c0-0.4,0.3-0.8,0.6-0.8l0,0c0.4,0,0.6,0.4,0.6,0.8l0,0c0,0.4-0.3,0.8-0.6,0.8l0,0
					C101.1,6.2,100.8,5.8,100.8,5.4z M95.7,5.4c0-0.4,0.3-0.8,0.6-0.8l0,0c0.4,0,0.6,0.4,0.6,0.8l0,0c0,0.4-0.3,0.8-0.6,0.8l0,0
					C96,6.2,95.7,5.8,95.7,5.4z M90.6,5.4c0-0.4,0.3-0.8,0.6-0.8l0,0c0.4,0,0.6,0.4,0.6,0.8l0,0c0,0.4-0.3,0.8-0.6,0.8l0,0
					C90.8,6.2,90.6,5.8,90.6,5.4z M85.4,5.4c0-0.4,0.3-0.8,0.6-0.8l0,0c0.4,0,0.6,0.4,0.6,0.8l0,0c0,0.4-0.3,0.8-0.6,0.8l0,0
					C85.7,6.2,85.4,5.8,85.4,5.4z M80.3,5.4c0-0.4,0.3-0.8,0.6-0.8l0,0c0.4,0,0.6,0.4,0.6,0.8l0,0c0,0.4-0.3,0.8-0.6,0.8l0,0
					C80.6,6.2,80.3,5.8,80.3,5.4z M75.2,5.4c0-0.4,0.3-0.8,0.6-0.8l0,0c0.4,0,0.6,0.4,0.6,0.8l0,0c0,0.4-0.3,0.8-0.6,0.8l0,0
					C75.5,6.2,75.2,5.8,75.2,5.4z M70.1,5.4c0-0.4,0.3-0.8,0.6-0.8l0,0c0.4,0,0.6,0.4,0.6,0.8l0,0c0,0.4-0.3,0.8-0.6,0.8l0,0
					C70.4,6.2,70.1,5.8,70.1,5.4z M65,5.4c0-0.4,0.3-0.8,0.6-0.8l0,0c0.4,0,0.6,0.4,0.6,0.8l0,0c0,0.4-0.3,0.8-0.6,0.8l0,0
					C65.2,6.2,65,5.8,65,5.4z M59.8,5.4c0-0.4,0.3-0.8,0.6-0.8l0,0C60.8,4.6,61,5,61,5.4l0,0c0,0.4-0.3,0.8-0.6,0.8l0,0
					C60.1,6.2,59.8,5.8,59.8,5.4z M54.7,5.4c0-0.4,0.3-0.8,0.6-0.8l0,0c0.4,0,0.6,0.4,0.6,0.8l0,0c0,0.4-0.3,0.8-0.6,0.8l0,0
					C55,6.2,54.7,5.8,54.7,5.4z M49.6,5.4c0-0.4,0.3-0.8,0.6-0.8l0,0c0.4,0,0.6,0.4,0.6,0.8l0,0c0,0.4-0.3,0.8-0.6,0.8l0,0
					C49.9,6.2,49.6,5.8,49.6,5.4z M44.5,5.4c0-0.4,0.3-0.8,0.6-0.8l0,0c0.4,0,0.6,0.4,0.6,0.8l0,0c0,0.4-0.3,0.8-0.6,0.8l0,0
					C44.8,6.2,44.5,5.8,44.5,5.4z M39.4,5.4c0-0.4,0.3-0.8,0.6-0.8l0,0c0.4,0,0.6,0.4,0.6,0.8l0,0c0,0.4-0.3,0.8-0.6,0.8l0,0
					C39.6,6.2,39.4,5.8,39.4,5.4z M34.2,5.4c0-0.4,0.3-0.8,0.6-0.8l0,0c0.4,0,0.6,0.4,0.6,0.8l0,0c0,0.4-0.3,0.8-0.6,0.8l0,0
					C34.5,6.2,34.2,5.8,34.2,5.4z M29.1,5.4c0-0.4,0.3-0.8,0.6-0.8l0,0c0.4,0,0.6,0.4,0.6,0.8l0,0c0,0.4-0.3,0.8-0.6,0.8l0,0
					C29.4,6.2,29.1,5.8,29.1,5.4z M24,5.4c0-0.4,0.3-0.8,0.6-0.8l0,0c0.4,0,0.6,0.4,0.6,0.8l0,0c0,0.4-0.3,0.8-0.6,0.8l0,0
					C24.3,6.2,24,5.8,24,5.4z M18.9,5.4c0-0.4,0.3-0.8,0.6-0.8l0,0c0.4,0,0.6,0.4,0.6,0.8l0,0c0,0.4-0.3,0.8-0.6,0.8l0,0
					C19.2,6.2,18.9,5.8,18.9,5.4z M13.8,5.4c0-0.4,0.3-0.8,0.6-0.8l0,0C14.8,4.6,15,5,15,5.4l0,0c0,0.4-0.3,0.8-0.6,0.8l0,0
					C14,6.2,13.8,5.8,13.8,5.4z M8.6,5.4c0-0.4,0.3-0.8,0.6-0.8l0,0c0.4,0,0.6,0.4,0.6,0.8l0,0c0,0.4-0.3,0.8-0.6,0.8l0,0
					C8.9,6.2,8.6,5.8,8.6,5.4z M3.5,5.4c0-0.4,0.3-0.8,0.6-0.8l0,0c0.4,0,0.6,0.4,0.6,0.8l0,0c0,0.4-0.3,0.8-0.6,0.8l0,0
					C3.8,6.2,3.5,5.8,3.5,5.4z"/>
			</g>
			<g>
				<path class="st2" d="M120.9,70.3c0-0.4,0.3-0.8,0.6-0.8l0,0c0.4,0,0.6,0.4,0.6,0.8l0,0c0,0.4-0.3,0.8-0.6,0.8l0,0
					C121.1,71.2,120.9,70.8,120.9,70.3z M115.7,70.3c0-0.4,0.3-0.8,0.6-0.8l0,0c0.4,0,0.6,0.4,0.6,0.8l0,0c0,0.4-0.3,0.8-0.6,0.8
					l0,0C116,71.2,115.7,70.8,115.7,70.3z M110.6,70.3c0-0.4,0.3-0.8,0.6-0.8l0,0c0.4,0,0.6,0.4,0.6,0.8l0,0c0,0.4-0.3,0.8-0.6,0.8
					l0,0C110.9,71.2,110.6,70.8,110.6,70.3z M105.5,70.3c0-0.4,0.3-0.8,0.6-0.8l0,0c0.4,0,0.6,0.4,0.6,0.8l0,0
					c0,0.4-0.3,0.8-0.6,0.8l0,0C105.8,71.2,105.5,70.8,105.5,70.3z M100.4,70.3c0-0.4,0.3-0.8,0.6-0.8l0,0c0.4,0,0.6,0.4,0.6,0.8
					l0,0c0,0.4-0.3,0.8-0.6,0.8l0,0C100.7,71.2,100.4,70.8,100.4,70.3z M95.3,70.3c0-0.4,0.3-0.8,0.6-0.8l0,0c0.4,0,0.6,0.4,0.6,0.8
					l0,0c0,0.4-0.3,0.8-0.6,0.8l0,0C95.5,71.2,95.3,70.8,95.3,70.3z M90.1,70.3c0-0.4,0.3-0.8,0.6-0.8l0,0c0.4,0,0.6,0.4,0.6,0.8
					l0,0c0,0.4-0.3,0.8-0.6,0.8l0,0C90.4,71.2,90.1,70.8,90.1,70.3z M85,70.3c0-0.4,0.3-0.8,0.6-0.8l0,0c0.4,0,0.6,0.4,0.6,0.8l0,0
					c0,0.4-0.3,0.8-0.6,0.8l0,0C85.3,71.2,85,70.8,85,70.3z M79.9,70.3c0-0.4,0.3-0.8,0.6-0.8l0,0c0.4,0,0.6,0.4,0.6,0.8l0,0
					c0,0.4-0.3,0.8-0.6,0.8l0,0C80.2,71.2,79.9,70.8,79.9,70.3z M74.8,70.3c0-0.4,0.3-0.8,0.6-0.8l0,0c0.4,0,0.6,0.4,0.6,0.8l0,0
					c0,0.4-0.3,0.8-0.6,0.8l0,0C75.1,71.2,74.8,70.8,74.8,70.3z M69.7,70.3c0-0.4,0.3-0.8,0.6-0.8l0,0c0.4,0,0.6,0.4,0.6,0.8l0,0
					c0,0.4-0.3,0.8-0.6,0.8l0,0C69.9,71.2,69.7,70.8,69.7,70.3z M64.5,70.3c0-0.4,0.3-0.8,0.6-0.8l0,0c0.4,0,0.6,0.4,0.6,0.8l0,0
					c0,0.4-0.3,0.8-0.6,0.8l0,0C64.8,71.2,64.5,70.8,64.5,70.3z M59.4,70.3c0-0.4,0.3-0.8,0.6-0.8l0,0c0.4,0,0.6,0.4,0.6,0.8l0,0
					c0,0.4-0.3,0.8-0.6,0.8l0,0C59.7,71.2,59.4,70.8,59.4,70.3z M54.3,70.3c0-0.4,0.3-0.8,0.6-0.8l0,0c0.4,0,0.6,0.4,0.6,0.8l0,0
					c0,0.4-0.3,0.8-0.6,0.8l0,0C54.6,71.2,54.3,70.8,54.3,70.3z M49.2,70.3c0-0.4,0.3-0.8,0.6-0.8l0,0c0.4,0,0.6,0.4,0.6,0.8l0,0
					c0,0.4-0.3,0.8-0.6,0.8l0,0C49.5,71.2,49.2,70.8,49.2,70.3z M44,70.3c0-0.4,0.3-0.8,0.6-0.8l0,0c0.4,0,0.6,0.4,0.6,0.8l0,0
					c0,0.4-0.3,0.8-0.6,0.8l0,0C44.3,71.2,44,70.8,44,70.3z M38.9,70.3c0-0.4,0.3-0.8,0.6-0.8l0,0c0.4,0,0.6,0.4,0.6,0.8l0,0
					c0,0.4-0.3,0.8-0.6,0.8l0,0C39.2,71.2,38.9,70.8,38.9,70.3z M33.8,70.3c0-0.4,0.3-0.8,0.6-0.8l0,0c0.4,0,0.6,0.4,0.6,0.8l0,0
					c0,0.4-0.3,0.8-0.6,0.8l0,0C34.1,71.2,33.8,70.8,33.8,70.3z M28.7,70.3c0-0.4,0.3-0.8,0.6-0.8l0,0c0.4,0,0.6,0.4,0.6,0.8l0,0
					c0,0.4-0.3,0.8-0.6,0.8l0,0C29,71.2,28.7,70.8,28.7,70.3z M23.6,70.3c0-0.4,0.3-0.8,0.6-0.8l0,0c0.4,0,0.6,0.4,0.6,0.8l0,0
					c0,0.4-0.3,0.8-0.6,0.8l0,0C23.9,71.2,23.6,70.8,23.6,70.3z M18.4,70.3c0-0.4,0.3-0.8,0.6-0.8l0,0c0.4,0,0.6,0.4,0.6,0.8l0,0
					c0,0.4-0.3,0.8-0.6,0.8l0,0C18.7,71.2,18.4,70.8,18.4,70.3z M13.3,70.3c0-0.4,0.3-0.8,0.6-0.8l0,0c0.4,0,0.6,0.4,0.6,0.8l0,0
					c0,0.4-0.3,0.8-0.6,0.8l0,0C13.6,71.2,13.3,70.8,13.3,70.3z M8.2,70.3c0-0.4,0.3-0.8,0.6-0.8l0,0c0.4,0,0.6,0.4,0.6,0.8l0,0
					c0,0.4-0.3,0.8-0.6,0.8l0,0C8.5,71.2,8.2,70.8,8.2,70.3z M3.1,70.3c0-0.4,0.3-0.8,0.6-0.8l0,0c0.4,0,0.6,0.4,0.6,0.8l0,0
					c0,0.4-0.3,0.8-0.6,0.8l0,0C3.4,71.2,3.1,70.8,3.1,70.3z"/>
			</g>
		</g>
		<path class="st3" d="M119.7,15c-2.2,0-4-2.3-4-5.1V9.7H10.1V10c0,2.8-1.8,5.1-4,5.1H5.9v46.3h0.2c2.2,0,4,2.3,4,5.1v0.3h105.4
			v-0.3c0-2.8,1.8-5.1,4-5.1h0.3V15H119.7z"/>
		<g id="XMLID_10_">
			<g>
				<polygon class="st4" points="5.6,37.6 4.3,38.5 4.3,36.7 				"/>
			</g>
		</g>
	</g>
</g>
<g>
	<ellipse transform="matrix(0.1841 -0.9829 0.9829 0.1841 20.971 141.7302)" class="st5" cx="95.9" cy="58.2" rx="2.3" ry="10.5"/>
	<g>
		<g>
			<path class="st6" d="M94.2,31.9c2.4,3.4,5.1,7.4,5.1,7.4l7.6-5c-1.1,0.3-3.6,0.1-6.5-0.4C97.6,33.3,95.2,32.6,94.2,31.9z"/>
			<path class="st7" d="M91.2,27.6c0,0,1.6,2.3,3,4.4c1,0.6,3.4,1.4,6.2,1.9c2.9,0.5,5.4,0.7,6.5,0.4l4.3-2.9L91.2,27.6z"/>
		</g>
		<path class="st8" d="M111.4,31.2c-0.2,1-4.9,0.9-10.4-0.1c-5.6-1-9.9-2.7-9.8-3.7c0.2-1,4.8-1,10.5,0.1
			C107.2,28.5,111.6,30.2,111.4,31.2z"/>
		<path class="st9" d="M105,59.3c-0.2,0.9-4.4,0.8-9.3-0.1c-5-0.9-8.9-2.4-8.7-3.3c0.1-0.9,4.3-0.9,9.3,0.1
			C101.3,56.9,105.2,58.4,105,59.3z"/>
		<line class="st10" x1="99" y1="41.5" x2="96.1" y2="56.8"/>
		<g>
			<g>
				<path class="st11" d="M98.9,27.8c0.3,1.3-0.2,2.5-1.2,2.8s-2.1-0.6-2.4-1.8c-0.3-1.3,0.2-2.5,1.2-2.8
					C97.5,25.8,98.6,26.6,98.9,27.8z"/>
				<path class="st12" d="M97.2,26.5c0.5,0.1,1.1,0.7,1.2,1.4"/>
			</g>
			<line class="st13" x1="93.9" y1="16.1" x2="99.4" y2="37.4"/>
		</g>
		<g>
			<path class="st14" d="M100.3,34.2c-0.4-0.1-0.6,0.6-0.1,0.7C100.6,35,100.7,34.3,100.3,34.2z"/>
			<path class="st14" d="M100.5,36.2L100.5,36.2c-0.4,0.3,0,0.9,0.3,0.6c0,0,0,0,0.1,0C101.3,36.5,100.9,36,100.5,36.2z"/>
			<path class="st14" d="M103.6,34.4c-0.4-0.1-0.6,0.6-0.1,0.7C103.9,35.2,104,34.5,103.6,34.4z"/>
		</g>
		<g>
			<path class="st15" d="M103.6,32.9l0.3,0.1c1.4,0.5,2.9-0.1,3.5-1.5l0,0c0.5-1.4-0.1-2.9-1.5-3.5l-0.3-0.1
				c-1.4-0.5-2.9,0.1-3.5,1.5l0,0C101.6,30.8,102.3,32.4,103.6,32.9z"/>
			<path class="st16" d="M103.2,28.8c-0.2,0.6-0.4,1.1-0.6,1.7"/>
			<line class="st12" x1="107.1" y1="29.4" x2="104.6" y2="28.5"/>
		</g>
		<polyline class="st17" points="116.3,30 98.9,41.5 87,24.4 		"/>
		<path class="st9" d="M116.5,29.6c-0.3,1.4-7.1,1.4-15.3-0.2S86.7,25.5,86.9,24s7.1-1.4,15.3,0.1C110.4,25.8,116.8,28.2,116.5,29.6
			z"/>
		<path class="st18" d="M95.2,57.1c0.5,0.3,1.1,0.4,1.7,0.2"/>
	</g>
</g>
<text transform="matrix(1 0 0 1 17.139 51.9147)" class="st19 st20 st21">2x1</text>
</svg>
