<?xml version="1.0" encoding="utf-8"?>
<!-- Generator: Adobe Illustrator 25.1.0, SVG Export Plug-In . SVG Version: 6.00 Build 0)  -->
<svg version="1.1" id="Capa_1" xmlns="http://www.w3.org/2000/svg" xmlns:xlink="http://www.w3.org/1999/xlink" x="0px" y="0px"
	 viewBox="0 0 130 82.3" style="enable-background:new 0 0 130 82.3;" xml:space="preserve">
<style type="text/css">
	.st0{opacity:0.15;fill:#54678B;enable-background:new    ;}
	.st1{opacity:0.9;}
	.st2{fill:#0097CE;}
	.st3{fill:#DAF0F3;}
	.st4{fill:#45494D;}
	.st5{fill:#FFFFFF;}
	.st6{fill:#111111;}
</style>
<g id="Group_103">
	<path id="Rectangle_31" class="st0" d="M12,7.3h111.9c2.9,0,5.3,1.8,5.3,4.1v65.3c0,2.3-2.4,4.1-5.3,4.1H12c-2.9,0-5.3-1.8-5.3-4.1
		V11.4C6.7,9.1,9.1,7.3,12,7.3z"/>
	<g>
		<g class="st1">
			<path class="st2" d="M120.3,74.3H5.6c-3.1,0-5.6-2.5-5.6-5.6V7.9c0-3.1,2.5-5.6,5.6-5.6h114.7c3.1,0,5.6,2.5,5.6,5.6v60.8
				C125.9,71.8,123.4,74.3,120.3,74.3z"/>
		</g>
	</g>
</g>
<rect y="15.3" class="st3" width="125.9" height="40.7"/>
<g id="XMLID_2_">
	<path id="XMLID_5_" class="st4" d="M96.5,49.3l-1.1-0.5c-0.1,0-0.2-0.2-0.2-0.3c0-0.1,0-0.2,0-0.3c0.1-0.2,0.3-0.3,0.4-0.3
		c0,0,0.1,0,0.1,0l1.1,0.5c0.1,0,0.1,0.1,0.2,0.1c0.1-0.2,0.2-0.5,0.3-0.7c-0.1,0-0.1,0-0.2,0l-1.1-0.4c-0.1,0-0.2-0.1-0.2-0.2
		c-0.1-0.1-0.1-0.3,0-0.4c0.1-0.2,0.3-0.4,0.4-0.3c0,0,0.1,0,0.1,0l1.1,0.4c0.1,0,0.1,0.1,0.2,0.1c0.1-0.3,0.2-0.5,0.2-0.8
		c0,0,0,0,0,0c-0.1,0-0.1,0-0.2,0l-1.1-0.3c-0.1,0-0.2-0.1-0.2-0.2c-0.1-0.1-0.1-0.3,0-0.4c0.1-0.2,0.2-0.4,0.4-0.4c0,0,0.1,0,0.1,0
		l1.1,0.3c0.1,0,0.2,0.1,0.2,0.1c0.1-0.2,0.1-0.5,0.2-0.7c-0.1,0-0.1,0-0.2,0c0,0-0.1,0-0.1,0l-1.2-0.3c-0.2,0-0.3-0.3-0.3-0.6
		c0.1-0.2,0.2-0.4,0.4-0.4c0,0,0,0,0.1,0l1.2,0.3c0.1,0,0.2,0.1,0.3,0.1c0-0.3,0.1-0.5,0.1-0.8c-0.1,0-0.2,0-0.3,0c0,0-0.1,0-0.1,0
		L97,42.9c-0.2,0-0.4-0.3-0.4-0.5c0-0.3,0.2-0.4,0.4-0.5l0,0l1.2,0.1c0.1,0,0.2,0.1,0.3,0.1c0-0.3,0-0.5,0.1-0.8
		c-0.1,0.1-0.2,0.1-0.4,0.1c0,0,0,0-0.1,0l-1.2-0.1c-0.2,0-0.4-0.2-0.4-0.5c0-0.3,0.2-0.5,0.4-0.5l0,0l1.2,0.1
		c0.1,0,0.3,0.1,0.4,0.1c0-0.2,0-0.4,0-0.6c0-0.1,0-0.2,0-0.3c-0.1,0.1-0.3,0.1-0.4,0.1l-1.2,0c-0.2,0-0.4-0.2-0.4-0.5
		c0-0.2,0.1-0.3,0.1-0.4c0.1-0.1,0.2-0.1,0.2-0.1l1.2,0c0.1,0,0.3,0.1,0.4,0.1c0-0.3,0-0.6-0.1-0.8l0,0c-0.1,0.1-0.3,0.2-0.4,0.2
		l-1.1,0.1l0,0c-0.2,0-0.4-0.2-0.4-0.5c0-0.3,0.1-0.5,0.4-0.5l1.1-0.1l0,0c0.1,0,0.3,0.1,0.4,0.1c0-0.3-0.1-0.6-0.1-0.9
		c-0.1,0.1-0.2,0.1-0.3,0.1L97,37l0,0l0,0c-0.2,0-0.4-0.2-0.4-0.4c0-0.3,0.1-0.5,0.3-0.6l1.2-0.2c0,0,0.1,0,0.1,0c0.1,0,0.2,0,0.3,0
		c0-0.3-0.1-0.5-0.2-0.8c-0.1,0.1-0.2,0.1-0.3,0.1l-1.2,0.2l0,0l0,0c-0.2,0-0.4-0.2-0.4-0.4c-0.1-0.3,0.1-0.5,0.3-0.6l1.2-0.2
		c0,0,0,0,0.1,0c0.1,0,0.2,0,0.2,0c-0.1-0.3-0.2-0.5-0.2-0.8c-0.1,0.1-0.2,0.2-0.3,0.2L96.4,34c0,0-0.1,0-0.1,0
		c-0.2,0-0.4-0.1-0.4-0.4c0-0.1,0-0.2,0-0.3c0-0.1,0.1-0.2,0.2-0.3l1.1-0.3c0.1,0,0.1,0,0.2,0c0.1,0,0.1,0,0.2,0
		c-0.1-0.3-0.2-0.5-0.3-0.8C97.1,32,97,32.1,97,32.1l-1.1,0.4c0,0-0.1,0-0.1,0c-0.2,0-0.4-0.1-0.4-0.3c-0.1-0.3,0-0.5,0.2-0.6
		l1.1-0.4c0.1,0,0.2,0,0.3-0.1c0,0,0,0,0,0c-0.1-0.2-0.2-0.5-0.3-0.7c-0.1,0.1-0.2,0.1-0.2,0.2l-1.1,0.5c0,0-0.1,0-0.2,0
		c-0.2,0-0.3-0.1-0.4-0.3c-0.1-0.1-0.1-0.3,0-0.4c0-0.1,0.1-0.2,0.2-0.2l1.1-0.5c0.1,0,0.1,0,0.2-0.1c-0.1-0.2-0.2-0.4-0.4-0.7
		c0,0-0.1,0.1-0.1,0.1l-1.1,0.7c-0.1,0-0.1,0-0.2,0.1c-0.2,0-0.3-0.1-0.4-0.3c-0.1-0.2-0.1-0.5,0.1-0.6l1.1-0.7c0,0,0.1,0,0.1-0.1
		c-0.1-0.2-0.3-0.4-0.4-0.6c-2.6,2.7-4.3,6.5-4.3,10.6c0,4.8,2.2,9.1,5.7,11.9c0.1-0.2,0.2-0.5,0.3-0.7
		C96.6,49.4,96.5,49.3,96.5,49.3z"/>
	<path id="XMLID_4_" class="st4" d="M114,50.7l-1.2,0.6c-0.1,0-0.1,0-0.2,0c-0.2,0-0.3-0.1-0.4-0.3c-0.1-0.3-0.1-0.5,0.2-0.6
		l1.2-0.6c0.1-0.1,0.3-0.1,0.4-0.1c-0.1-0.3-0.2-0.5-0.3-0.8c-0.1,0.1-0.3,0.2-0.4,0.3l-1.2,0.4c0,0-0.1,0-0.1,0
		c-0.2,0-0.3-0.1-0.4-0.4c-0.1-0.3,0-0.5,0.2-0.6l1.2-0.4c0.1,0,0.2-0.1,0.3,0c0,0,0.1,0,0.1,0c-0.1-0.3-0.2-0.5-0.3-0.8
		c-0.1,0.1-0.3,0.2-0.4,0.2l-1.2,0.3c0,0-0.1,0-0.1,0c-0.2,0-0.4-0.2-0.4-0.4c-0.1-0.3,0-0.5,0.3-0.6l1.2-0.4c0.1,0,0.2,0,0.3,0
		c0,0,0.1,0,0.2,0c-0.1-0.2-0.1-0.5-0.2-0.7c-0.1,0.1-0.3,0.2-0.4,0.2l-1.2,0.3c0,0-0.1,0-0.1,0c-0.2,0-0.4-0.2-0.4-0.4
		c0-0.1,0-0.3,0.1-0.4c0.1-0.1,0.1-0.1,0.2-0.2l1.2-0.3c0.1,0,0.2,0,0.2,0c0.1,0,0.1,0,0.2,0c-0.1-0.3-0.1-0.5-0.2-0.8
		c-0.1,0.1-0.2,0.1-0.3,0.1l-1.3,0.2c0,0,0,0-0.1,0c-0.2,0-0.4-0.2-0.4-0.5c0-0.3,0.1-0.5,0.3-0.6l1.3-0.2c0,0,0.1,0,0.1,0
		c0.1,0,0.1,0,0.2,0c0-0.3-0.1-0.6-0.1-0.8c-0.1,0.1-0.2,0.1-0.3,0.1l-1.3,0.2c0,0,0,0-0.1,0c-0.2,0-0.4-0.2-0.4-0.4
		c0-0.3,0.1-0.5,0.3-0.6l1.3-0.2c0,0,0.1,0,0.1,0c0.1,0,0.2,0,0.2,0c0-0.2,0-0.5,0-0.7c-0.1,0.1-0.3,0.1-0.4,0.1l-1.3,0l0,0
		c-0.2,0-0.4-0.2-0.4-0.5c0-0.3,0.2-0.5,0.4-0.5l1.3,0c0,0,0,0,0.1,0c0.1,0,0.2,0,0.3,0.1c0-0.2,0-0.3,0-0.5c0-0.1,0-0.3,0-0.4
		c-0.1,0.1-0.3,0.1-0.4,0.1l-1.3,0c-0.2,0-0.4-0.2-0.4-0.5c0-0.3,0.2-0.5,0.4-0.5c0,0,1.3,0,1.3,0c0.1,0,0.3,0,0.4,0.1
		c0-0.3,0-0.5,0.1-0.8c-0.1,0-0.3,0.1-0.4,0.1l-1.4-0.1c-0.2,0-0.4-0.3-0.4-0.5c0-0.3,0.2-0.5,0.5-0.5l1.4,0.1
		c0.1,0,0.3,0.1,0.4,0.1c0-0.2,0.1-0.5,0.1-0.7c-0.1,0-0.2,0-0.3,0c0,0,0,0-0.1,0l-1.3-0.2c-0.1,0-0.2-0.1-0.3-0.2
		c-0.1-0.1-0.1-0.3-0.1-0.4c0-0.3,0.2-0.5,0.5-0.4l0,0l1.3,0.2c0.1,0,0.3,0.1,0.4,0.1c0-0.2,0.1-0.5,0.2-0.7c-0.1,0-0.2,0-0.3,0
		c-0.1,0-0.1,0-0.1,0l-1.2-0.3c-0.1,0-0.2-0.1-0.2-0.2c-0.1-0.1-0.1-0.3,0-0.4c0.1-0.2,0.3-0.4,0.5-0.4c0,0,0,0,0.1,0l1.2,0.3
		c0.1,0,0.3,0.1,0.4,0.2c0.1-0.3,0.1-0.5,0.2-0.8c-0.1,0-0.2,0-0.2,0c0,0,0,0,0,0c-0.1,0-0.1,0-0.2,0l-1.2-0.4
		c-0.1,0-0.2-0.1-0.2-0.2c-0.1-0.1-0.1-0.3,0-0.4c0.1-0.2,0.3-0.4,0.4-0.4c0,0,0.1,0,0.1,0l1.2,0.4c0.1,0,0.3,0.1,0.4,0.2
		c0.1-0.2,0.2-0.5,0.3-0.7c0,0-0.1,0-0.1,0c-0.1,0-0.2,0-0.3-0.1l-1.2-0.5c-0.1,0-0.2-0.1-0.2-0.2c-0.1-0.1-0.1-0.3,0-0.4
		c0.1-0.2,0.2-0.3,0.4-0.3c0,0,0.1,0,0.1,0l1.2,0.5c0.1,0,0.3,0.2,0.4,0.3c0.1-0.3,0.2-0.5,0.3-0.8c0,0,0,0-0.1,0
		c-0.1,0-0.3,0-0.4-0.1l-1.2-0.6c-0.2-0.1-0.3-0.4-0.2-0.6c0.1-0.2,0.3-0.3,0.5-0.3c0,0,0.1,0,0.1,0l1.2,0.6
		c0.1,0.1,0.2,0.2,0.3,0.3c0.1-0.3,0.3-0.5,0.4-0.8c0,0,0,0,0,0c-0.1,0-0.3,0-0.4-0.1l-1.1-0.6c-0.1,0-0.2-0.1-0.2-0.2
		c0-0.1,0-0.3,0.1-0.4c0.1-0.2,0.3-0.3,0.4-0.3c0.1,0,0.1,0,0.2,0l1.1,0.6c0.1,0.1,0.3,0.2,0.3,0.3c0.1-0.2,0.3-0.5,0.4-0.7
		c0,0,0,0,0,0c-0.2,0-0.3-0.1-0.4-0.1l-1.1-0.7c-0.1-0.1-0.1-0.1-0.2-0.2c0-0.1,0-0.3,0.1-0.4c0.1-0.2,0.3-0.3,0.4-0.3
		c0.1,0,0.1,0,0.2,0.1l1.1,0.7c0.1,0.1,0.2,0.2,0.3,0.4c0-0.1,0.1-0.1,0.1-0.2c-2.7-2.4-6.2-3.9-10.1-3.9c-3.9,0-7.4,1.4-10.1,3.8
		c0.1,0.1,0.1,0.2,0.2,0.3c0.1-0.1,0.2-0.3,0.3-0.3l1.1-0.7c0.1,0,0.1-0.1,0.2-0.1c0.2,0,0.3,0.1,0.4,0.3c0.1,0.1,0.1,0.3,0.1,0.4
		c0,0.1-0.1,0.2-0.2,0.2l-1.1,0.7c-0.1,0.1-0.3,0.1-0.4,0.1c0.1,0.2,0.3,0.4,0.4,0.7c0.1-0.1,0.2-0.3,0.3-0.3l1.1-0.6
		c0,0,0.1,0,0.2,0c0.2,0,0.3,0.1,0.4,0.3C99,27.8,99,28,99,28.1c0,0.1-0.1,0.2-0.2,0.2l-1.1,0.6C97.6,29,97.4,29,97.2,29
		c0,0,0,0,0,0c0.1,0.3,0.3,0.5,0.4,0.8c0.1-0.1,0.2-0.2,0.3-0.3l1.2-0.6c0,0,0.1,0,0.1,0c0.2,0,0.4,0.1,0.5,0.3
		c0.1,0.3,0.1,0.5-0.2,0.6l-1.2,0.6c-0.1,0-0.2,0.1-0.4,0.1c0,0,0,0,0,0c0.1,0.2,0.2,0.5,0.3,0.7c0.1-0.1,0.2-0.2,0.4-0.3l1.2-0.5
		c0,0,0.1,0,0.1,0c0.2,0,0.4,0.1,0.4,0.3c0,0.1,0,0.3,0,0.4c0,0.1-0.1,0.2-0.2,0.2L99,31.9c-0.1,0-0.2,0.1-0.3,0.1c0,0-0.1,0-0.1,0
		c0.1,0.2,0.2,0.5,0.3,0.7c0.1-0.1,0.2-0.2,0.4-0.2l1.2-0.4c0,0,0.1,0,0.1,0c0.2,0,0.4,0.1,0.4,0.4c0,0.1,0,0.3,0,0.4
		c0,0.1-0.1,0.2-0.2,0.2l-1.2,0.4c-0.1,0-0.2,0-0.2,0c0,0,0,0,0,0c-0.1,0-0.2,0-0.2,0c0.1,0.3,0.2,0.5,0.2,0.8
		c0.1-0.1,0.2-0.2,0.4-0.2l1.2-0.3c0,0,0,0,0.1,0c0.2,0,0.4,0.2,0.5,0.4c0,0.1,0,0.3,0,0.4c-0.1,0.1-0.1,0.1-0.2,0.2L99.9,35
		c0,0-0.1,0-0.1,0c-0.1,0-0.2,0-0.3,0c0.1,0.2,0.1,0.5,0.2,0.7c0.1-0.1,0.3-0.1,0.4-0.1l1.3-0.2l0,0c0.2,0,0.4,0.2,0.5,0.4
		c0,0.2,0,0.3-0.1,0.4c-0.1,0.1-0.2,0.1-0.2,0.2l-1.3,0.2c0,0,0,0-0.1,0c-0.1,0-0.2,0-0.3,0c0,0.2,0.1,0.5,0.1,0.7
		c0.1-0.1,0.3-0.1,0.4-0.1l1.4-0.1c0.2,0,0.4,0.2,0.5,0.5c0,0.3-0.1,0.5-0.4,0.5l-1.4,0.1c-0.1,0-0.2,0-0.4-0.1c0,0.3,0,0.5,0,0.8
		c0.1-0.1,0.3-0.1,0.4-0.1c0,0,1.3,0,1.3,0c0.2,0,0.4,0.2,0.4,0.5c0,0.3-0.2,0.5-0.4,0.5l-1.3,0c-0.1,0-0.3,0-0.4-0.1
		c0,0.1,0,0.2,0,0.3c0,0.2,0,0.4,0,0.6c0.1,0,0.2-0.1,0.4-0.1c0,0,0,0,0.1,0l1.3,0c0.2,0,0.4,0.2,0.4,0.5c0,0.3-0.2,0.4-0.4,0.5l0,0
		l-1.3,0c-0.1,0-0.3-0.1-0.4-0.1c0,0.2,0,0.5-0.1,0.7c0.1,0,0.2,0,0.3,0c0,0,0.1,0,0.1,0l1.3,0.2c0.2,0,0.4,0.3,0.3,0.5
		c0,0.2-0.2,0.4-0.4,0.4c0,0,0,0-0.1,0l-1.3-0.2c-0.1,0-0.2-0.1-0.4-0.1c0,0.3-0.1,0.6-0.1,0.9c0.1,0,0.2,0,0.2,0c0.1,0,0.1,0,0.1,0
		l1.3,0.2c0.2,0,0.4,0.3,0.3,0.6c0,0.3-0.2,0.4-0.4,0.5c0,0,0,0-0.1,0l-1.3-0.2c-0.1,0-0.3-0.1-0.4-0.2c-0.1,0.3-0.1,0.5-0.2,0.8
		c0.1,0,0.2,0,0.3,0c0.1,0,0.1,0,0.2,0l1.2,0.3c0.1,0,0.2,0.1,0.2,0.2c0.1,0.1,0.1,0.3,0.1,0.4c-0.1,0.2-0.2,0.4-0.4,0.4
		c0,0-0.1,0-0.1,0l-1.2-0.3c-0.1,0-0.3-0.1-0.4-0.2c-0.1,0.2-0.1,0.5-0.2,0.7l0,0c0.1,0,0.2,0,0.2,0c0.1,0,0.2,0,0.3,0l1.2,0.3
		c0.2,0.1,0.3,0.3,0.3,0.6c-0.1,0.2-0.2,0.4-0.4,0.4c0,0-0.1,0-0.1,0l-1.2-0.3c-0.1,0-0.3-0.2-0.4-0.3l0,0c-0.1,0.3-0.2,0.6-0.3,0.9
		c0,0,0.1,0,0.2,0c0.1,0,0.3,0,0.3,0l1.2,0.4c0.2,0.1,0.3,0.3,0.2,0.6c-0.1,0.2-0.2,0.3-0.4,0.4c0,0-0.1,0-0.1,0l-1.2-0.4
		c-0.1-0.1-0.3-0.2-0.4-0.3l0,0c-0.1,0.3-0.2,0.6-0.4,0.8l0.1,0c0,0,0,0,0.1,0c0.2,0,0.3,0,0.4,0.1l1.2,0.6c0.2,0.1,0.3,0.4,0.2,0.6
		c-0.1,0.2-0.3,0.3-0.4,0.3c-0.1,0-0.1,0-0.2,0L98,50.8c-0.1-0.1-0.3-0.2-0.4-0.3l0-0.1c-0.1,0.1-0.1,0.3-0.2,0.4
		c2.4,1.7,5.4,2.6,8.5,2.6c3.2,0,6.2-1,8.6-2.7c-0.1-0.1-0.1-0.2-0.2-0.3C114.2,50.5,114.1,50.6,114,50.7z"/>
	<path id="XMLID_3_" class="st4" d="M121.1,38.2c0-4.1-1.6-7.8-4.2-10.5c-0.2,0.2-0.3,0.5-0.5,0.8c0.1,0,0.1,0,0.2,0.1l1.1,0.7
		c0.2,0.1,0.2,0.4,0.1,0.6c-0.1,0.2-0.3,0.3-0.4,0.3c-0.1,0-0.1,0-0.2-0.1l-1.1-0.7c0,0-0.1-0.1-0.2-0.1c-0.1,0.2-0.3,0.5-0.4,0.7
		c0.1,0,0.2,0,0.2,0.1l1.1,0.5c0.1,0,0.2,0.1,0.2,0.2c0,0.1,0,0.3,0,0.4c-0.1,0.2-0.2,0.3-0.4,0.3c-0.1,0-0.1,0-0.2,0l-1.1-0.5
		c-0.1,0-0.2-0.1-0.2-0.2c-0.1,0.2-0.2,0.4-0.3,0.7c0,0,0.1,0,0.1,0c0.1,0,0.2,0,0.3,0.1l1.1,0.4c0.2,0.1,0.3,0.4,0.2,0.6
		c-0.1,0.2-0.3,0.3-0.4,0.3c0,0-0.1,0-0.1,0l-1.1-0.4c-0.1,0-0.2-0.1-0.3-0.2c-0.1,0.2-0.2,0.5-0.3,0.7c0.1,0,0.2,0,0.2,0
		c0.1,0,0.1,0,0.2,0l1.1,0.3c0.1,0,0.2,0.1,0.2,0.3c0,0.1,0,0.2,0,0.3c-0.1,0.2-0.3,0.4-0.4,0.4c0,0-0.1,0-0.1,0l-1.1-0.3
		c-0.1,0-0.3-0.1-0.4-0.2c-0.1,0.3-0.2,0.5-0.2,0.8c0.1,0,0.2,0,0.3,0c0,0,0.1,0,0.1,0l1.1,0.3c0.2,0.1,0.3,0.3,0.3,0.6
		c-0.1,0.2-0.2,0.4-0.5,0.4l0,0l0,0l-1.1-0.3c-0.1,0-0.3-0.1-0.4-0.2c-0.1,0.2-0.1,0.5-0.2,0.7c0.1,0,0.2,0,0.3,0c0,0,0.1,0,0.1,0
		l1.2,0.2c0.2,0,0.4,0.3,0.3,0.6c0,0.3-0.2,0.4-0.4,0.4l0,0l0,0l-1.2-0.2c-0.1,0-0.2-0.1-0.4-0.2c0,0.2-0.1,0.5-0.1,0.8
		c0.1,0,0.3-0.1,0.4-0.1l0,0l1.1,0.1c0.2,0,0.4,0.3,0.3,0.5c0,0.3-0.2,0.5-0.4,0.5l0,0l-1.1-0.1c-0.1,0-0.3-0.1-0.4-0.2
		c0,0.2,0,0.5,0,0.7c0.1-0.1,0.3-0.1,0.5-0.1l1.2,0.1c0.1,0,0.2,0,0.2,0.1c0.1,0.1,0.1,0.2,0.1,0.4c0,0.3-0.2,0.5-0.4,0.5l-1.2-0.1
		c-0.1,0-0.3-0.1-0.4-0.2c0,0.1,0,0.3,0,0.4c0,0.2,0,0.3,0,0.5c0.1-0.1,0.3-0.1,0.4-0.1l1.2-0.1l0,0c0.2,0,0.4,0.2,0.4,0.5
		c0,0.3-0.2,0.5-0.4,0.5l-1.2,0.1c0,0,0,0-0.1,0c-0.1,0-0.3,0-0.4-0.1c0,0.3,0,0.5,0.1,0.8c0.1-0.1,0.2-0.1,0.4-0.1l1.2-0.1l0,0
		c0.2,0,0.4,0.2,0.4,0.5c0,0.3-0.1,0.5-0.4,0.5l-1.2,0.1c0,0-0.1,0-0.1,0c-0.1,0-0.2,0-0.3-0.1c0,0.2,0.1,0.5,0.1,0.7
		c0.1-0.1,0.2-0.1,0.4-0.2l1.2-0.2c0,0,0,0,0.1,0c0.2,0,0.4,0.2,0.4,0.4c0,0.3-0.1,0.5-0.3,0.6l-1.2,0.2c0,0-0.1,0-0.1,0
		c-0.1,0-0.2,0-0.2,0c0.1,0.3,0.1,0.6,0.2,0.9c0.1-0.1,0.2-0.1,0.2-0.1l1.1-0.3c0,0,0.1,0,0.1,0c0.2,0,0.3,0.2,0.4,0.4
		c0,0.1,0,0.3,0,0.4c0,0.1-0.1,0.1-0.2,0.2l-1.1,0.3c-0.1,0-0.2,0-0.2,0c0,0,0,0,0,0c0.1,0.2,0.1,0.5,0.2,0.7
		c0.1-0.1,0.2-0.1,0.3-0.2l1.1-0.4c0,0,0.1,0,0.1,0c0.2,0,0.4,0.1,0.4,0.4c0.1,0.1,0.1,0.3,0,0.4c0,0.1-0.1,0.2-0.2,0.2l-1.1,0.4
		c-0.1,0-0.2,0-0.2,0c0,0-0.1,0-0.1,0c0.1,0.2,0.2,0.5,0.3,0.7c0.1-0.1,0.2-0.2,0.3-0.2l1.1-0.5c0,0,0.1,0,0.1,0
		c0.2,0,0.3,0.1,0.4,0.3c0,0.1,0.1,0.2,0,0.3c0,0.1-0.1,0.2-0.2,0.3l-1.1,0.5c-0.1,0-0.2,0.1-0.3,0.1c0,0,0,0,0,0
		c0.1,0.3,0.3,0.6,0.4,0.9C118.9,47.2,121.1,42.9,121.1,38.2z"/>
</g>
<g>
	<g>
		<g id="XMLID_72_">
			<g id="XMLID_73_">
				<g>
					<rect x="5" y="50.8" class="st4" width="9.1" height="1.6"/>
				</g>
			</g>
		</g>
		<g id="XMLID_70_">
			<g id="XMLID_71_">
				<g>
					<rect x="5" y="47.2" class="st4" width="9.1" height="1.8"/>
				</g>
			</g>
		</g>
		<g id="XMLID_68_">
			<g id="XMLID_69_">
				<g>
					<rect x="5" y="46.4" class="st4" width="9.1" height="0.4"/>
				</g>
			</g>
		</g>
		<g id="XMLID_66_">
			<g id="XMLID_67_">
				<g>
					<rect x="5" y="45" class="st4" width="9.1" height="0.4"/>
				</g>
			</g>
		</g>
		<g id="XMLID_64_">
			<g id="XMLID_65_">
				<g>
					<rect x="5" y="50.4" class="st4" width="9.1" height="0.2"/>
				</g>
			</g>
		</g>
		<g id="XMLID_62_">
			<g id="XMLID_63_">
				<g>
					<rect x="5" y="42.1" class="st4" width="9.1" height="1.8"/>
				</g>
			</g>
		</g>
		<g id="XMLID_60_">
			<g id="XMLID_61_">
				<g>
					<rect x="5" y="38.9" class="st4" width="9.1" height="1.2"/>
				</g>
			</g>
		</g>
		<g id="XMLID_58_">
			<g id="XMLID_59_">
				<g>
					<rect x="5" y="35.7" class="st4" width="9.1" height="0.8"/>
				</g>
			</g>
		</g>
		<g id="XMLID_56_">
			<g id="XMLID_57_">
				<g>
					<rect x="5" y="34.9" class="st4" width="9.1" height="0.4"/>
				</g>
			</g>
		</g>
		<g id="XMLID_54_">
			<g id="XMLID_55_">
				<g>
					<rect x="5" y="36.9" class="st4" width="9.1" height="0.6"/>
				</g>
			</g>
		</g>
		<g id="XMLID_52_">
			<g id="XMLID_53_">
				<g>
					<rect x="5" y="38.5" class="st4" width="9.1" height="0.2"/>
				</g>
			</g>
		</g>
		<g id="XMLID_50_">
			<g id="XMLID_51_">
				<g>
					<rect x="5" y="32.6" class="st4" width="9.1" height="0.4"/>
				</g>
			</g>
		</g>
		<g id="XMLID_48_">
			<g id="XMLID_49_">
				<g>
					<rect x="5" y="37.7" class="st4" width="9.1" height="0.6"/>
				</g>
			</g>
		</g>
		<g id="XMLID_46_">
			<g id="XMLID_47_">
				<g>
					<rect x="5" y="40.7" class="st4" width="9.1" height="0.4"/>
				</g>
			</g>
		</g>
		<g id="XMLID_44_">
			<g id="XMLID_45_">
				<g>
					<rect x="5" y="29.2" class="st4" width="9.1" height="0.4"/>
				</g>
			</g>
		</g>
		<g id="XMLID_42_">
			<g id="XMLID_43_">
				<g>
					<rect x="5" y="27.4" class="st4" width="9.1" height="0.4"/>
				</g>
			</g>
		</g>
		<g id="XMLID_40_">
			<g id="XMLID_41_">
				<g>
					<rect x="5" y="44.6" class="st4" width="9.1" height="0.2"/>
				</g>
			</g>
		</g>
		<g id="XMLID_38_">
			<g id="XMLID_39_">
				<g>
					<rect x="5" y="49.8" class="st4" width="9.1" height="0.4"/>
				</g>
			</g>
		</g>
		<g id="XMLID_36_">
			<g id="XMLID_37_">
				<g>
					<rect x="5" y="49.4" class="st4" width="9.1" height="0.2"/>
				</g>
			</g>
		</g>
		<g id="XMLID_34_">
			<g id="XMLID_35_">
				<g>
					<rect x="5" y="45.6" class="st4" width="9.1" height="0.6"/>
				</g>
			</g>
		</g>
		<g id="XMLID_32_">
			<g id="XMLID_33_">
				<g>
					<rect x="5" y="44.2" class="st4" width="9.1" height="0.2"/>
				</g>
			</g>
		</g>
		<g id="XMLID_30_">
			<g id="XMLID_31_">
				<g>
					<rect x="5" y="32.4" class="st4" width="9.1" height="0.2"/>
				</g>
			</g>
		</g>
		<g id="XMLID_28_">
			<g id="XMLID_29_">
				<g>
					<rect x="5" y="33.9" class="st4" width="9.1" height="0.4"/>
				</g>
			</g>
		</g>
		<g id="XMLID_26_">
			<g id="XMLID_27_">
				<g>
					<rect x="5" y="26.6" class="st4" width="9.1" height="0.2"/>
				</g>
			</g>
		</g>
		<g id="XMLID_24_">
			<g id="XMLID_25_">
				<g>
					<rect x="5" y="41.3" class="st4" width="9.1" height="0.4"/>
				</g>
			</g>
		</g>
		<g id="XMLID_22_">
			<g id="XMLID_23_">
				<g>
					<rect x="5" y="30" class="st4" width="9.1" height="2"/>
				</g>
			</g>
		</g>
		<g id="XMLID_20_">
			<g id="XMLID_21_">
				<g>
					<rect x="5" y="24.8" class="st4" width="9.1" height="1.6"/>
				</g>
			</g>
		</g>
		<g id="XMLID_18_">
			<g id="XMLID_19_">
				<g>
					<rect x="5" y="21.3" class="st4" width="9.1" height="1.4"/>
				</g>
			</g>
		</g>
		<g id="XMLID_16_">
			<g id="XMLID_17_">
				<g>
					<rect x="5" y="28" class="st4" width="9.1" height="0.6"/>
				</g>
			</g>
		</g>
		<g id="XMLID_14_">
			<g id="XMLID_15_">
				<g>
					<rect x="5" y="20.7" class="st4" width="9.1" height="0.2"/>
				</g>
			</g>
		</g>
		<g id="XMLID_12_">
			<g id="XMLID_13_">
				<g>
					<rect x="5" y="23.1" class="st4" width="9.1" height="0.6"/>
				</g>
			</g>
		</g>
		<g id="XMLID_10_">
			<g id="XMLID_11_">
				<g>
					<rect x="5" y="18.7" class="st4" width="9.1" height="0.4"/>
				</g>
			</g>
		</g>
		<g id="XMLID_8_">
			<g id="XMLID_9_">
				<g>
					<rect x="5" y="19.5" class="st4" width="9.1" height="1"/>
				</g>
			</g>
		</g>
		<g id="XMLID_6_">
			<g id="XMLID_7_">
				<g>
					<rect x="5" y="23.9" class="st4" width="9.1" height="0.4"/>
				</g>
			</g>
		</g>
	</g>
	<g>
		<path class="st4" d="M16.8,50.7V51l-1.7,1.2h1.7v0.3h-2.1v-0.3l1.7-1.2h-1.7v-0.3H16.8z"/>
		<path class="st4" d="M14.7,49.2c0-0.3,0.1-0.6,0.3-0.8c0.2-0.2,0.5-0.3,0.8-0.3c0.3,0,0.6,0.1,0.8,0.3c0.2,0.2,0.3,0.5,0.3,0.8
			c0,0.3-0.1,0.6-0.3,0.8c-0.2,0.2-0.5,0.3-0.8,0.3c-0.3,0-0.6-0.1-0.8-0.3C14.8,49.8,14.7,49.6,14.7,49.2z M16.6,49.2
			c0-0.2-0.1-0.4-0.2-0.5c-0.1-0.1-0.4-0.2-0.6-0.2s-0.5,0.1-0.6,0.2c-0.1,0.1-0.2,0.3-0.2,0.5c0,0.2,0.1,0.4,0.2,0.6
			c0.1,0.1,0.4,0.2,0.6,0.2c0.3,0,0.5-0.1,0.6-0.2C16.5,49.6,16.6,49.5,16.6,49.2z"/>
		<path class="st4" d="M16.8,47.4v0.3h-0.3v-0.3H16.8z"/>
		<path class="st4" d="M14.7,45.5c0-0.5,0.4-0.7,1.1-0.7c0.7,0,1.1,0.2,1.1,0.7c0,0.5-0.4,0.7-1.1,0.7C15,46.2,14.7,46,14.7,45.5z
			 M16.6,45.5c0-0.1-0.1-0.2-0.2-0.3c-0.1-0.1-0.4-0.1-0.7-0.1c-0.3,0-0.6,0-0.7,0.1c-0.1,0.1-0.2,0.2-0.2,0.3
			c0,0.1,0.1,0.2,0.2,0.3c0.1,0.1,0.4,0.1,0.7,0.1c0.3,0,0.6,0,0.7-0.1C16.6,45.7,16.6,45.6,16.6,45.5z"/>
		<path class="st4" d="M14.7,43.7c0-0.5,0.4-0.7,1.1-0.7c0.7,0,1.1,0.2,1.1,0.7c0,0.5-0.4,0.7-1.1,0.7C15,44.5,14.7,44.2,14.7,43.7z
			 M16.6,43.7c0-0.1-0.1-0.2-0.2-0.3c-0.1-0.1-0.4-0.1-0.7-0.1c-0.3,0-0.6,0-0.7,0.1c-0.1,0.1-0.2,0.2-0.2,0.3
			c0,0.1,0.1,0.2,0.2,0.3c0.1,0.1,0.4,0.1,0.7,0.1c0.3,0,0.6,0,0.7-0.1C16.6,44,16.6,43.9,16.6,43.7z"/>
		<path class="st4" d="M14.7,42c0-0.5,0.4-0.7,1.1-0.7c0.7,0,1.1,0.2,1.1,0.7c0,0.5-0.4,0.7-1.1,0.7C15,42.7,14.7,42.5,14.7,42z
			 M16.6,42c0-0.1-0.1-0.2-0.2-0.3c-0.1-0.1-0.4-0.1-0.7-0.1c-0.3,0-0.6,0-0.7,0.1c-0.1,0.1-0.2,0.2-0.2,0.3c0,0.1,0.1,0.2,0.2,0.3
			c0.1,0.1,0.4,0.1,0.7,0.1c0.3,0,0.6,0,0.7-0.1C16.6,42.3,16.6,42.1,16.6,42z"/>
		<path class="st4" d="M14.7,40.3c0-0.5,0.4-0.7,1.1-0.7c0.7,0,1.1,0.2,1.1,0.7c0,0.5-0.4,0.7-1.1,0.7C15,41,14.7,40.8,14.7,40.3z
			 M16.6,40.3c0-0.1-0.1-0.2-0.2-0.3c-0.1-0.1-0.4-0.1-0.7-0.1c-0.3,0-0.6,0-0.7,0.1c-0.1,0.1-0.2,0.2-0.2,0.3
			c0,0.1,0.1,0.2,0.2,0.3c0.1,0.1,0.4,0.1,0.7,0.1c0.3,0,0.6,0,0.7-0.1C16.6,40.5,16.6,40.4,16.6,40.3z"/>
		<path class="st4" d="M14.7,38.5c0-0.5,0.4-0.7,1.1-0.7c0.7,0,1.1,0.2,1.1,0.7c0,0.5-0.4,0.7-1.1,0.7C15,39.3,14.7,39,14.7,38.5z
			 M16.6,38.5c0-0.1-0.1-0.2-0.2-0.3c-0.1-0.1-0.4-0.1-0.7-0.1c-0.3,0-0.6,0-0.7,0.1c-0.1,0.1-0.2,0.2-0.2,0.3
			c0,0.1,0.1,0.2,0.2,0.3c0.1,0.1,0.4,0.1,0.7,0.1c0.3,0,0.6,0,0.7-0.1C16.6,38.8,16.6,38.7,16.6,38.5z"/>
		<path class="st4" d="M14.7,36.8c0-0.5,0.4-0.7,1.1-0.7c0.7,0,1.1,0.2,1.1,0.7c0,0.5-0.4,0.7-1.1,0.7C15,37.5,14.7,37.3,14.7,36.8z
			 M16.6,36.8c0-0.1-0.1-0.2-0.2-0.3c-0.1-0.1-0.4-0.1-0.7-0.1c-0.3,0-0.6,0-0.7,0.1c-0.1,0.1-0.2,0.2-0.2,0.3
			c0,0.1,0.1,0.2,0.2,0.3c0.1,0.1,0.4,0.1,0.7,0.1c0.3,0,0.6,0,0.7-0.1C16.6,37.1,16.6,36.9,16.6,36.8z"/>
		<path class="st4" d="M14.7,35.1c0-0.5,0.4-0.7,1.1-0.7c0.7,0,1.1,0.2,1.1,0.7c0,0.5-0.4,0.7-1.1,0.7C15,35.8,14.7,35.6,14.7,35.1z
			 M16.6,35.1c0-0.1-0.1-0.2-0.2-0.3c-0.1-0.1-0.4-0.1-0.7-0.1c-0.3,0-0.6,0-0.7,0.1c-0.1,0.1-0.2,0.2-0.2,0.3
			c0,0.1,0.1,0.2,0.2,0.3c0.1,0.1,0.4,0.1,0.7,0.1c0.3,0,0.6,0,0.7-0.1C16.6,35.3,16.6,35.2,16.6,35.1z"/>
		<path class="st4" d="M14.7,33.3c0-0.5,0.4-0.7,1.1-0.7c0.7,0,1.1,0.2,1.1,0.7c0,0.5-0.4,0.7-1.1,0.7C15,34.1,14.7,33.8,14.7,33.3z
			 M16.6,33.3c0-0.1-0.1-0.2-0.2-0.3c-0.1-0.1-0.4-0.1-0.7-0.1c-0.3,0-0.6,0-0.7,0.1c-0.1,0.1-0.2,0.2-0.2,0.3
			c0,0.1,0.1,0.2,0.2,0.3c0.1,0.1,0.4,0.1,0.7,0.1c0.3,0,0.6,0,0.7-0.1C16.6,33.6,16.6,33.5,16.6,33.3z"/>
		<path class="st4" d="M14.7,31.6c0-0.5,0.4-0.7,1.1-0.7c0.7,0,1.1,0.2,1.1,0.7c0,0.5-0.4,0.7-1.1,0.7C15,32.3,14.7,32.1,14.7,31.6z
			 M16.6,31.6c0-0.1-0.1-0.2-0.2-0.3c-0.1-0.1-0.4-0.1-0.7-0.1c-0.3,0-0.6,0-0.7,0.1c-0.1,0.1-0.2,0.2-0.2,0.3
			c0,0.1,0.1,0.2,0.2,0.3c0.1,0.1,0.4,0.1,0.7,0.1c0.3,0,0.6,0,0.7-0.1C16.6,31.9,16.6,31.7,16.6,31.6z"/>
		<path class="st4" d="M14.7,29.9c0-0.5,0.4-0.7,1.1-0.7c0.7,0,1.1,0.2,1.1,0.7c0,0.5-0.4,0.7-1.1,0.7C15,30.6,14.7,30.4,14.7,29.9z
			 M16.6,29.9c0-0.1-0.1-0.2-0.2-0.3c-0.1-0.1-0.4-0.1-0.7-0.1c-0.3,0-0.6,0-0.7,0.1c-0.1,0.1-0.2,0.2-0.2,0.3
			c0,0.1,0.1,0.2,0.2,0.3c0.1,0.1,0.4,0.1,0.7,0.1c0.3,0,0.6,0,0.7-0.1C16.6,30.1,16.6,30,16.6,29.9z"/>
		<path class="st4" d="M14.7,28.1c0-0.5,0.4-0.7,1.1-0.7c0.7,0,1.1,0.2,1.1,0.7c0,0.5-0.4,0.7-1.1,0.7C15,28.9,14.7,28.6,14.7,28.1z
			 M16.6,28.1c0-0.1-0.1-0.2-0.2-0.3c-0.1-0.1-0.4-0.1-0.7-0.1c-0.3,0-0.6,0-0.7,0.1c-0.1,0.1-0.2,0.2-0.2,0.3
			c0,0.1,0.1,0.2,0.2,0.3c0.1,0.1,0.4,0.1,0.7,0.1c0.3,0,0.6,0,0.7-0.1C16.6,28.4,16.6,28.3,16.6,28.1z"/>
		<path class="st4" d="M14.7,26.4c0-0.5,0.4-0.7,1.1-0.7c0.7,0,1.1,0.2,1.1,0.7c0,0.5-0.4,0.7-1.1,0.7C15,27.1,14.7,26.9,14.7,26.4z
			 M16.6,26.4c0-0.1-0.1-0.2-0.2-0.3C16.3,26,16.1,26,15.7,26c-0.3,0-0.6,0-0.7,0.1c-0.1,0.1-0.2,0.2-0.2,0.3c0,0.1,0.1,0.2,0.2,0.3
			c0.1,0.1,0.4,0.1,0.7,0.1c0.3,0,0.6,0,0.7-0.1C16.6,26.7,16.6,26.5,16.6,26.4z"/>
		<path class="st4" d="M14.7,24.7c0-0.5,0.4-0.7,1.1-0.7c0.7,0,1.1,0.2,1.1,0.7c0,0.5-0.4,0.7-1.1,0.7C15,25.4,14.7,25.2,14.7,24.7z
			 M16.6,24.7c0-0.1-0.1-0.2-0.2-0.3c-0.1-0.1-0.4-0.1-0.7-0.1c-0.3,0-0.6,0-0.7,0.1c-0.1,0.1-0.2,0.2-0.2,0.3
			c0,0.1,0.1,0.2,0.2,0.3c0.1,0.1,0.4,0.1,0.7,0.1c0.3,0,0.6,0,0.7-0.1C16.6,24.9,16.6,24.8,16.6,24.7z"/>
		<path class="st4" d="M14.7,22.9c0-0.5,0.4-0.7,1.1-0.7c0.7,0,1.1,0.2,1.1,0.7c0,0.5-0.4,0.7-1.1,0.7C15,23.7,14.7,23.4,14.7,22.9z
			 M16.6,22.9c0-0.1-0.1-0.2-0.2-0.3c-0.1-0.1-0.4-0.1-0.7-0.1c-0.3,0-0.6,0-0.7,0.1c-0.1,0.1-0.2,0.2-0.2,0.3
			c0,0.1,0.1,0.2,0.2,0.3c0.1,0.1,0.4,0.1,0.7,0.1c0.3,0,0.6,0,0.7-0.1C16.6,23.2,16.6,23.1,16.6,22.9z"/>
		<path class="st4" d="M14.7,21.2c0-0.5,0.4-0.7,1.1-0.7c0.7,0,1.1,0.2,1.1,0.7c0,0.5-0.4,0.7-1.1,0.7C15,21.9,14.7,21.7,14.7,21.2z
			 M16.6,21.2c0-0.1-0.1-0.2-0.2-0.3c-0.1-0.1-0.4-0.1-0.7-0.1c-0.3,0-0.6,0-0.7,0.1c-0.1,0.1-0.2,0.2-0.2,0.3
			c0,0.1,0.1,0.2,0.2,0.3c0.1,0.1,0.4,0.1,0.7,0.1c0.3,0,0.6,0,0.7-0.1C16.6,21.4,16.6,21.3,16.6,21.2z"/>
		<path class="st4" d="M14.7,19.5c0-0.5,0.4-0.7,1.1-0.7c0.7,0,1.1,0.2,1.1,0.7c0,0.5-0.4,0.7-1.1,0.7C15,20.2,14.7,20,14.7,19.5z
			 M16.6,19.5c0-0.1-0.1-0.2-0.2-0.3c-0.1-0.1-0.4-0.1-0.7-0.1c-0.3,0-0.6,0-0.7,0.1c-0.1,0.1-0.2,0.2-0.2,0.3
			c0,0.1,0.1,0.2,0.2,0.3c0.1,0.1,0.4,0.1,0.7,0.1c0.3,0,0.6,0,0.7-0.1C16.6,19.7,16.6,19.6,16.6,19.5z"/>
	</g>
</g>
<g>
	<g>
		<g>
			<path class="st4" d="M49.2,22.8c0.3,0,0.6,0.1,0.8,0.2c0.2,0.2,0.4,0.4,0.5,0.7c0.1,0.3,0.2,0.8,0.2,1.3c0,0.6-0.1,1-0.2,1.3
				c-0.1,0.3-0.3,0.5-0.5,0.7s-0.5,0.2-0.8,0.2c-0.3,0-0.6-0.1-0.8-0.2c-0.2-0.1-0.4-0.4-0.5-0.7c-0.1-0.3-0.2-0.7-0.2-1.3
				c0-0.8,0.1-1.4,0.4-1.7C48.3,23,48.7,22.8,49.2,22.8z M49.2,23.6c-0.1,0-0.3,0-0.4,0.1c-0.1,0.1-0.2,0.2-0.2,0.5
				c-0.1,0.2-0.1,0.5-0.1,0.9c0,0.5,0.1,0.9,0.2,1.1c0.1,0.2,0.3,0.3,0.5,0.3c0.2,0,0.4-0.1,0.5-0.3c0.1-0.2,0.2-0.6,0.2-1.2
				c0-0.6-0.1-1-0.2-1.2C49.6,23.7,49.4,23.6,49.2,23.6z"/>
			<path class="st4" d="M52.5,22.8c0.3,0,0.6,0.1,0.8,0.2c0.2,0.2,0.4,0.4,0.5,0.7c0.1,0.3,0.2,0.8,0.2,1.3c0,0.6-0.1,1-0.2,1.3
				c-0.1,0.3-0.3,0.5-0.5,0.7s-0.5,0.2-0.8,0.2c-0.3,0-0.6-0.1-0.8-0.2c-0.2-0.1-0.4-0.4-0.5-0.7c-0.1-0.3-0.2-0.7-0.2-1.3
				c0-0.8,0.1-1.4,0.4-1.7C51.7,23,52,22.8,52.5,22.8z M52.5,23.6c-0.1,0-0.3,0-0.4,0.1c-0.1,0.1-0.2,0.2-0.2,0.5
				c-0.1,0.2-0.1,0.5-0.1,0.9c0,0.5,0.1,0.9,0.2,1.1c0.1,0.2,0.3,0.3,0.5,0.3c0.2,0,0.4-0.1,0.5-0.3c0.1-0.2,0.2-0.6,0.2-1.2
				c0-0.6-0.1-1-0.2-1.2C52.9,23.7,52.7,23.6,52.5,23.6z"/>
			<path class="st4" d="M54.3,27.6l1.9-5.2h0.6l-1.9,5.2H54.3z"/>
			<path class="st4" d="M58.6,22.8c0.3,0,0.6,0.1,0.8,0.2c0.2,0.2,0.4,0.4,0.5,0.7c0.1,0.3,0.2,0.8,0.2,1.3c0,0.6-0.1,1-0.2,1.3
				c-0.1,0.3-0.3,0.5-0.5,0.7c-0.2,0.1-0.5,0.2-0.8,0.2c-0.3,0-0.6-0.1-0.8-0.2c-0.2-0.1-0.4-0.4-0.5-0.7c-0.1-0.3-0.2-0.7-0.2-1.3
				c0-0.8,0.1-1.4,0.4-1.7C57.7,23,58.1,22.8,58.6,22.8z M58.6,23.6c-0.1,0-0.3,0-0.4,0.1c-0.1,0.1-0.2,0.2-0.2,0.5
				c-0.1,0.2-0.1,0.5-0.1,0.9c0,0.5,0.1,0.9,0.2,1.1c0.1,0.2,0.3,0.3,0.5,0.3c0.2,0,0.4-0.1,0.5-0.3c0.1-0.2,0.2-0.6,0.2-1.2
				c0-0.6-0.1-1-0.2-1.2C59,23.7,58.8,23.6,58.6,23.6z"/>
			<path class="st4" d="M62,22.8c0.3,0,0.6,0.1,0.8,0.2c0.2,0.2,0.4,0.4,0.5,0.7c0.1,0.3,0.2,0.8,0.2,1.3c0,0.6-0.1,1-0.2,1.3
				c-0.1,0.3-0.3,0.5-0.5,0.7s-0.5,0.2-0.8,0.2c-0.3,0-0.6-0.1-0.8-0.2c-0.2-0.1-0.4-0.4-0.5-0.7c-0.1-0.3-0.2-0.7-0.2-1.3
				c0-0.8,0.1-1.4,0.4-1.7C61.1,23,61.5,22.8,62,22.8z M62,23.6c-0.1,0-0.3,0-0.4,0.1c-0.1,0.1-0.2,0.2-0.2,0.5
				c-0.1,0.2-0.1,0.5-0.1,0.9c0,0.5,0.1,0.9,0.2,1.1c0.1,0.2,0.3,0.3,0.5,0.3c0.2,0,0.4-0.1,0.5-0.3c0.1-0.2,0.2-0.6,0.2-1.2
				c0-0.6-0.1-1-0.2-1.2C62.3,23.7,62.2,23.6,62,23.6z"/>
			<path class="st4" d="M63.8,27.6l1.9-5.2h0.6l-1.9,5.2H63.8z"/>
			<path class="st4" d="M68,22.8c0.3,0,0.6,0.1,0.8,0.2c0.2,0.2,0.4,0.4,0.5,0.7c0.1,0.3,0.2,0.8,0.2,1.3c0,0.6-0.1,1-0.2,1.3
				c-0.1,0.3-0.3,0.5-0.5,0.7s-0.5,0.2-0.8,0.2c-0.3,0-0.6-0.1-0.8-0.2c-0.2-0.1-0.4-0.4-0.5-0.7c-0.1-0.3-0.2-0.7-0.2-1.3
				c0-0.8,0.1-1.4,0.4-1.7C67.2,23,67.6,22.8,68,22.8z M68.1,23.6c-0.1,0-0.3,0-0.4,0.1c-0.1,0.1-0.2,0.2-0.2,0.5
				c-0.1,0.2-0.1,0.5-0.1,0.9c0,0.5,0.1,0.9,0.2,1.1c0.1,0.2,0.3,0.3,0.5,0.3c0.2,0,0.4-0.1,0.5-0.3c0.1-0.2,0.2-0.6,0.2-1.2
				c0-0.6-0.1-1-0.2-1.2C68.4,23.7,68.3,23.6,68.1,23.6z"/>
			<path class="st4" d="M71.4,22.8c0.3,0,0.6,0.1,0.8,0.2c0.2,0.2,0.4,0.4,0.5,0.7c0.1,0.3,0.2,0.8,0.2,1.3c0,0.6-0.1,1-0.2,1.3
				c-0.1,0.3-0.3,0.5-0.5,0.7c-0.2,0.1-0.5,0.2-0.8,0.2c-0.3,0-0.6-0.1-0.8-0.2c-0.2-0.1-0.4-0.4-0.5-0.7c-0.1-0.3-0.2-0.7-0.2-1.3
				c0-0.8,0.1-1.4,0.4-1.7C70.5,23,70.9,22.8,71.4,22.8z M71.4,23.6c-0.1,0-0.3,0-0.4,0.1c-0.1,0.1-0.2,0.2-0.2,0.5
				c-0.1,0.2-0.1,0.5-0.1,0.9c0,0.5,0.1,0.9,0.2,1.1c0.1,0.2,0.3,0.3,0.5,0.3c0.2,0,0.4-0.1,0.5-0.3c0.1-0.2,0.2-0.6,0.2-1.2
				c0-0.6-0.1-1-0.2-1.2C71.8,23.7,71.6,23.6,71.4,23.6z"/>
			<path class="st4" d="M74.7,22.8c0.3,0,0.6,0.1,0.8,0.2c0.2,0.2,0.4,0.4,0.5,0.7c0.1,0.3,0.2,0.8,0.2,1.3c0,0.6-0.1,1-0.2,1.3
				c-0.1,0.3-0.3,0.5-0.5,0.7c-0.2,0.1-0.5,0.2-0.8,0.2c-0.3,0-0.6-0.1-0.8-0.2c-0.2-0.1-0.4-0.4-0.5-0.7c-0.1-0.3-0.2-0.7-0.2-1.3
				c0-0.8,0.1-1.4,0.4-1.7C73.9,23,74.2,22.8,74.7,22.8z M74.7,23.6c-0.1,0-0.3,0-0.4,0.1c-0.1,0.1-0.2,0.2-0.2,0.5
				c-0.1,0.2-0.1,0.5-0.1,0.9c0,0.5,0.1,0.9,0.2,1.1c0.1,0.2,0.3,0.3,0.5,0.3c0.2,0,0.4-0.1,0.5-0.3c0.1-0.2,0.2-0.6,0.2-1.2
				c0-0.6-0.1-1-0.2-1.2C75.1,23.7,75,23.6,74.7,23.6z"/>
			<path class="st4" d="M78.1,22.8c0.3,0,0.6,0.1,0.8,0.2c0.2,0.2,0.4,0.4,0.5,0.7c0.1,0.3,0.2,0.8,0.2,1.3c0,0.6-0.1,1-0.2,1.3
				c-0.1,0.3-0.3,0.5-0.5,0.7c-0.2,0.1-0.5,0.2-0.8,0.2c-0.3,0-0.6-0.1-0.8-0.2c-0.2-0.1-0.4-0.4-0.5-0.7c-0.1-0.3-0.2-0.7-0.2-1.3
				c0-0.8,0.1-1.4,0.4-1.7C77.2,23,77.6,22.8,78.1,22.8z M78.1,23.6c-0.1,0-0.3,0-0.4,0.1c-0.1,0.1-0.2,0.2-0.2,0.5
				c-0.1,0.2-0.1,0.5-0.1,0.9c0,0.5,0.1,0.9,0.2,1.1c0.1,0.2,0.3,0.3,0.5,0.3c0.2,0,0.4-0.1,0.5-0.3c0.1-0.2,0.2-0.6,0.2-1.2
				c0-0.6-0.1-1-0.2-1.2C78.5,23.7,78.3,23.6,78.1,23.6z"/>
		</g>
		<g>
			<path class="st4" d="M47.7,21.7v-1.5H48c0.2,0,0.4,0,0.5,0.1c0.1,0.1,0.3,0.1,0.3,0.3c0.1,0.1,0.1,0.3,0.1,0.5
				c0,0.2,0,0.3-0.1,0.4c-0.1,0.1-0.2,0.2-0.3,0.3c-0.1,0.1-0.3,0.1-0.4,0.1H47.7z M47.8,21.6H48c0.2,0,0.4,0,0.4,0
				c0.1,0,0.2-0.1,0.3-0.2c0.1-0.1,0.1-0.2,0.1-0.4c0-0.1,0-0.3-0.1-0.4c-0.1-0.1-0.2-0.2-0.3-0.2c-0.1,0-0.3,0-0.5,0h-0.1V21.6z"/>
			<path class="st4" d="M49.9,20.2l0.7,1.5h-0.2l-0.2-0.5h-0.7l-0.2,0.5h-0.2L49.9,20.2L49.9,20.2z M49.9,20.5l-0.3,0.5h0.5
				L49.9,20.5z"/>
			<path class="st4" d="M50.7,20.3v-0.1h0.8v0.1h-0.3v1.4H51v-1.4H50.7z"/>
			<path class="st4" d="M51.7,20.2h0.9v0.1h-0.7v0.5h0.7V21h-0.7v0.6h0.7v0.1h-0.9V20.2z"/>
		</g>
	</g>
	<g>
		<g>
			<path class="st4" d="M49,34.8c0.3,0,0.6,0.1,0.8,0.2c0.2,0.2,0.4,0.4,0.5,0.7c0.1,0.3,0.2,0.8,0.2,1.3c0,0.6-0.1,1-0.2,1.3
				c-0.1,0.3-0.3,0.5-0.5,0.7c-0.2,0.1-0.5,0.2-0.8,0.2c-0.3,0-0.6-0.1-0.8-0.2c-0.2-0.1-0.4-0.4-0.5-0.7c-0.1-0.3-0.2-0.7-0.2-1.3
				c0-0.8,0.1-1.4,0.4-1.7C48.1,35,48.5,34.8,49,34.8z M49,35.6c-0.1,0-0.3,0-0.4,0.1c-0.1,0.1-0.2,0.2-0.2,0.5
				c-0.1,0.2-0.1,0.5-0.1,0.9c0,0.5,0.1,0.9,0.2,1.1c0.1,0.2,0.3,0.3,0.5,0.3c0.2,0,0.4-0.1,0.5-0.3c0.1-0.2,0.2-0.6,0.2-1.2
				c0-0.6-0.1-1-0.2-1.2C49.4,35.7,49.2,35.6,49,35.6z"/>
			<path class="st4" d="M52.3,34.8c0.3,0,0.6,0.1,0.8,0.2c0.2,0.2,0.4,0.4,0.5,0.7c0.1,0.3,0.2,0.8,0.2,1.3c0,0.6-0.1,1-0.2,1.3
				c-0.1,0.3-0.3,0.5-0.5,0.7c-0.2,0.1-0.5,0.2-0.8,0.2c-0.3,0-0.6-0.1-0.8-0.2c-0.2-0.1-0.4-0.4-0.5-0.7c-0.1-0.3-0.2-0.7-0.2-1.3
				c0-0.8,0.1-1.4,0.4-1.7C51.5,35,51.9,34.8,52.3,34.8z M52.4,35.6c-0.1,0-0.3,0-0.4,0.1c-0.1,0.1-0.2,0.2-0.2,0.5
				c-0.1,0.2-0.1,0.5-0.1,0.9c0,0.5,0.1,0.9,0.2,1.1c0.1,0.2,0.3,0.3,0.5,0.3c0.2,0,0.4-0.1,0.5-0.3c0.1-0.2,0.2-0.6,0.2-1.2
				c0-0.6-0.1-1-0.2-1.2C52.7,35.7,52.6,35.6,52.4,35.6z"/>
			<path class="st4" d="M54.9,35.4c0.1,0,0.2,0,0.3,0.1c0.1,0.1,0.1,0.2,0.1,0.3c0,0.1,0,0.2-0.1,0.3c-0.1,0.1-0.2,0.1-0.3,0.1
				c-0.1,0-0.2,0-0.3-0.1c-0.1-0.1-0.1-0.2-0.1-0.3c0-0.1,0-0.2,0.1-0.3C54.6,35.5,54.7,35.4,54.9,35.4z M54.9,37.9
				c0.1,0,0.2,0,0.3,0.1c0.1,0.1,0.1,0.2,0.1,0.3c0,0.1,0,0.2-0.1,0.3c-0.1,0.1-0.2,0.1-0.3,0.1c-0.1,0-0.2,0-0.3-0.1
				c-0.1-0.1-0.1-0.2-0.1-0.3c0-0.1,0-0.2,0.1-0.3C54.6,37.9,54.7,37.9,54.9,37.9z"/>
			<path class="st4" d="M57.4,34.8c0.3,0,0.6,0.1,0.8,0.2c0.2,0.2,0.4,0.4,0.5,0.7c0.1,0.3,0.2,0.8,0.2,1.3c0,0.6-0.1,1-0.2,1.3
				c-0.1,0.3-0.3,0.5-0.5,0.7c-0.2,0.1-0.5,0.2-0.8,0.2c-0.3,0-0.6-0.1-0.8-0.2c-0.2-0.1-0.4-0.4-0.5-0.7c-0.1-0.3-0.2-0.7-0.2-1.3
				c0-0.8,0.1-1.4,0.4-1.7C56.5,35,56.9,34.8,57.4,34.8z M57.4,35.6c-0.1,0-0.3,0-0.4,0.1c-0.1,0.1-0.2,0.2-0.2,0.5
				c-0.1,0.2-0.1,0.5-0.1,0.9c0,0.5,0.1,0.9,0.2,1.1c0.1,0.2,0.3,0.3,0.5,0.3c0.2,0,0.4-0.1,0.5-0.3c0.1-0.2,0.2-0.6,0.2-1.2
				c0-0.6-0.1-1-0.2-1.2C57.7,35.7,57.6,35.6,57.4,35.6z"/>
			<path class="st4" d="M60.7,34.8c0.3,0,0.6,0.1,0.8,0.2c0.2,0.2,0.4,0.4,0.5,0.7c0.1,0.3,0.2,0.8,0.2,1.3c0,0.6-0.1,1-0.2,1.3
				c-0.1,0.3-0.3,0.5-0.5,0.7c-0.2,0.1-0.5,0.2-0.8,0.2c-0.3,0-0.6-0.1-0.8-0.2c-0.2-0.1-0.4-0.4-0.5-0.7c-0.1-0.3-0.2-0.7-0.2-1.3
				c0-0.8,0.1-1.4,0.4-1.7C59.8,35,60.2,34.8,60.7,34.8z M60.7,35.6c-0.1,0-0.3,0-0.4,0.1c-0.1,0.1-0.2,0.2-0.2,0.5
				c-0.1,0.2-0.1,0.5-0.1,0.9c0,0.5,0.1,0.9,0.2,1.1c0.1,0.2,0.3,0.3,0.5,0.3c0.2,0,0.4-0.1,0.5-0.3c0.1-0.2,0.2-0.6,0.2-1.2
				c0-0.6-0.1-1-0.2-1.2C61.1,35.7,60.9,35.6,60.7,35.6z"/>
		</g>
		<g>
			<path class="st4" d="M47.5,32.3v-0.1h0.8v0.1H48v1.4h-0.2v-1.4H47.5z"/>
			<path class="st4" d="M48.6,32.2h0.2v1.5h-0.2V32.2z"/>
			<path class="st4" d="M49,33.7l0.2-1.5h0l0.6,1.2l0.6-1.2h0l0.2,1.5h-0.1l-0.1-1.1l-0.5,1.1h0l-0.5-1.1l-0.1,1.1H49z"/>
			<path class="st4" d="M51,32.2h0.9v0.1h-0.7v0.5h0.7v0.1h-0.7v0.6h0.7v0.1H51V32.2z"/>
		</g>
	</g>
	<g>
		<g>
			<path class="st4" d="M22.6,46.4h0.8V48h1.4v-1.6h0.8v4.3h-0.8v-1.9h-1.4v1.9h-0.8V46.4z"/>
			<path class="st4" d="M28.7,46.3c0.6,0,1.1,0.2,1.6,0.7c0.4,0.4,0.7,1,0.7,1.6c0,0.6-0.2,1.2-0.6,1.6c-0.4,0.4-1,0.7-1.6,0.7
				c-0.6,0-1.2-0.2-1.6-0.7c-0.4-0.4-0.6-1-0.6-1.6c0-0.4,0.1-0.8,0.3-1.1c0.2-0.3,0.5-0.6,0.8-0.8C27.9,46.4,28.3,46.3,28.7,46.3z
				 M28.7,47.1c-0.4,0-0.7,0.1-1,0.4c-0.3,0.3-0.4,0.6-0.4,1.1c0,0.5,0.2,0.8,0.5,1.1c0.3,0.2,0.6,0.3,0.9,0.3c0.4,0,0.7-0.1,1-0.4
				c0.3-0.3,0.4-0.6,0.4-1c0-0.4-0.1-0.8-0.4-1C29.4,47.2,29.1,47.1,28.7,47.1z"/>
			<path class="st4" d="M32.1,46.4h0.8l1,3l1-3h0.8l0.7,4.3h-0.8L35.1,48l-0.9,2.7h-0.7L32.6,48l-0.5,2.7h-0.8L32.1,46.4z"/>
			<path class="st4" d="M37,46.4h2.3v0.8h-1.5V48h1.5v0.8h-1.5v1.1h1.5v0.8H37V46.4z"/>
		</g>
		<g>
			<path class="st4" d="M22.5,45.5l0.2-1.5h0l0.6,1.2L24,44h0l0.2,1.5h-0.1L24,44.4l-0.5,1.1h0l-0.5-1.1l-0.1,1.1H22.5z"/>
			<path class="st4" d="M25.2,44l0.7,1.5h-0.2L25.5,45h-0.7l-0.2,0.5h-0.2L25.2,44L25.2,44z M25.1,44.3l-0.3,0.5h0.5L25.1,44.3z"/>
			<path class="st4" d="M26,44.2V44h0.8v0.1h-0.3v1.4h-0.2v-1.4H26z"/>
			<path class="st4" d="M28.4,44.3l-0.1,0.1c-0.1-0.1-0.1-0.2-0.2-0.2c-0.1,0-0.2-0.1-0.3-0.1c-0.1,0-0.2,0-0.3,0.1
				c-0.1,0.1-0.2,0.1-0.2,0.2c-0.1,0.1-0.1,0.2-0.1,0.3c0,0.2,0.1,0.3,0.2,0.5c0.1,0.1,0.3,0.2,0.5,0.2c0.2,0,0.4-0.1,0.5-0.2
				l0.1,0.1c-0.1,0.1-0.2,0.2-0.3,0.2c-0.1,0.1-0.2,0.1-0.4,0.1c-0.3,0-0.5-0.1-0.6-0.3c-0.1-0.1-0.2-0.3-0.2-0.5
				c0-0.2,0.1-0.4,0.2-0.6c0.2-0.2,0.3-0.2,0.6-0.2c0.1,0,0.3,0,0.4,0.1C28.2,44.1,28.3,44.2,28.4,44.3z"/>
			<path class="st4" d="M28.7,44h0.2v0.6h0.8V44h0.2v1.5h-0.2v-0.7h-0.8v0.7h-0.2V44z"/>
		</g>
	</g>
	<g>
		<g>
			<path class="st4" d="M22.7,20.5v-0.1h0.8l-0.6,1.4h0.6v0.1h-0.8l0.6-1.4H22.7z"/>
			<path class="st4" d="M24.5,20.3c0.2,0,0.4,0.1,0.6,0.2c0.2,0.2,0.2,0.3,0.2,0.6c0,0.2-0.1,0.4-0.2,0.6c-0.2,0.2-0.3,0.2-0.6,0.2
				c-0.2,0-0.4-0.1-0.6-0.2c-0.2-0.2-0.2-0.3-0.2-0.6c0-0.1,0-0.3,0.1-0.4c0.1-0.1,0.2-0.2,0.3-0.3C24.2,20.4,24.4,20.3,24.5,20.3z
				 M24.5,20.5c-0.1,0-0.2,0-0.3,0.1c-0.1,0.1-0.2,0.1-0.2,0.2c-0.1,0.1-0.1,0.2-0.1,0.3c0,0.2,0.1,0.3,0.2,0.5s0.3,0.2,0.5,0.2
				c0.1,0,0.2,0,0.3-0.1c0.1-0.1,0.2-0.1,0.2-0.2c0.1-0.1,0.1-0.2,0.1-0.3c0-0.1,0-0.2-0.1-0.3c-0.1-0.1-0.1-0.2-0.2-0.2
				C24.7,20.5,24.6,20.5,24.5,20.5z"/>
			<path class="st4" d="M25.6,21.9v-1.5h0l1,1.2v-1.2h0.1v1.5h0l-1-1.1v1.1H25.6z"/>
			<path class="st4" d="M27.2,20.4h0.9v0.1h-0.7V21H28v0.1h-0.7v0.6H28v0.1h-0.9V20.4z"/>
		</g>
		<g>
			<path class="st4" d="M22.7,22.8H25v0.8h-1.5v0.8H25v0.8h-1.5v1.1H25v0.8h-2.3V22.8z"/>
			<path class="st4" d="M26.3,24.2h-0.8c0-0.5,0.2-0.8,0.4-1.1c0.3-0.3,0.6-0.4,1-0.4c0.3,0,0.5,0.1,0.7,0.2
				c0.2,0.1,0.4,0.3,0.5,0.5c0.1,0.2,0.2,0.4,0.2,0.6c0,0.3-0.1,0.5-0.2,0.8c-0.1,0.3-0.4,0.6-0.8,1l-0.5,0.5h1.5v0.8h-3v-0.4
				l1.3-1.3c0.3-0.3,0.5-0.6,0.6-0.8c0.1-0.2,0.2-0.4,0.2-0.5c0-0.2-0.1-0.3-0.2-0.4c-0.1-0.1-0.2-0.2-0.4-0.2
				c-0.2,0-0.3,0.1-0.4,0.2C26.4,23.8,26.3,24,26.3,24.2z"/>
		</g>
	</g>
	<g>
		<g>
			<path class="st4" d="M22.5,33.5l0.1-0.1c0.1,0.2,0.2,0.3,0.3,0.3c0.1,0,0.1,0,0.1,0c0,0,0.1-0.1,0.1-0.1c0,0,0-0.1,0-0.1
				c0-0.1,0-0.1-0.1-0.1c0-0.1-0.1-0.1-0.3-0.2c-0.1-0.1-0.2-0.2-0.2-0.2c-0.1-0.1-0.1-0.1-0.1-0.2c0-0.1,0-0.1,0-0.2
				c0-0.1,0.1-0.1,0.1-0.1c0.1,0,0.1,0,0.2,0c0.1,0,0.1,0,0.2,0.1c0.1,0,0.1,0.1,0.2,0.2l-0.1,0.1c-0.1-0.1-0.1-0.1-0.1-0.1
				c0,0-0.1,0-0.1,0c-0.1,0-0.1,0-0.1,0.1c0,0-0.1,0.1-0.1,0.1c0,0,0,0.1,0,0.1c0,0,0,0.1,0.1,0.1c0,0,0.1,0.1,0.2,0.2
				c0.1,0.1,0.2,0.2,0.3,0.3c0,0.1,0.1,0.2,0.1,0.2c0,0.1,0,0.2-0.1,0.3c-0.1,0.1-0.2,0.1-0.3,0.1c-0.1,0-0.2,0-0.3-0.1
				C22.6,33.7,22.5,33.6,22.5,33.5z"/>
			<path class="st4" d="M23.7,32.3h0.9v0.1h-0.7v0.5h0.7v0.1h-0.7v0.6h0.7v0.1h-0.9V32.3z"/>
			<path class="st4" d="M25.4,32.3l0.7,1.5H26l-0.2-0.5h-0.7l-0.2,0.5h-0.2L25.4,32.3L25.4,32.3z M25.4,32.6l-0.3,0.5h0.5L25.4,32.6
				z"/>
			<path class="st4" d="M26.2,32.4v-0.1H27v0.1h-0.3v1.4h-0.2v-1.4H26.2z"/>
		</g>
		<g>
			<path class="st4" d="M23.5,36.2h-0.8c0-0.5,0.2-0.8,0.4-1.1c0.3-0.3,0.6-0.4,1-0.4c0.3,0,0.5,0.1,0.7,0.2
				c0.2,0.1,0.4,0.3,0.5,0.5c0.1,0.2,0.2,0.4,0.2,0.6c0,0.3-0.1,0.5-0.2,0.8c-0.1,0.3-0.4,0.6-0.8,1L24,38.3h1.5v0.8h-3v-0.4
				l1.3-1.3c0.3-0.3,0.5-0.6,0.6-0.8c0.1-0.2,0.2-0.4,0.2-0.5c0-0.2-0.1-0.3-0.2-0.4c-0.1-0.1-0.2-0.2-0.4-0.2
				c-0.2,0-0.3,0.1-0.4,0.2C23.6,35.8,23.5,36,23.5,36.2z"/>
			<path class="st4" d="M26.8,36.2H26c0-0.5,0.2-0.8,0.4-1.1c0.3-0.3,0.6-0.4,1-0.4c0.3,0,0.5,0.1,0.7,0.2c0.2,0.1,0.4,0.3,0.5,0.5
				c0.1,0.2,0.2,0.4,0.2,0.6c0,0.3-0.1,0.5-0.2,0.8c-0.1,0.3-0.4,0.6-0.8,1l-0.5,0.5h1.5v0.8h-3v-0.4l1.3-1.3
				c0.3-0.3,0.5-0.6,0.6-0.8c0.1-0.2,0.2-0.4,0.2-0.5c0-0.2-0.1-0.3-0.2-0.4c-0.1-0.1-0.2-0.2-0.4-0.2c-0.2,0-0.3,0.1-0.4,0.2
				C26.9,35.8,26.8,36,26.8,36.2z"/>
			<path class="st4" d="M33.5,35.6l-0.6,0.5c-0.4-0.4-0.8-0.6-1.3-0.6c-0.4,0-0.8,0.1-1,0.4c-0.3,0.3-0.4,0.6-0.4,1
				c0,0.3,0.1,0.5,0.2,0.8c0.1,0.2,0.3,0.4,0.5,0.5c0.2,0.1,0.5,0.2,0.8,0.2c0.2,0,0.5,0,0.6-0.1c0.2-0.1,0.4-0.2,0.6-0.5l0.5,0.6
				c-0.3,0.3-0.6,0.5-0.9,0.6c-0.3,0.1-0.6,0.2-1,0.2c-0.7,0-1.2-0.2-1.6-0.6c-0.4-0.4-0.6-1-0.6-1.6c0-0.4,0.1-0.8,0.3-1.1
				c0.2-0.3,0.5-0.6,0.8-0.8c0.4-0.2,0.7-0.3,1.2-0.3c0.4,0,0.7,0.1,1,0.2C33,35.1,33.3,35.3,33.5,35.6z"/>
		</g>
	</g>
	<g>
		<g>
			<path class="st4" d="M62.7,44H63c0.2,0,0.3,0,0.3,0c0.1,0,0.2,0.1,0.2,0.1c0.1,0.1,0.1,0.1,0.1,0.2c0,0.1,0,0.2-0.1,0.2
				c-0.1,0.1-0.1,0.1-0.2,0.1c-0.1,0-0.2,0-0.4,0h-0.1v0.7h-0.2V44z M62.9,44.1v0.5l0.3,0c0.1,0,0.2,0,0.2,0c0,0,0.1,0,0.1-0.1
				c0,0,0-0.1,0-0.1c0-0.1,0-0.1,0-0.1c0,0-0.1-0.1-0.1-0.1c0,0-0.1,0-0.2,0H62.9z"/>
			<path class="st4" d="M64,44h0.3c0.2,0,0.3,0,0.3,0c0.1,0,0.2,0.1,0.2,0.1c0.1,0.1,0.1,0.2,0.1,0.2c0,0.1,0,0.2-0.1,0.2
				c0,0.1-0.1,0.1-0.2,0.1c-0.1,0-0.2,0-0.3,0l0.5,0.7h-0.2l-0.5-0.7h-0.1v0.7H64V44z M64.2,44.1v0.5l0.3,0c0.1,0,0.2,0,0.2,0
				c0,0,0.1,0,0.1-0.1c0,0,0-0.1,0-0.1c0-0.1,0-0.1,0-0.1c0,0-0.1-0.1-0.1-0.1c0,0-0.1,0-0.2,0H64.2z"/>
			<path class="st4" d="M65.3,44h0.2v1.5h-0.2V44z"/>
			<path class="st4" d="M67.2,44.3L67,44.4c-0.1-0.1-0.1-0.2-0.2-0.2c-0.1,0-0.2-0.1-0.3-0.1c-0.1,0-0.2,0-0.3,0.1
				c-0.1,0.1-0.2,0.1-0.2,0.2c-0.1,0.1-0.1,0.2-0.1,0.3c0,0.2,0.1,0.3,0.2,0.5c0.1,0.1,0.3,0.2,0.5,0.2c0.2,0,0.4-0.1,0.5-0.2
				l0.1,0.1c-0.1,0.1-0.2,0.2-0.3,0.2c-0.1,0.1-0.2,0.1-0.4,0.1c-0.3,0-0.5-0.1-0.6-0.3c-0.1-0.1-0.2-0.3-0.2-0.5
				c0-0.2,0.1-0.4,0.2-0.6c0.2-0.2,0.3-0.2,0.6-0.2c0.1,0,0.3,0,0.4,0.1C67,44.1,67.1,44.2,67.2,44.3z"/>
			<path class="st4" d="M67.5,44h0.9v0.1h-0.7v0.5h0.7v0.1h-0.7v0.6h0.7v0.1h-0.9V44z"/>
		</g>
		<g>
			<path class="st4" d="M63.7,47.8h-0.8c0-0.5,0.2-0.8,0.4-1.1c0.3-0.3,0.6-0.4,1-0.4c0.3,0,0.5,0.1,0.7,0.2
				c0.2,0.1,0.4,0.3,0.5,0.5c0.1,0.2,0.2,0.4,0.2,0.6c0,0.3-0.1,0.5-0.2,0.8c-0.1,0.3-0.4,0.6-0.8,1l-0.5,0.5h1.5v0.8h-3v-0.4
				l1.3-1.3c0.3-0.3,0.5-0.6,0.6-0.8c0.1-0.2,0.2-0.4,0.2-0.5c0-0.2-0.1-0.3-0.2-0.4c-0.1-0.1-0.2-0.2-0.4-0.2
				c-0.2,0-0.3,0.1-0.4,0.2C63.8,47.4,63.7,47.6,63.7,47.8z"/>
			<path class="st4" d="M67,46.4h2v0.8h-1.4L67.4,48c0,0,0.1,0,0.1,0c0,0,0.1,0,0.1,0c0.4,0,0.7,0.1,1,0.4c0.3,0.3,0.4,0.6,0.4,1
				c0,0.4-0.1,0.8-0.4,1.1c-0.3,0.3-0.6,0.4-1,0.4c-0.4,0-0.7-0.1-0.9-0.3s-0.4-0.5-0.5-0.8H67c0.1,0.1,0.2,0.2,0.3,0.3
				c0.1,0.1,0.2,0.1,0.4,0.1c0.2,0,0.3-0.1,0.5-0.2c0.1-0.1,0.2-0.3,0.2-0.5c0-0.2-0.1-0.4-0.2-0.5c-0.1-0.1-0.3-0.2-0.4-0.2
				c-0.1,0-0.2,0-0.3,0.1c-0.1,0-0.2,0.1-0.3,0.2l-0.7-0.1L67,46.4z"/>
			<path class="st4" d="M71.4,46.4h0.8v2.8c0,0.2,0,0.4,0.1,0.5c0,0.1,0.1,0.2,0.2,0.2c0.1,0.1,0.2,0.1,0.3,0.1c0.1,0,0.3,0,0.4-0.1
				c0.1-0.1,0.2-0.1,0.2-0.3s0.1-0.3,0.1-0.6v-2.7h0.8V49c0,0.4,0,0.7-0.1,0.9c0,0.2-0.1,0.3-0.3,0.5c-0.1,0.2-0.3,0.3-0.5,0.3
				c-0.2,0.1-0.4,0.1-0.6,0.1c-0.3,0-0.6-0.1-0.8-0.2c-0.2-0.1-0.4-0.3-0.5-0.5c-0.1-0.2-0.1-0.6-0.1-1.1V46.4z"/>
			<path class="st4" d="M77.5,47l-0.6,0.5c-0.2-0.3-0.4-0.4-0.6-0.4c-0.1,0-0.2,0-0.3,0.1c-0.1,0.1-0.1,0.1-0.1,0.2
				c0,0.1,0,0.1,0.1,0.2c0.1,0.1,0.3,0.3,0.6,0.5c0.3,0.3,0.5,0.4,0.6,0.5c0.2,0.2,0.3,0.3,0.3,0.5c0.1,0.2,0.1,0.3,0.1,0.5
				c0,0.3-0.1,0.6-0.4,0.9c-0.2,0.2-0.6,0.3-0.9,0.3c-0.3,0-0.6-0.1-0.8-0.2c-0.2-0.1-0.4-0.4-0.6-0.7l0.7-0.4
				c0.2,0.4,0.4,0.6,0.7,0.6c0.1,0,0.3,0,0.4-0.1c0.1-0.1,0.1-0.2,0.1-0.3c0-0.1,0-0.2-0.1-0.3c-0.1-0.1-0.2-0.2-0.5-0.4
				c-0.5-0.4-0.8-0.7-0.9-0.9c-0.1-0.2-0.2-0.4-0.2-0.6c0-0.3,0.1-0.5,0.3-0.8c0.2-0.2,0.5-0.3,0.8-0.3c0.2,0,0.4,0,0.6,0.1
				C77,46.6,77.3,46.8,77.5,47z"/>
			<path class="st4" d="M78.3,46.4h1c0.6,0,1.1,0.1,1.4,0.2c0.3,0.2,0.5,0.4,0.7,0.7c0.2,0.3,0.3,0.7,0.3,1.2c0,0.3-0.1,0.6-0.2,0.9
				c-0.1,0.3-0.3,0.5-0.5,0.7c-0.2,0.2-0.4,0.3-0.6,0.4c-0.2,0.1-0.6,0.1-1.2,0.1h-1V46.4z M79.1,47.2v2.7h0.4c0.4,0,0.6,0,0.8-0.1
				c0.2-0.1,0.3-0.2,0.4-0.4c0.1-0.2,0.2-0.4,0.2-0.7c0-0.5-0.1-0.8-0.4-1.1c-0.2-0.2-0.6-0.3-1.1-0.3H79.1z"/>
		</g>
	</g>
</g>
<g>
	<path class="st5" d="M4.6,12.5V6.1h1c0.6,0,1,0,1.3,0.1c0.4,0.1,0.7,0.3,0.9,0.6c0.2,0.3,0.3,0.6,0.3,1C8.1,8,8.1,8.2,8,8.4
		C7.9,8.6,7.7,8.8,7.5,9c0.4,0.2,0.7,0.4,0.8,0.7c0.2,0.3,0.3,0.6,0.3,1c0,0.4-0.1,0.7-0.3,1c-0.2,0.3-0.4,0.5-0.7,0.7
		c-0.3,0.1-0.7,0.2-1.2,0.2H4.6z M5.8,7.3v1.3h0.3c0.3,0,0.5-0.1,0.7-0.2C6.9,8.3,7,8.1,7,7.9c0-0.2-0.1-0.4-0.2-0.5
		C6.6,7.3,6.4,7.3,6.1,7.3H5.8z M5.8,9.7v1.6h0.3c0.5,0,0.8-0.1,1-0.2c0.2-0.1,0.3-0.3,0.3-0.6c0-0.3-0.1-0.5-0.3-0.6
		c-0.2-0.2-0.5-0.2-1-0.2H5.8z"/>
	<path class="st5" d="M11.7,6.1h1.2l2.4,6.3h-1.3l-0.5-1.3H11l-0.5,1.3H9.2L11.7,6.1z M12.3,7.8L11.4,10h1.7L12.3,7.8z"/>
	<path class="st5" d="M19.6,7l-0.9,0.8c-0.3-0.4-0.6-0.7-1-0.7c-0.2,0-0.3,0-0.4,0.1c-0.1,0.1-0.2,0.2-0.2,0.3c0,0.1,0,0.2,0.1,0.3
		c0.1,0.1,0.4,0.4,0.9,0.8C18.7,9,18.9,9.3,19,9.4c0.2,0.2,0.4,0.5,0.5,0.7c0.1,0.2,0.2,0.5,0.2,0.7c0,0.5-0.2,1-0.5,1.3
		c-0.4,0.3-0.8,0.5-1.4,0.5c-0.5,0-0.8-0.1-1.2-0.3c-0.3-0.2-0.6-0.6-0.9-1l1-0.6c0.3,0.6,0.7,0.8,1.1,0.8c0.2,0,0.4-0.1,0.5-0.2
		c0.1-0.1,0.2-0.3,0.2-0.4c0-0.1-0.1-0.3-0.2-0.4c-0.1-0.1-0.3-0.4-0.7-0.7c-0.7-0.6-1.1-1-1.3-1.3C16.1,8.2,16,7.9,16,7.6
		c0-0.4,0.2-0.8,0.5-1.1C16.9,6.1,17.3,6,17.8,6c0.3,0,0.6,0.1,0.9,0.2C19,6.3,19.3,6.6,19.6,7z"/>
	<path class="st5" d="M20.9,6.1h3.5v1.2h-2.3v1.1h2.3v1.2h-2.3v1.7h2.3v1.2h-3.5V6.1z"/>
	<path class="st5" d="M25.5,12.5V6.1h1c0.6,0,1,0,1.3,0.1c0.4,0.1,0.7,0.3,0.9,0.6c0.2,0.3,0.3,0.6,0.3,1c0,0.2-0.1,0.5-0.2,0.7
		c-0.1,0.2-0.3,0.4-0.5,0.6c0.4,0.2,0.7,0.4,0.8,0.7c0.2,0.3,0.3,0.6,0.3,1c0,0.4-0.1,0.7-0.3,1c-0.2,0.3-0.4,0.5-0.7,0.7
		c-0.3,0.1-0.7,0.2-1.2,0.2H25.5z M26.7,7.3v1.3h0.3c0.3,0,0.5-0.1,0.7-0.2c0.1-0.1,0.2-0.3,0.2-0.5c0-0.2-0.1-0.4-0.2-0.5
		c-0.1-0.1-0.3-0.2-0.6-0.2H26.7z M26.7,9.7v1.6H27c0.5,0,0.8-0.1,1-0.2c0.2-0.1,0.3-0.3,0.3-0.6c0-0.3-0.1-0.5-0.3-0.6
		c-0.2-0.2-0.5-0.2-1-0.2H26.7z"/>
	<path class="st5" d="M32.5,6.1h1.2l2.4,6.3h-1.3l-0.5-1.3h-2.6l-0.5,1.3h-1.3L32.5,6.1z M33.1,7.8L32.3,10H34L33.1,7.8z"/>
	<path class="st5" d="M37.1,6.1h1.2v5.2h1.8v1.2h-3V6.1z"/>
	<path class="st5" d="M41,6.1h1.2v5.2H44v1.2h-3V6.1z"/>
	<path class="st5" d="M55.7,7.2L54.8,8c-0.6-0.6-1.2-0.9-1.9-0.9c-0.6,0-1.1,0.2-1.5,0.6c-0.4,0.4-0.6,0.9-0.6,1.5
		c0,0.4,0.1,0.8,0.3,1.1c0.2,0.3,0.4,0.6,0.8,0.8c0.3,0.2,0.7,0.3,1.1,0.3c0.4,0,0.7-0.1,1-0.2c0.3-0.1,0.6-0.4,1-0.7l0.8,0.9
		c-0.5,0.5-0.9,0.8-1.3,1c-0.4,0.2-0.9,0.3-1.4,0.3c-1,0-1.8-0.3-2.4-0.9c-0.6-0.6-0.9-1.4-0.9-2.4c0-0.6,0.1-1.2,0.4-1.7
		c0.3-0.5,0.7-0.9,1.2-1.2C51.7,6.1,52.3,6,52.9,6c0.5,0,1,0.1,1.5,0.3C54.9,6.5,55.3,6.8,55.7,7.2z"/>
	<path class="st5" d="M56.7,6.1h1.2v5.2h1.8v1.2h-3V6.1z"/>
	<path class="st5" d="M60.6,6.1h1.2v4.1c0,0.4,0,0.6,0.1,0.8c0.1,0.1,0.2,0.3,0.3,0.4c0.1,0.1,0.3,0.1,0.5,0.1c0.2,0,0.4,0,0.6-0.1
		c0.2-0.1,0.3-0.2,0.3-0.4c0.1-0.2,0.1-0.4,0.1-0.9v-4h1.2v3.8c0,0.6,0,1.1-0.1,1.3c-0.1,0.2-0.2,0.5-0.4,0.7
		c-0.2,0.2-0.4,0.4-0.7,0.5c-0.3,0.1-0.6,0.2-0.9,0.2c-0.5,0-0.9-0.1-1.2-0.3c-0.3-0.2-0.6-0.5-0.7-0.8c-0.1-0.3-0.2-0.9-0.2-1.6
		V6.1z"/>
	<path class="st5" d="M66.3,12.5V6.1h1c0.6,0,1,0,1.3,0.1c0.4,0.1,0.7,0.3,0.9,0.6c0.2,0.3,0.3,0.6,0.3,1c0,0.2-0.1,0.5-0.2,0.7
		S69.4,8.8,69.1,9c0.4,0.2,0.7,0.4,0.8,0.7c0.2,0.3,0.3,0.6,0.3,1c0,0.4-0.1,0.7-0.3,1c-0.2,0.3-0.4,0.5-0.7,0.7
		c-0.3,0.1-0.7,0.2-1.2,0.2H66.3z M67.5,7.3v1.3h0.3c0.3,0,0.5-0.1,0.7-0.2c0.1-0.1,0.2-0.3,0.2-0.5c0-0.2-0.1-0.4-0.2-0.5
		c-0.1-0.1-0.3-0.2-0.6-0.2H67.5z M67.5,9.7v1.6h0.3c0.5,0,0.8-0.1,1-0.2c0.2-0.1,0.3-0.3,0.3-0.6c0-0.3-0.1-0.5-0.3-0.6
		c-0.2-0.2-0.5-0.2-1-0.2H67.5z"/>
</g>
<g>
	<path class="st6" d="M0.4,55.9v-0.3h1.5v0.3H0.4z M3.3,55.9v-0.3h1.5v0.3H3.3z M6.3,55.9v-0.3h1.5v0.3H6.3z M9.2,55.9v-0.3h1.5v0.3
		H9.2z M12.2,55.9v-0.3h1.5v0.3H12.2z M15.2,55.9v-0.3h1.5v0.3H15.2z M18.1,55.9v-0.3h1.5v0.3H18.1z M21.1,55.9v-0.3h1.5v0.3H21.1z
		 M24,55.9v-0.3h1.5v0.3H24z M27,55.9v-0.3h1.5v0.3H27z M29.9,55.9v-0.3h1.5v0.3H29.9z M32.9,55.9v-0.3h1.5v0.3H32.9z M35.8,55.9
		v-0.3h1.5v0.3H35.8z M38.8,55.9v-0.3h1.5v0.3H38.8z M41.7,55.9v-0.3h1.5v0.3H41.7z M44.7,55.9v-0.3h1.5v0.3H44.7z M47.7,55.9v-0.3
		h1.5v0.3H47.7z M50.6,55.9v-0.3h1.5v0.3H50.6z M53.6,55.9v-0.3H55v0.3H53.6z M56.5,55.9v-0.3H58v0.3H56.5z M59.5,55.9v-0.3h1.5v0.3
		H59.5z M62.4,55.9v-0.3h1.5v0.3H62.4z M65.4,55.9v-0.3h1.5v0.3H65.4z M68.3,55.9v-0.3h1.5v0.3H68.3z M71.3,55.9v-0.3h1.5v0.3H71.3z
		 M74.2,55.9v-0.3h1.5v0.3H74.2z M77.2,55.9v-0.3h1.5v0.3H77.2z M80.1,55.9v-0.3h1.5v0.3H80.1z M83.1,55.9v-0.3h1.5v0.3H83.1z
		 M86.1,55.9v-0.3h1.5v0.3H86.1z M89,55.9v-0.3h1.5v0.3H89z M92,55.9v-0.3h1.5v0.3H92z M94.9,55.9v-0.3h1.5v0.3H94.9z M97.9,55.9
		v-0.3h1.5v0.3H97.9z M100.8,55.9v-0.3h1.5v0.3H100.8z M103.8,55.9v-0.3h1.5v0.3H103.8z M106.7,55.9v-0.3h1.5v0.3H106.7z
		 M109.7,55.9v-0.3h1.5v0.3H109.7z M112.6,55.9v-0.3h1.5v0.3H112.6z M115.6,55.9v-0.3h1.5v0.3H115.6z M118.6,55.9v-0.3h1.5v0.3
		H118.6z M121.5,55.9v-0.3h1.5v0.3H121.5z M124.5,55.9v-0.3h1.5v0.3H124.5z"/>
</g>
<g>
	<g>
		<g id="XMLID_140_">
			<g id="XMLID_141_">
				<g>
					<rect x="89" y="59.5" class="st5" width="1.5" height="8.3"/>
				</g>
			</g>
		</g>
		<g id="XMLID_138_">
			<g id="XMLID_139_">
				<g>
					<rect x="92.1" y="59.5" class="st5" width="1.7" height="8.3"/>
				</g>
			</g>
		</g>
		<g id="XMLID_136_">
			<g id="XMLID_137_">
				<g>
					<rect x="94.2" y="59.5" class="st5" width="0.4" height="8.3"/>
				</g>
			</g>
		</g>
		<g id="XMLID_134_">
			<g id="XMLID_135_">
				<g>
					<rect x="95.5" y="59.5" class="st5" width="0.4" height="8.3"/>
				</g>
			</g>
		</g>
		<g id="XMLID_132_">
			<g id="XMLID_133_">
				<g>
					<rect x="90.6" y="59.5" class="st5" width="0.2" height="8.3"/>
				</g>
			</g>
		</g>
		<g id="XMLID_130_">
			<g id="XMLID_131_">
				<g>
					<rect x="96.7" y="59.5" class="st5" width="1.7" height="8.3"/>
				</g>
			</g>
		</g>
		<g id="XMLID_128_">
			<g id="XMLID_129_">
				<g>
					<rect x="100.3" y="59.5" class="st5" width="1.1" height="8.3"/>
				</g>
			</g>
		</g>
		<g id="XMLID_126_">
			<g id="XMLID_127_">
				<g>
					<rect x="103.6" y="59.5" class="st5" width="0.7" height="8.3"/>
				</g>
			</g>
		</g>
		<g id="XMLID_124_">
			<g id="XMLID_125_">
				<g>
					<rect x="104.7" y="59.5" class="st5" width="0.4" height="8.3"/>
				</g>
			</g>
		</g>
		<g id="XMLID_122_">
			<g id="XMLID_123_">
				<g>
					<rect x="102.7" y="59.5" class="st5" width="0.6" height="8.3"/>
				</g>
			</g>
		</g>
		<g id="XMLID_120_">
			<g id="XMLID_121_">
				<g>
					<rect x="101.5" y="59.5" class="st5" width="0.2" height="8.3"/>
				</g>
			</g>
		</g>
		<g id="XMLID_118_">
			<g id="XMLID_119_">
				<g>
					<rect x="106.7" y="59.5" class="st5" width="0.4" height="8.3"/>
				</g>
			</g>
		</g>
		<g id="XMLID_116_">
			<g id="XMLID_117_">
				<g>
					<rect x="101.9" y="59.5" class="st5" width="0.6" height="8.3"/>
				</g>
			</g>
		</g>
		<g id="XMLID_114_">
			<g id="XMLID_115_">
				<g>
					<rect x="99.3" y="59.5" class="st5" width="0.4" height="8.3"/>
				</g>
			</g>
		</g>
		<g id="XMLID_112_">
			<g id="XMLID_113_">
				<g>
					<rect x="109.9" y="59.5" class="st5" width="0.4" height="8.3"/>
				</g>
			</g>
		</g>
		<g id="XMLID_110_">
			<g id="XMLID_111_">
				<g>
					<rect x="111.5" y="59.5" class="st5" width="0.4" height="8.3"/>
				</g>
			</g>
		</g>
		<g id="XMLID_108_">
			<g id="XMLID_109_">
				<g>
					<rect x="96" y="59.5" class="st5" width="0.2" height="8.3"/>
				</g>
			</g>
		</g>
		<g id="XMLID_106_">
			<g id="XMLID_107_">
				<g>
					<rect x="91" y="59.5" class="st5" width="0.4" height="8.3"/>
				</g>
			</g>
		</g>
		<g id="XMLID_104_">
			<g id="XMLID_105_">
				<g>
					<rect x="91.6" y="59.5" class="st5" width="0.2" height="8.3"/>
				</g>
			</g>
		</g>
		<g id="XMLID_102_">
			<g id="XMLID_103_">
				<g>
					<rect x="94.7" y="59.5" class="st5" width="0.6" height="8.3"/>
				</g>
			</g>
		</g>
		<g id="XMLID_100_">
			<g id="XMLID_101_">
				<g>
					<rect x="96.4" y="59.5" class="st5" width="0.2" height="8.3"/>
				</g>
			</g>
		</g>
		<g id="XMLID_98_">
			<g id="XMLID_99_">
				<g>
					<rect x="107.1" y="59.5" class="st5" width="0.2" height="8.3"/>
				</g>
			</g>
		</g>
		<g id="XMLID_96_">
			<g id="XMLID_97_">
				<g>
					<rect x="105.6" y="59.5" class="st5" width="0.4" height="8.3"/>
				</g>
			</g>
		</g>
		<g id="XMLID_94_">
			<g id="XMLID_95_">
				<g>
					<rect x="112.4" y="59.5" class="st5" width="0.2" height="8.3"/>
				</g>
			</g>
		</g>
		<g id="XMLID_92_">
			<g id="XMLID_93_">
				<g>
					<rect x="98.8" y="59.5" class="st5" width="0.4" height="8.3"/>
				</g>
			</g>
		</g>
		<g id="XMLID_90_">
			<g id="XMLID_91_">
				<g>
					<rect x="107.6" y="59.5" class="st5" width="1.8" height="8.3"/>
				</g>
			</g>
		</g>
		<g id="XMLID_88_">
			<g id="XMLID_89_">
				<g>
					<rect x="112.8" y="59.5" class="st5" width="1.5" height="8.3"/>
				</g>
			</g>
		</g>
		<g id="XMLID_86_">
			<g id="XMLID_87_">
				<g>
					<rect x="116.1" y="59.5" class="st5" width="1.3" height="8.3"/>
				</g>
			</g>
		</g>
		<g id="XMLID_84_">
			<g id="XMLID_85_">
				<g>
					<rect x="110.8" y="59.5" class="st5" width="0.6" height="8.3"/>
				</g>
			</g>
		</g>
		<g id="XMLID_82_">
			<g id="XMLID_83_">
				<g>
					<rect x="117.8" y="59.5" class="st5" width="0.2" height="8.3"/>
				</g>
			</g>
		</g>
		<g id="XMLID_80_">
			<g id="XMLID_81_">
				<g>
					<rect x="115.2" y="59.5" class="st5" width="0.6" height="8.3"/>
				</g>
			</g>
		</g>
		<g id="XMLID_78_">
			<g id="XMLID_79_">
				<g>
					<rect x="119.5" y="59.5" class="st5" width="0.4" height="8.3"/>
				</g>
			</g>
		</g>
		<g id="XMLID_76_">
			<g id="XMLID_77_">
				<g>
					<rect x="118.2" y="59.5" class="st5" width="0.9" height="8.3"/>
				</g>
			</g>
		</g>
		<g id="XMLID_74_">
			<g id="XMLID_75_">
				<g>
					<rect x="114.7" y="59.5" class="st5" width="0.4" height="8.3"/>
				</g>
			</g>
		</g>
	</g>
	<g>
		<path class="st5" d="M90.6,70.3h-0.3l-1.1-1.5v1.5H89l0-1.9h0.3l1.1,1.5v-1.5h0.3L90.6,70.3z"/>
		<path class="st5" d="M91.9,68.3c0.3,0,0.5,0.1,0.7,0.3c0.2,0.2,0.3,0.4,0.3,0.7c0,0.3-0.1,0.5-0.3,0.7c-0.2,0.2-0.4,0.3-0.7,0.3
			c-0.3,0-0.5-0.1-0.7-0.3C91,69.8,91,69.6,91,69.3c0-0.3,0.1-0.5,0.3-0.7C91.4,68.4,91.6,68.3,91.9,68.3z M91.9,70.1
			c0.2,0,0.4-0.1,0.5-0.2c0.1-0.1,0.2-0.3,0.2-0.6s-0.1-0.4-0.2-0.6c-0.1-0.1-0.3-0.2-0.5-0.2c-0.2,0-0.4,0.1-0.5,0.2
			c-0.1,0.1-0.2,0.3-0.2,0.6c0,0.2,0.1,0.4,0.2,0.6C91.6,70,91.7,70.1,91.9,70.1z"/>
		<path class="st5" d="M93.6,70.3h-0.3V70h0.3V70.3z"/>
		<path class="st5" d="M95.4,68.3c0.4,0,0.7,0.3,0.7,1c0,0.7-0.2,1-0.7,1c-0.4,0-0.7-0.3-0.7-1C94.7,68.6,94.9,68.3,95.4,68.3z
			 M95.4,70.1c0.1,0,0.2-0.1,0.3-0.2c0.1-0.1,0.1-0.3,0.1-0.6c0-0.3,0-0.5-0.1-0.6c-0.1-0.1-0.2-0.2-0.3-0.2c-0.1,0-0.2,0.1-0.3,0.2
			C95,68.8,95,69,95,69.3c0,0.3,0,0.5,0.1,0.6C95.1,70,95.2,70.1,95.4,70.1z"/>
		<path class="st5" d="M97,68.3c0.4,0,0.7,0.3,0.7,1c0,0.7-0.2,1-0.7,1c-0.4,0-0.7-0.3-0.7-1C96.3,68.6,96.5,68.3,97,68.3z M97,70.1
			c0.1,0,0.2-0.1,0.3-0.2c0.1-0.1,0.1-0.3,0.1-0.6c0-0.3,0-0.5-0.1-0.6c-0.1-0.1-0.2-0.2-0.3-0.2c-0.1,0-0.2,0.1-0.3,0.2
			c-0.1,0.1-0.1,0.3-0.1,0.6c0,0.3,0,0.5,0.1,0.6C96.7,70,96.8,70.1,97,70.1z"/>
		<path class="st5" d="M98.5,68.3c0.4,0,0.7,0.3,0.7,1c0,0.7-0.2,1-0.7,1c-0.4,0-0.7-0.3-0.7-1C97.9,68.6,98.1,68.3,98.5,68.3z
			 M98.5,70.1c0.1,0,0.2-0.1,0.3-0.2c0.1-0.1,0.1-0.3,0.1-0.6c0-0.3,0-0.5-0.1-0.6c-0.1-0.1-0.2-0.2-0.3-0.2c-0.1,0-0.2,0.1-0.3,0.2
			c-0.1,0.1-0.1,0.3-0.1,0.6c0,0.3,0,0.5,0.1,0.6C98.3,70,98.4,70.1,98.5,70.1z"/>
		<path class="st5" d="M100.1,68.3c0.4,0,0.7,0.3,0.7,1c0,0.7-0.2,1-0.7,1c-0.4,0-0.7-0.3-0.7-1C99.5,68.6,99.7,68.3,100.1,68.3z
			 M100.1,70.1c0.1,0,0.2-0.1,0.3-0.2c0.1-0.1,0.1-0.3,0.1-0.6c0-0.3,0-0.5-0.1-0.6c-0.1-0.1-0.2-0.2-0.3-0.2
			c-0.1,0-0.2,0.1-0.3,0.2c-0.1,0.1-0.1,0.3-0.1,0.6c0,0.3,0,0.5,0.1,0.6C99.9,70,100,70.1,100.1,70.1z"/>
		<path class="st5" d="M101.7,68.3c0.4,0,0.7,0.3,0.7,1c0,0.7-0.2,1-0.7,1c-0.4,0-0.7-0.3-0.7-1C101,68.6,101.3,68.3,101.7,68.3z
			 M101.7,70.1c0.1,0,0.2-0.1,0.3-0.2c0.1-0.1,0.1-0.3,0.1-0.6c0-0.3,0-0.5-0.1-0.6c-0.1-0.1-0.2-0.2-0.3-0.2
			c-0.1,0-0.2,0.1-0.3,0.2c-0.1,0.1-0.1,0.3-0.1,0.6c0,0.3,0,0.5,0.1,0.6C101.5,70,101.6,70.1,101.7,70.1z"/>
		<path class="st5" d="M103.3,68.3c0.4,0,0.7,0.3,0.7,1c0,0.7-0.2,1-0.7,1c-0.4,0-0.7-0.3-0.7-1C102.6,68.6,102.8,68.3,103.3,68.3z
			 M103.3,70.1c0.1,0,0.2-0.1,0.3-0.2c0.1-0.1,0.1-0.3,0.1-0.6c0-0.3,0-0.5-0.1-0.6c-0.1-0.1-0.2-0.2-0.3-0.2
			c-0.1,0-0.2,0.1-0.3,0.2c-0.1,0.1-0.1,0.3-0.1,0.6c0,0.3,0,0.5,0.1,0.6S103.2,70.1,103.3,70.1z"/>
		<path class="st5" d="M104.9,68.3c0.4,0,0.7,0.3,0.7,1c0,0.7-0.2,1-0.7,1c-0.4,0-0.7-0.3-0.7-1C104.2,68.6,104.4,68.3,104.9,68.3z
			 M104.9,70.1c0.1,0,0.2-0.1,0.3-0.2c0.1-0.1,0.1-0.3,0.1-0.6c0-0.3,0-0.5-0.1-0.6c-0.1-0.1-0.2-0.2-0.3-0.2
			c-0.1,0-0.2,0.1-0.3,0.2c-0.1,0.1-0.1,0.3-0.1,0.6c0,0.3,0,0.5,0.1,0.6C104.6,70,104.7,70.1,104.9,70.1z"/>
		<path class="st5" d="M106.4,68.3c0.4,0,0.7,0.3,0.7,1c0,0.7-0.2,1-0.7,1c-0.4,0-0.7-0.3-0.7-1C105.8,68.6,106,68.3,106.4,68.3z
			 M106.4,70.1c0.1,0,0.2-0.1,0.3-0.2c0.1-0.1,0.1-0.3,0.1-0.6c0-0.3,0-0.5-0.1-0.6c-0.1-0.1-0.2-0.2-0.3-0.2
			c-0.1,0-0.2,0.1-0.3,0.2c-0.1,0.1-0.1,0.3-0.1,0.6c0,0.3,0,0.5,0.1,0.6C106.2,70,106.3,70.1,106.4,70.1z"/>
		<path class="st5" d="M108,68.3c0.4,0,0.7,0.3,0.7,1c0,0.7-0.2,1-0.7,1c-0.4,0-0.7-0.3-0.7-1C107.4,68.6,107.6,68.3,108,68.3z
			 M108,70.1c0.1,0,0.2-0.1,0.3-0.2s0.1-0.3,0.1-0.6c0-0.3,0-0.5-0.1-0.6c-0.1-0.1-0.2-0.2-0.3-0.2c-0.1,0-0.2,0.1-0.3,0.2
			c-0.1,0.1-0.1,0.3-0.1,0.6c0,0.3,0,0.5,0.1,0.6C107.8,70,107.9,70.1,108,70.1z"/>
		<path class="st5" d="M109.6,68.3c0.4,0,0.7,0.3,0.7,1c0,0.7-0.2,1-0.7,1c-0.4,0-0.7-0.3-0.7-1C109,68.6,109.2,68.3,109.6,68.3z
			 M109.6,70.1c0.1,0,0.2-0.1,0.3-0.2c0.1-0.1,0.1-0.3,0.1-0.6c0-0.3,0-0.5-0.1-0.6c-0.1-0.1-0.2-0.2-0.3-0.2
			c-0.1,0-0.2,0.1-0.3,0.2c-0.1,0.1-0.1,0.3-0.1,0.6c0,0.3,0,0.5,0.1,0.6S109.5,70.1,109.6,70.1z"/>
		<path class="st5" d="M111.2,68.3c0.4,0,0.7,0.3,0.7,1c0,0.7-0.2,1-0.7,1c-0.4,0-0.7-0.3-0.7-1C110.5,68.6,110.8,68.3,111.2,68.3z
			 M111.2,70.1c0.1,0,0.2-0.1,0.3-0.2c0.1-0.1,0.1-0.3,0.1-0.6c0-0.3,0-0.5-0.1-0.6c-0.1-0.1-0.2-0.2-0.3-0.2
			c-0.1,0-0.2,0.1-0.3,0.2c-0.1,0.1-0.1,0.3-0.1,0.6c0,0.3,0,0.5,0.1,0.6C111,70,111.1,70.1,111.2,70.1z"/>
		<path class="st5" d="M112.8,68.3c0.4,0,0.7,0.3,0.7,1c0,0.7-0.2,1-0.7,1c-0.4,0-0.7-0.3-0.7-1C112.1,68.6,112.3,68.3,112.8,68.3z
			 M112.8,70.1c0.1,0,0.2-0.1,0.3-0.2c0.1-0.1,0.1-0.3,0.1-0.6c0-0.3,0-0.5-0.1-0.6c-0.1-0.1-0.2-0.2-0.3-0.2
			c-0.1,0-0.2,0.1-0.3,0.2c-0.1,0.1-0.1,0.3-0.1,0.6c0,0.3,0,0.5,0.1,0.6C112.6,70,112.7,70.1,112.8,70.1z"/>
		<path class="st5" d="M114.4,68.3c0.4,0,0.7,0.3,0.7,1c0,0.7-0.2,1-0.7,1c-0.4,0-0.7-0.3-0.7-1C113.7,68.6,113.9,68.3,114.4,68.3z
			 M114.4,70.1c0.1,0,0.2-0.1,0.3-0.2c0.1-0.1,0.1-0.3,0.1-0.6c0-0.3,0-0.5-0.1-0.6c-0.1-0.1-0.2-0.2-0.3-0.2
			c-0.1,0-0.2,0.1-0.3,0.2c-0.1,0.1-0.1,0.3-0.1,0.6c0,0.3,0,0.5,0.1,0.6C114.1,70,114.2,70.1,114.4,70.1z"/>
		<path class="st5" d="M115.9,68.3c0.4,0,0.7,0.3,0.7,1c0,0.7-0.2,1-0.7,1c-0.4,0-0.7-0.3-0.7-1C115.3,68.6,115.5,68.3,115.9,68.3z
			 M115.9,70.1c0.1,0,0.2-0.1,0.3-0.2c0.1-0.1,0.1-0.3,0.1-0.6c0-0.3,0-0.5-0.1-0.6c-0.1-0.1-0.2-0.2-0.3-0.2
			c-0.1,0-0.2,0.1-0.3,0.2c-0.1,0.1-0.1,0.3-0.1,0.6c0,0.3,0,0.5,0.1,0.6C115.7,70,115.8,70.1,115.9,70.1z"/>
		<path class="st5" d="M117.5,68.3c0.4,0,0.7,0.3,0.7,1c0,0.7-0.2,1-0.7,1c-0.4,0-0.7-0.3-0.7-1C116.9,68.6,117.1,68.3,117.5,68.3z
			 M117.5,70.1c0.1,0,0.2-0.1,0.3-0.2c0.1-0.1,0.1-0.3,0.1-0.6c0-0.3,0-0.5-0.1-0.6c-0.1-0.1-0.2-0.2-0.3-0.2
			c-0.1,0-0.2,0.1-0.3,0.2c-0.1,0.1-0.1,0.3-0.1,0.6c0,0.3,0,0.5,0.1,0.6C117.3,70,117.4,70.1,117.5,70.1z"/>
		<path class="st5" d="M119.1,68.3c0.4,0,0.7,0.3,0.7,1c0,0.7-0.2,1-0.7,1c-0.4,0-0.7-0.3-0.7-1C118.4,68.6,118.7,68.3,119.1,68.3z
			 M119.1,70.1c0.1,0,0.2-0.1,0.3-0.2s0.1-0.3,0.1-0.6c0-0.3,0-0.5-0.1-0.6c-0.1-0.1-0.2-0.2-0.3-0.2c-0.1,0-0.2,0.1-0.3,0.2
			c-0.1,0.1-0.1,0.3-0.1,0.6c0,0.3,0,0.5,0.1,0.6C118.9,70,119,70.1,119.1,70.1z"/>
	</g>
</g>
<g>
	<path class="st5" d="M51.1,62.5h0.6l1.4,2.2v-2.2h0.6v3.3h-0.6l-1.4-2.2v2.2h-0.6V62.5z"/>
	<path class="st5" d="M55.6,63.3c0.2,0,0.4,0.1,0.6,0.2c0.2,0.1,0.4,0.3,0.5,0.5c0.1,0.2,0.2,0.4,0.2,0.6c0,0.2-0.1,0.4-0.2,0.6
		c-0.1,0.2-0.3,0.4-0.5,0.5c-0.2,0.1-0.4,0.2-0.7,0.2c-0.3,0-0.6-0.1-0.9-0.4c-0.2-0.2-0.4-0.6-0.4-0.9c0-0.4,0.1-0.7,0.4-1
		C55,63.4,55.3,63.3,55.6,63.3z M55.6,63.8c-0.2,0-0.3,0.1-0.5,0.2c-0.1,0.1-0.2,0.3-0.2,0.5c0,0.2,0.1,0.4,0.2,0.5
		c0.1,0.1,0.3,0.2,0.5,0.2c0.2,0,0.4-0.1,0.5-0.2c0.1-0.1,0.2-0.3,0.2-0.5c0-0.2-0.1-0.4-0.2-0.5C55.9,63.9,55.8,63.8,55.6,63.8z"/>
	<path class="st5" d="M57.7,65.1c0.1,0,0.2,0,0.2,0.1c0.1,0.1,0.1,0.2,0.1,0.2c0,0.1,0,0.2-0.1,0.2c-0.1,0.1-0.2,0.1-0.2,0.1
		c-0.1,0-0.2,0-0.2-0.1c-0.1-0.1-0.1-0.2-0.1-0.2c0-0.1,0-0.2,0.1-0.2C57.5,65.2,57.6,65.1,57.7,65.1z"/>
	<path class="st5" d="M60.9,62.4c0.2,0,0.4,0.1,0.6,0.2c0.2,0.1,0.3,0.3,0.4,0.5c0.1,0.2,0.1,0.6,0.1,1c0,0.4,0,0.8-0.1,1
		c-0.1,0.2-0.2,0.4-0.4,0.5c-0.2,0.1-0.4,0.2-0.6,0.2c-0.2,0-0.5-0.1-0.6-0.2c-0.2-0.1-0.3-0.3-0.4-0.5c-0.1-0.2-0.1-0.6-0.1-1
		c0-0.6,0.1-1,0.3-1.3C60.2,62.5,60.5,62.4,60.9,62.4z M60.9,63c-0.1,0-0.2,0-0.3,0.1c-0.1,0.1-0.1,0.2-0.2,0.4
		c0,0.2-0.1,0.4-0.1,0.7c0,0.4,0,0.7,0.1,0.9c0.1,0.2,0.2,0.2,0.4,0.2c0.2,0,0.3-0.1,0.4-0.2c0.1-0.2,0.2-0.5,0.2-0.9
		c0-0.4,0-0.7-0.1-0.9C61.2,63.1,61.1,63,60.9,63z"/>
	<path class="st5" d="M62.8,65.1c0.1,0,0.2,0,0.2,0.1c0.1,0.1,0.1,0.2,0.1,0.2c0,0.1,0,0.2-0.1,0.2c-0.1,0.1-0.2,0.1-0.2,0.1
		c-0.1,0-0.2,0-0.2-0.1c-0.1-0.1-0.1-0.2-0.1-0.2c0-0.1,0-0.2,0.1-0.2C62.7,65.2,62.7,65.1,62.8,65.1z"/>
	<path class="st5" d="M64.2,62.5h0.9v3.3h-0.6v-2.7h-0.7L64.2,62.5z"/>
	<path class="st5" d="M66.8,63.5h-0.6c0-0.4,0.1-0.6,0.3-0.8c0.2-0.2,0.5-0.3,0.8-0.3c0.2,0,0.4,0,0.5,0.1c0.2,0.1,0.3,0.2,0.4,0.4
		c0.1,0.2,0.1,0.3,0.1,0.5c0,0.2-0.1,0.4-0.2,0.6c-0.1,0.2-0.3,0.5-0.6,0.8l-0.4,0.4h1.2v0.6h-2.3v-0.3l1-1c0.2-0.2,0.4-0.5,0.5-0.6
		c0.1-0.2,0.1-0.3,0.1-0.4c0-0.1,0-0.2-0.1-0.3C67.6,63,67.5,63,67.3,63c-0.1,0-0.2,0.1-0.3,0.2C66.9,63.2,66.9,63.4,66.8,63.5z"/>
	<path class="st5" d="M69.5,63.3h-0.6c0-0.2,0.1-0.4,0.3-0.6c0.2-0.2,0.5-0.3,0.8-0.3c0.3,0,0.5,0.1,0.7,0.3
		c0.2,0.2,0.3,0.4,0.3,0.6c0,0.1,0,0.3-0.1,0.4c-0.1,0.1-0.2,0.2-0.3,0.3c0.2,0.1,0.4,0.2,0.5,0.3c0.1,0.1,0.2,0.3,0.2,0.5
		c0,0.3-0.1,0.5-0.3,0.8c-0.2,0.2-0.5,0.3-0.8,0.3c-0.3,0-0.6-0.1-0.8-0.3c-0.2-0.2-0.3-0.5-0.3-0.8h0.6c0,0.2,0.1,0.3,0.2,0.4
		c0.1,0.1,0.2,0.1,0.3,0.1c0.1,0,0.3,0,0.4-0.1c0.1-0.1,0.1-0.2,0.1-0.3c0-0.1-0.1-0.3-0.2-0.4c-0.1-0.1-0.3-0.2-0.6-0.2v-0.5
		c0.2,0,0.3,0,0.3-0.1c0.1,0,0.1-0.1,0.2-0.1c0-0.1,0.1-0.1,0.1-0.2c0-0.1,0-0.2-0.1-0.2C70.1,63,70,63,69.9,63
		c-0.1,0-0.2,0-0.2,0.1C69.6,63.1,69.5,63.2,69.5,63.3z"/>
	<path class="st5" d="M72.7,62.4h0.6v2.1h0.3v0.6h-0.3v0.7h-0.6v-0.7h-1.4v-0.6L72.7,62.4z M72.7,64.5v-1.1L72,64.5H72.7z"/>
	<path class="st5" d="M74.5,62.5h1.5v0.6H75l-0.1,0.6c0,0,0.1,0,0.1,0c0,0,0.1,0,0.1,0c0.3,0,0.5,0.1,0.7,0.3
		c0.2,0.2,0.3,0.5,0.3,0.8c0,0.3-0.1,0.6-0.3,0.8c-0.2,0.2-0.5,0.3-0.8,0.3c-0.3,0-0.5-0.1-0.7-0.2c-0.2-0.2-0.3-0.4-0.4-0.7h0.7
		c0.1,0.1,0.1,0.2,0.2,0.2c0.1,0.1,0.2,0.1,0.3,0.1c0.1,0,0.3-0.1,0.4-0.2c0.1-0.1,0.1-0.2,0.1-0.4c0-0.2,0-0.3-0.1-0.4
		c-0.1-0.1-0.2-0.1-0.3-0.1c-0.1,0-0.1,0-0.2,0.1c-0.1,0-0.1,0.1-0.2,0.2l-0.5-0.1L74.5,62.5z"/>
	<path class="st5" d="M77.7,62.4l0.5,0.3l-0.6,1.1c0.3,0,0.5,0.1,0.7,0.3c0.2,0.2,0.3,0.4,0.3,0.7c0,0.3-0.1,0.5-0.3,0.7
		c-0.2,0.2-0.4,0.3-0.7,0.3c-0.3,0-0.5-0.1-0.7-0.3c-0.2-0.2-0.3-0.4-0.3-0.7c0-0.1,0-0.2,0-0.3c0-0.1,0.1-0.3,0.2-0.5L77.7,62.4z
		 M77.6,64.4c-0.1,0-0.2,0-0.3,0.1c-0.1,0.1-0.1,0.2-0.1,0.3c0,0.1,0,0.2,0.1,0.3c0.1,0.1,0.2,0.1,0.3,0.1c0.1,0,0.2,0,0.3-0.1
		C78,65.1,78,65,78,64.8c0-0.1,0-0.2-0.1-0.3C77.8,64.4,77.7,64.4,77.6,64.4z"/>
	<path class="st5" d="M79.2,62.5h2.2v0.3l-1.5,3.1l-0.5-0.3l1.2-2.5h-1.4V62.5z"/>
	<path class="st5" d="M83.4,64c0.1,0.1,0.3,0.2,0.3,0.4c0.1,0.2,0.1,0.3,0.1,0.5c0,0.2,0,0.4-0.1,0.5c-0.1,0.2-0.2,0.3-0.4,0.4
		c-0.2,0.1-0.4,0.1-0.6,0.1c-0.3,0-0.5,0-0.6-0.1c-0.2-0.1-0.3-0.2-0.4-0.4c-0.1-0.2-0.1-0.3-0.1-0.5c0-0.2,0-0.3,0.1-0.5
		c0.1-0.1,0.2-0.3,0.3-0.4c-0.1-0.1-0.2-0.2-0.2-0.3c-0.1-0.1-0.1-0.2-0.1-0.4c0-0.2,0-0.3,0.1-0.5c0.1-0.1,0.2-0.3,0.3-0.3
		c0.1-0.1,0.3-0.1,0.5-0.1c0.2,0,0.4,0,0.5,0.1c0.1,0.1,0.3,0.2,0.3,0.3c0.1,0.1,0.1,0.3,0.1,0.5c0,0.1,0,0.2-0.1,0.3
		C83.6,63.7,83.6,63.9,83.4,64z M82.8,64.3c-0.2,0-0.3,0-0.4,0.1c-0.1,0.1-0.2,0.2-0.2,0.3c0,0.1,0,0.2,0.1,0.3
		c0.1,0.1,0.2,0.1,0.4,0.1c0.2,0,0.3,0,0.4-0.1c0.1-0.1,0.1-0.2,0.1-0.3s0-0.2-0.1-0.3C83,64.4,82.9,64.3,82.8,64.3z M82.7,63
		c-0.1,0-0.2,0-0.3,0.1c-0.1,0.1-0.1,0.2-0.1,0.3c0,0.1,0,0.2,0.1,0.3c0.1,0.1,0.2,0.1,0.3,0.1c0.1,0,0.2,0,0.3-0.1
		c0.1-0.1,0.1-0.2,0.1-0.3c0-0.1,0-0.2-0.1-0.3C82.9,63,82.9,63,82.7,63z"/>
	<path class="st5" d="M85.3,65.9l-0.5-0.3l0.6-1.1c-0.3,0-0.5-0.1-0.7-0.3c-0.2-0.2-0.3-0.4-0.3-0.7c0-0.3,0.1-0.5,0.3-0.7
		c0.2-0.2,0.4-0.3,0.7-0.3c0.3,0,0.5,0.1,0.7,0.3c0.2,0.2,0.3,0.4,0.3,0.7c0,0.1,0,0.2,0,0.3c0,0.1-0.1,0.3-0.2,0.5L85.3,65.9z
		 M85.4,63.9c0.1,0,0.2,0,0.3-0.1c0.1-0.1,0.1-0.2,0.1-0.3c0-0.1,0-0.2-0.1-0.3C85.6,63,85.5,63,85.4,63c-0.1,0-0.2,0-0.3,0.1
		c-0.1,0.1-0.1,0.2-0.1,0.3c0,0.1,0,0.2,0.1,0.3C85.1,63.8,85.2,63.9,85.4,63.9z"/>
</g>
<g>
	<g>
		<g>
			<path class="st5" d="M3,64.8H2.9V64l1.3,0.6V64h0.1v0.8L3,64.2V64.8z"/>
			<path class="st5" d="M2.8,63c0-0.2,0.1-0.4,0.2-0.6c0.1-0.1,0.3-0.2,0.5-0.2c0.2,0,0.4,0.1,0.5,0.2c0.1,0.1,0.2,0.3,0.2,0.5
				c0,0.2-0.1,0.4-0.2,0.6c-0.1,0.1-0.3,0.2-0.5,0.2c-0.1,0-0.3,0-0.4-0.1C3.1,63.6,3,63.5,3,63.4C2.9,63.3,2.8,63.2,2.8,63z M3,63
				c0,0.1,0,0.2,0.1,0.3c0.1,0.1,0.1,0.2,0.2,0.2c0.1,0.1,0.2,0.1,0.3,0.1c0.2,0,0.3-0.1,0.4-0.2c0.1-0.1,0.2-0.3,0.2-0.4
				c0-0.1,0-0.2-0.1-0.3c-0.1-0.1-0.1-0.2-0.2-0.2c-0.1-0.1-0.2-0.1-0.3-0.1c-0.1,0-0.2,0-0.3,0.1c-0.1,0.1-0.2,0.1-0.2,0.2
				C3,62.8,3,62.9,3,63z"/>
			<path class="st5" d="M4.4,61.9H2.9v0l1.1-1H2.9v-0.1h1.5v0l-1.1,1h1.1V61.9z"/>
			<path class="st5" d="M2.9,60.4v-0.8H3v0.7h0.5v-0.7h0.1v0.7h0.6v-0.7h0.1v0.8H2.9z"/>
		</g>
		<g>
			<path class="st5" d="M5.7,59.6h2.9v1H6.7v1h1.9v1H6.7v1.4h1.9v1H5.7V59.6z"/>
			<path class="st5" d="M10.2,61.3h-1c0-0.6,0.2-1,0.5-1.3c0.3-0.3,0.8-0.5,1.3-0.5c0.3,0,0.6,0.1,0.8,0.2c0.2,0.1,0.4,0.3,0.6,0.6
				c0.1,0.3,0.2,0.5,0.2,0.8c0,0.3-0.1,0.6-0.3,1c-0.2,0.4-0.5,0.8-1,1.3l-0.6,0.6h1.9v0.9H9.1v-0.5l1.6-1.7c0.4-0.4,0.7-0.7,0.8-1
				c0.1-0.2,0.2-0.5,0.2-0.7c0-0.2-0.1-0.4-0.2-0.5c-0.1-0.1-0.3-0.2-0.5-0.2c-0.2,0-0.4,0.1-0.5,0.2C10.3,60.8,10.2,61,10.2,61.3z"
				/>
		</g>
	</g>
	<g>
		<g>
			<path class="st5" d="M3.8,69.9L3.8,69.9C3.9,69.7,4,69.6,4,69.6c0,0,0-0.1,0-0.1c0,0,0-0.1-0.1-0.1c0,0-0.1,0-0.1,0
				c0,0-0.1,0-0.1,0c0,0-0.1,0.1-0.2,0.2c-0.1,0.1-0.1,0.2-0.2,0.2c-0.1,0-0.1,0.1-0.2,0.1c0,0-0.1,0-0.1,0c0,0-0.1-0.1-0.1-0.1
				c0,0,0-0.1,0-0.1c0-0.1,0-0.1,0-0.1c0,0,0.1-0.1,0.1-0.1l0.1,0.1c-0.1,0-0.1,0.1-0.1,0.1c0,0,0,0.1,0,0.1c0,0,0,0.1,0,0.1
				c0,0,0.1,0,0.1,0c0,0,0,0,0.1,0c0,0,0,0,0.1-0.1c0,0,0.1-0.1,0.1-0.1c0.1-0.1,0.1-0.2,0.2-0.2c0.1,0,0.1-0.1,0.2-0.1
				c0.1,0,0.2,0,0.2,0.1c0.1,0.1,0.1,0.1,0.1,0.2c0,0.1,0,0.1-0.1,0.2C4,69.8,3.9,69.8,3.8,69.9z"/>
			<path class="st5" d="M2.9,69v-0.6H3v0.5h0.3v-0.5h0.1v0.5h0.4v-0.5h0.1V69H2.9z"/>
			<path class="st5" d="M2.9,67.7l1.1-0.5v0.1l-0.4,0.2V68l0.4,0.2v0.1L2.9,67.7L2.9,67.7z M3.2,67.7l0.4,0.2v-0.4L3.2,67.7z"/>
			<path class="st5" d="M3,67.1H2.9v-0.6H3v0.2h1v0.1H3V67.1z"/>
		</g>
		<g>
			<path class="st5" d="M5.3,67.7H4.8c0-0.3,0.1-0.6,0.3-0.8c0.2-0.2,0.5-0.3,0.8-0.3c0.2,0,0.4,0,0.5,0.1c0.1,0.1,0.3,0.2,0.4,0.3
				c0.1,0.2,0.1,0.3,0.1,0.5c0,0.2-0.1,0.4-0.2,0.6c-0.1,0.2-0.3,0.5-0.6,0.8l-0.4,0.4h1.1v0.6H4.7v-0.3l1-1C5.9,68.3,6,68.1,6.1,68
				c0.1-0.1,0.1-0.3,0.1-0.4c0-0.1,0-0.2-0.1-0.3c-0.1-0.1-0.2-0.1-0.3-0.1c-0.1,0-0.2,0-0.3,0.1C5.4,67.4,5.3,67.5,5.3,67.7z"/>
			<path class="st5" d="M7.8,67.7H7.2c0-0.3,0.1-0.6,0.3-0.8c0.2-0.2,0.5-0.3,0.8-0.3c0.2,0,0.4,0,0.5,0.1c0.1,0.1,0.3,0.2,0.4,0.3
				c0.1,0.2,0.1,0.3,0.1,0.5c0,0.2-0.1,0.4-0.2,0.6c-0.1,0.2-0.3,0.5-0.6,0.8l-0.4,0.4h1.1v0.6H7.1v-0.3l1-1
				c0.2-0.2,0.4-0.4,0.5-0.6c0.1-0.1,0.1-0.3,0.1-0.4c0-0.1,0-0.2-0.1-0.3c-0.1-0.1-0.2-0.1-0.3-0.1c-0.1,0-0.2,0-0.3,0.1
				C7.8,67.4,7.8,67.5,7.8,67.7z"/>
			<path class="st5" d="M12.7,67.2l-0.4,0.4c-0.3-0.3-0.6-0.5-1-0.5c-0.3,0-0.6,0.1-0.8,0.3c-0.2,0.2-0.3,0.5-0.3,0.8
				c0,0.2,0,0.4,0.1,0.6c0.1,0.2,0.2,0.3,0.4,0.4c0.2,0.1,0.4,0.1,0.6,0.1c0.2,0,0.3,0,0.5-0.1c0.1-0.1,0.3-0.2,0.5-0.4l0.4,0.4
				c-0.2,0.2-0.5,0.4-0.7,0.5c-0.2,0.1-0.4,0.1-0.7,0.1c-0.5,0-0.9-0.2-1.2-0.5c-0.3-0.3-0.5-0.7-0.5-1.2c0-0.3,0.1-0.6,0.2-0.8
				c0.1-0.2,0.3-0.4,0.6-0.6c0.3-0.1,0.5-0.2,0.9-0.2c0.3,0,0.5,0.1,0.8,0.2C12.4,66.9,12.6,67,12.7,67.2z"/>
		</g>
	</g>
</g>
</svg>
