<?xml version="1.0" encoding="utf-8"?>
<!-- Generator: Adobe Illustrator 25.1.0, SVG Export Plug-In . SVG Version: 6.00 Build 0)  -->
<svg version="1.1" id="Capa_1" xmlns="http://www.w3.org/2000/svg" xmlns:xlink="http://www.w3.org/1999/xlink" x="0px" y="0px"
	 viewBox="0 0 130 82.3" style="enable-background:new 0 0 130 82.3;" xml:space="preserve">
<style type="text/css">
	.st0{opacity:0.15;fill:#54678B;enable-background:new    ;}
	.st1{opacity:0.9;}
	.st2{fill:#FFFFFF;}
	.st3{fill:#006980;}
	.st4{fill:#00374D;}
	.st5{font-family:'Monoround';}
	.st6{font-size:5.1762px;}
	.st7{fill:#C1F3FF;}
	.st8{fill:#27B346;}
	.st9{fill:#FFDFBE;}
	.st10{fill:#FF74A5;}
	.st11{fill:#48BF5B;}
	.st12{fill:#FF8CB6;}
	.st13{fill:#FF6499;}
	.st14{fill:#E95151;}
	.st15{fill:#FF6363;}
	.st16{fill:#CE3C3C;}
	.st17{fill:#006CA8;}
	.st18{fill:#0B80C2;}
	.st19{fill:#2A95DB;}
	.st20{fill:#0075B6;}
	.st21{fill:#00568E;}
	.st22{fill:#FFAE45;}
	.st23{fill:#F5CCA3;}
	.st24{fill:#FFEED8;}
	.st25{fill:#FAF8DE;}
	.st26{fill:#F5F3D2;}
	.st27{fill:#FFFDEC;}
	.st28{fill:#FFB956;}
	.st29{fill:#FF6699;}
	.st30{fill:#E7972F;}
	.st31{fill:#FF6666;}
	.st32{fill:#DC4141;}
	.st33{fill:#F3A239;}
	.st34{fill:#D1D3D4;}
	.st35{fill:#F5425C;}
</style>
<g id="Group_103">
	<path id="Rectangle_31" class="st0" d="M12,7.3h111.9c2.9,0,5.3,1.8,5.3,4.1v65.3c0,2.3-2.4,4.1-5.3,4.1H12c-2.9,0-5.3-1.8-5.3-4.1
		V11.4C6.7,9.1,9.1,7.3,12,7.3z"/>
	<g>
		<g class="st1">
			<path class="st2" d="M120.3,74.3H5.6c-3.1,0-5.6-2.5-5.6-5.6V7.9c0-3.1,2.5-5.6,5.6-5.6h114.7c3.1,0,5.6,2.5,5.6,5.6v60.8
				C125.9,71.8,123.4,74.3,120.3,74.3z"/>
		</g>
		<path class="st3" d="M104.9,71.2C104.8,71.2,104.8,71.1,104.9,71.2l-0.1-53.9c0,0,0-0.1,0.1-0.1c0,0,0.1,0,0.1,0.1L104.9,71.2
			C104.9,71.1,104.9,71.2,104.9,71.2z"/>
		<path class="st3" d="M83.2,71.2C83.1,71.2,83.1,71.1,83.2,71.2l-0.1-53.9c0,0,0-0.1,0.1-0.1c0,0,0.1,0,0.1,0.1L83.2,71.2
			C83.2,71.1,83.2,71.2,83.2,71.2z"/>
		<path class="st3" d="M61.5,71.2C61.4,71.2,61.4,71.1,61.5,71.2l-0.1-53.9c0,0,0-0.1,0.1-0.1s0.1,0,0.1,0.1L61.5,71.2
			C61.5,71.1,61.5,71.2,61.5,71.2z"/>
		<path class="st3" d="M39.8,71.2C39.8,71.2,39.7,71.1,39.8,71.2l-0.1-53.9c0,0,0-0.1,0.1-0.1c0,0,0.1,0,0.1,0.1L39.8,71.2
			C39.8,71.1,39.8,71.2,39.8,71.2z"/>
		<path class="st3" d="M18.1,71.2C18.1,71.2,18,71.1,18.1,71.2L18,17.2c0,0,0-0.1,0.1-0.1c0,0,0.1,0,0.1,0.1L18.1,71.2
			C18.1,71.1,18.1,71.2,18.1,71.2z"/>
		<g>
			<path class="st4" d="M36.3,12.5c0-1,0.5-2.8-0.4-3.6c-1.2-1-4.7-0.3-6.2-0.3c-2.5,0-5.1,0-7.6,0c-0.6,0-1.3,0-1.8,0.2
				c-2.1,0.8-1.7,3.9-1.2,5.5c0.1,0.3,0.2,0.7,0.5,1c0.3,0.3,0.7,0.4,1.1,0.5c4.2,1.1,8.6,0.5,12.9-0.1c0.6-0.1,1.3-0.2,1.8-0.6
				C36.1,14.6,36.2,13.4,36.3,12.5z"/>
			<path class="st4" d="M41.9,12c0,1-0.5,2.8,0.4,3.6c1.2,1,4.7,0.3,6.2,0.3c2.5,0,5.1,0,7.6,0c0.6,0,1.3,0,1.8-0.2
				c2.1-0.8,1.7-3.9,1.2-5.5c-0.1-0.3-0.2-0.7-0.5-1c-0.3-0.3-0.7-0.4-1.1-0.5c-4.2-1.1-8.6-0.5-12.9,0.1c-0.6,0.1-1.3,0.2-1.8,0.6
				C42.1,9.9,42,11,41.9,12z"/>
			<path class="st4" d="M79.7,12.5c0-1,0.4-2.8-0.3-3.6c-1-1-3.9-0.3-5.1-0.3c-2.1,0-4.2,0-6.3,0c-0.5,0-1,0-1.5,0.2
				c-1.8,0.8-1.4,3.9-1,5.5c0.1,0.3,0.2,0.7,0.4,1c0.2,0.3,0.6,0.4,0.9,0.5c3.5,1.1,7.2,0.5,10.7-0.1c0.5-0.1,1.1-0.2,1.5-0.6
				C79.6,14.6,79.6,13.4,79.7,12.5z"/>
			<path class="st4" d="M84.3,12.3c0,1-0.6,2.8,0.5,3.6c1.4,1,5.5,0.3,7.2,0.3c3,0,5.9,0,8.9,0c0.7,0,1.5,0,2.1-0.2
				c2.5-0.8,2-3.9,1.4-5.5c-0.1-0.3-0.3-0.7-0.6-1c-0.3-0.3-0.8-0.4-1.3-0.5c-4.9-1.1-10-0.5-15,0.1c-0.7,0.1-1.5,0.2-2.1,0.6
				C84.4,10.2,84.3,11.4,84.3,12.3z"/>
			<path class="st4" d="M121.9,12.2c0-1,0.4-2.8-0.3-3.6c-1-1-3.8-0.3-5-0.3c-2.1,0-4.1,0-6.2,0c-0.5,0-1,0-1.5,0.2
				c-1.7,0.8-1.4,3.9-1,5.5c0.1,0.3,0.2,0.7,0.4,1c0.2,0.3,0.6,0.4,0.9,0.5c3.4,1.1,7,0.5,10.4-0.1c0.5-0.1,1-0.2,1.5-0.6
				C121.8,14.3,121.8,13.1,121.9,12.2z"/>
			<text transform="matrix(1 0 0 1 23.3055 14.1819)" class="st2 st5 st6">Lun</text>
			<text transform="matrix(1 0 0 1 46.6051 13.5627)" class="st2 st5 st6">Mar</text>
			<text transform="matrix(1 0 0 1 67.5022 13.5627)" class="st2 st5 st6">Mier</text>
			<text transform="matrix(1 0 0 1 89.0942 13.8674)" class="st2 st5 st6">Jue</text>
			<text transform="matrix(1 0 0 1 110.781 13.5627)" class="st2 st5 st6">Vie</text>
		</g>
		<g>
			<path class="st7" d="M7.1,23.8c0.4,0.1,0.8,0.1,1.2,0.1c1.6-0.1,3.2-0.1,4.8-0.2c0.6,0,1.2-0.1,1.7-0.3c1.1-0.6,1.7-2.9,0.4-3.6
				c-1-0.5-2.4-0.3-3.5-0.3c-1.5,0-3,0-4.6,0c-0.3,0-0.6,0-0.9,0.1C4.5,20.2,5.6,23.3,7.1,23.8z"/>
			<path class="st7" d="M14.3,25.4c-0.4-0.1-0.8-0.1-1.2-0.1c-1.6,0.1-3.2,0.1-4.8,0.2c-0.6,0-1.2,0.1-1.7,0.3
				c-1.1,0.6-1.7,2.9-0.4,3.6c1,0.5,2.4,0.3,3.5,0.3c1.5,0,3,0,4.6,0c0.3,0,0.6,0,0.9-0.1C16.9,29,15.8,25.9,14.3,25.4z"/>
			<path class="st7" d="M7.1,35.5c0.4,0.1,0.8,0.1,1.2,0.1c1.6-0.1,3.2-0.1,4.8-0.2c0.6,0,1.2-0.1,1.7-0.3c1.1-0.6,1.7-2.9,0.4-3.6
				c-1-0.5-2.4-0.3-3.5-0.3c-1.5,0-3,0-4.6,0c-0.3,0-0.6,0-0.9,0.1C4.5,32,5.6,35,7.1,35.5z"/>
			<path class="st7" d="M14.3,37.1C13.9,37,13.4,37,13,37c-1.6,0.1-3.2,0.1-4.8,0.2c-0.6,0-1.2,0.1-1.7,0.3
				c-1.1,0.6-1.7,2.9-0.4,3.6c1,0.5,2.4,0.3,3.5,0.3c1.5,0,3,0,4.6,0c0.3,0,0.6,0,0.9-0.1C16.9,40.7,15.8,37.6,14.3,37.1z"/>
			<path class="st7" d="M7.1,47.2c0.4,0.1,0.8,0.1,1.2,0.1c1.6-0.1,3.2-0.1,4.8-0.2c0.6,0,1.2-0.1,1.7-0.3c1.1-0.6,1.7-2.9,0.4-3.6
				c-1-0.5-2.4-0.3-3.5-0.3c-1.5,0-3,0-4.6,0c-0.3,0-0.6,0-0.9,0.1C4.5,43.7,5.6,46.7,7.1,47.2z"/>
			<path class="st7" d="M14.3,48.9c-0.4-0.1-0.8-0.1-1.2-0.1c-1.6,0.1-3.2,0.1-4.8,0.2C7.6,49,7,49,6.5,49.3
				c-1.1,0.6-1.7,2.9-0.4,3.6c1,0.5,2.4,0.3,3.5,0.3c1.5,0,3,0,4.6,0c0.3,0,0.6,0,0.9-0.1C16.9,52.4,15.8,49.3,14.3,48.9z"/>
			<path class="st7" d="M7.1,58.9C7.5,59.1,8,59,8.4,59c1.6-0.1,3.2-0.1,4.8-0.2c0.6,0,1.2-0.1,1.7-0.3c1.1-0.6,1.7-2.9,0.4-3.6
				c-1-0.5-2.4-0.3-3.5-0.3c-1.5,0-3,0-4.6,0c-0.3,0-0.6,0-0.9,0.1C4.5,55.4,5.6,58.5,7.1,58.9z"/>
			<path class="st7" d="M7.1,70.6c0.4,0.1,0.8,0.1,1.2,0.1c1.6-0.1,3.2-0.1,4.8-0.2c0.6,0,1.2-0.1,1.7-0.3c1.1-0.6,1.7-2.9,0.4-3.6
				c-1-0.5-2.4-0.3-3.5-0.3c-1.5,0-3,0-4.6,0c-0.3,0-0.6,0-0.9,0.1C4.5,67.1,5.6,70.2,7.1,70.6z"/>
			<path class="st7" d="M14.3,60.6c-0.4-0.1-0.8-0.1-1.2-0.1c-1.6,0.1-3.2,0.1-4.8,0.2c-0.6,0-1.2,0.1-1.7,0.3
				c-1.1,0.6-1.7,2.9-0.4,3.6c1,0.5,2.4,0.3,3.5,0.3c1.5,0,3,0,4.6,0c0.3,0,0.6,0,0.9-0.1C16.9,64.1,15.8,61.1,14.3,60.6z"/>
			<g>
				<g>
					<path class="st4" d="M7.7,22c0-0.3,0.3-0.6,0.5-0.7v0C8,21.2,7.8,21,7.8,20.8c0-0.4,0.3-0.6,0.6-0.6c0.4,0,0.7,0.3,0.7,0.6
						c0,0.3-0.2,0.5-0.3,0.6v0c0.2,0.1,0.4,0.3,0.4,0.6c0,0.4-0.3,0.6-0.7,0.6C8,22.7,7.7,22.4,7.7,22z M9,22.1
						c0-0.4-0.4-0.5-0.8-0.7C8,21.6,7.8,21.8,7.8,22c0,0.3,0.3,0.5,0.6,0.5C8.8,22.6,9,22.4,9,22.1z M9,20.8c0-0.3-0.2-0.5-0.5-0.5
						c-0.3,0-0.5,0.2-0.5,0.5c0,0.3,0.3,0.5,0.7,0.6C8.8,21.2,9,21,9,20.8z"/>
					<path class="st4" d="M9.6,21.1c0-0.1,0.1-0.2,0.2-0.2S10,21,10,21.1c0,0.1-0.1,0.2-0.2,0.2S9.6,21.2,9.6,21.1z M9.6,22.5
						c0-0.1,0.1-0.2,0.2-0.2s0.2,0.1,0.2,0.2c0,0.1-0.1,0.2-0.2,0.2S9.6,22.6,9.6,22.5z"/>
					<path class="st4" d="M10.4,21.4c0-0.8,0.3-1.3,0.7-1.3c0.5,0,0.7,0.5,0.7,1.3s-0.3,1.3-0.7,1.3C10.7,22.7,10.4,22.2,10.4,21.4z
						 M11.7,21.4c0-0.8-0.2-1.1-0.6-1.1c-0.3,0-0.6,0.4-0.6,1.1c0,0.7,0.2,1.1,0.6,1.1C11.5,22.6,11.7,22.2,11.7,21.4z"/>
					<path class="st4" d="M12.2,21.4c0-0.8,0.3-1.3,0.7-1.3c0.5,0,0.7,0.5,0.7,1.3s-0.3,1.3-0.7,1.3C12.5,22.7,12.2,22.2,12.2,21.4z
						 M13.5,21.4c0-0.8-0.2-1.1-0.6-1.1c-0.3,0-0.6,0.4-0.6,1.1c0,0.7,0.2,1.1,0.6,1.1C13.3,22.6,13.5,22.2,13.5,21.4z"/>
					<path class="st4" d="M7.7,28.4l0.1-0.1c0.1,0.1,0.3,0.2,0.4,0.2c0.4,0,0.7-0.3,0.7-1.2c0-0.6-0.2-1-0.6-1
						c-0.3,0-0.5,0.3-0.5,0.6c0,0.4,0.2,0.6,0.5,0.6c0.2,0,0.4-0.1,0.6-0.4l0,0.2c-0.2,0.2-0.4,0.4-0.6,0.4c-0.4,0-0.7-0.3-0.7-0.8
						C7.7,26.4,8,26,8.4,26c0.5,0,0.8,0.4,0.8,1.2c0,1-0.4,1.4-0.9,1.4C8,28.6,7.9,28.5,7.7,28.4z"/>
					<path class="st4" d="M9.6,27c0-0.1,0.1-0.2,0.2-0.2S10,26.8,10,27c0,0.1-0.1,0.2-0.2,0.2S9.6,27.1,9.6,27z M9.6,28.4
						c0-0.1,0.1-0.2,0.2-0.2s0.2,0.1,0.2,0.2c0,0.1-0.1,0.2-0.2,0.2S9.6,28.5,9.6,28.4z"/>
					<path class="st4" d="M10.4,27.3c0-0.8,0.3-1.3,0.7-1.3c0.5,0,0.7,0.5,0.7,1.3s-0.3,1.3-0.7,1.3C10.7,28.6,10.4,28.1,10.4,27.3z
						 M11.7,27.3c0-0.8-0.2-1.1-0.6-1.1c-0.3,0-0.6,0.4-0.6,1.1c0,0.7,0.2,1.1,0.6,1.1C11.5,28.4,11.7,28.1,11.7,27.3z"/>
					<path class="st4" d="M12.2,27.3c0-0.8,0.3-1.3,0.7-1.3c0.5,0,0.7,0.5,0.7,1.3s-0.3,1.3-0.7,1.3C12.5,28.6,12.2,28.1,12.2,27.3z
						 M13.5,27.3c0-0.8-0.2-1.1-0.6-1.1c-0.3,0-0.6,0.4-0.6,1.1c0,0.7,0.2,1.1,0.6,1.1C13.3,28.4,13.5,28.1,13.5,27.3z"/>
					<path class="st4" d="M6.9,34.3h0.6v-2H7.1v-0.1c0.2,0,0.4-0.1,0.5-0.2h0.1v2.3h0.5v0.1H6.9V34.3z"/>
					<path class="st4" d="M8.6,33.2c0-0.8,0.3-1.3,0.7-1.3c0.5,0,0.7,0.5,0.7,1.3s-0.3,1.3-0.7,1.3C8.9,34.5,8.6,34,8.6,33.2z
						 M9.9,33.2c0-0.8-0.2-1.1-0.6-1.1c-0.3,0-0.6,0.4-0.6,1.1c0,0.7,0.2,1.1,0.6,1.1C9.7,34.3,9.9,33.9,9.9,33.2z"/>
					<path class="st4" d="M10.5,32.8c0-0.1,0.1-0.2,0.2-0.2s0.2,0.1,0.2,0.2c0,0.1-0.1,0.2-0.2,0.2S10.5,32.9,10.5,32.8z M10.5,34.3
						c0-0.1,0.1-0.2,0.2-0.2s0.2,0.1,0.2,0.2c0,0.1-0.1,0.2-0.2,0.2S10.5,34.4,10.5,34.3z"/>
					<path class="st4" d="M11.3,33.2c0-0.8,0.3-1.3,0.7-1.3c0.5,0,0.7,0.5,0.7,1.3s-0.3,1.3-0.7,1.3C11.6,34.5,11.3,34,11.3,33.2z
						 M12.6,33.2c0-0.8-0.2-1.1-0.6-1.1c-0.3,0-0.6,0.4-0.6,1.1c0,0.7,0.2,1.1,0.6,1.1C12.4,34.3,12.6,33.9,12.6,33.2z"/>
					<path class="st4" d="M13.2,33.2c0-0.8,0.3-1.3,0.7-1.3c0.5,0,0.7,0.5,0.7,1.3s-0.3,1.3-0.7,1.3C13.4,34.5,13.2,34,13.2,33.2z
						 M14.5,33.2c0-0.8-0.2-1.1-0.6-1.1c-0.3,0-0.6,0.4-0.6,1.1c0,0.7,0.2,1.1,0.6,1.1C14.2,34.3,14.5,33.9,14.5,33.2z"/>
					<path class="st4" d="M6.9,40.2h0.6v-2H7.1V38c0.2,0,0.4-0.1,0.5-0.2h0.1v2.3h0.5v0.1H6.9V40.2z"/>
					<path class="st4" d="M8.8,40.2h0.6v-2H8.9V38c0.2,0,0.4-0.1,0.5-0.2h0.1v2.3h0.5v0.1H8.8V40.2z"/>
					<path class="st4" d="M10.5,38.7c0-0.1,0.1-0.2,0.2-0.2s0.2,0.1,0.2,0.2c0,0.1-0.1,0.2-0.2,0.2S10.5,38.8,10.5,38.7z M10.5,40.2
						c0-0.1,0.1-0.2,0.2-0.2s0.2,0.1,0.2,0.2c0,0.1-0.1,0.2-0.2,0.2S10.5,40.3,10.5,40.2z"/>
					<path class="st4" d="M11.3,39.1c0-0.8,0.3-1.3,0.7-1.3c0.5,0,0.7,0.5,0.7,1.3s-0.3,1.3-0.7,1.3C11.6,40.4,11.3,39.9,11.3,39.1z
						 M12.6,39.1c0-0.8-0.2-1.1-0.6-1.1c-0.3,0-0.6,0.4-0.6,1.1c0,0.7,0.2,1.1,0.6,1.1C12.4,40.2,12.6,39.8,12.6,39.1z"/>
					<path class="st4" d="M13.2,39.1c0-0.8,0.3-1.3,0.7-1.3c0.5,0,0.7,0.5,0.7,1.3s-0.3,1.3-0.7,1.3C13.4,40.4,13.2,39.9,13.2,39.1z
						 M14.5,39.1c0-0.8-0.2-1.1-0.6-1.1c-0.3,0-0.6,0.4-0.6,1.1c0,0.7,0.2,1.1,0.6,1.1C14.2,40.2,14.5,39.8,14.5,39.1z"/>
					<path class="st4" d="M6.9,46h0.6v-2H7.1v-0.1c0.2,0,0.4-0.1,0.5-0.2h0.1V46h0.5v0.2H6.9V46z"/>
					<path class="st4" d="M8.6,46.1c0.8-0.8,1.2-1.3,1.2-1.7c0-0.3-0.2-0.5-0.5-0.5c-0.2,0-0.4,0.1-0.6,0.3L8.6,44
						c0.2-0.2,0.4-0.4,0.7-0.4c0.4,0,0.7,0.3,0.7,0.7c0,0.5-0.4,1-1.1,1.7c0.1,0,0.3,0,0.4,0h0.8v0.2H8.6V46.1z"/>
					<path class="st4" d="M10.5,44.6c0-0.1,0.1-0.2,0.2-0.2s0.2,0.1,0.2,0.2c0,0.1-0.1,0.2-0.2,0.2S10.5,44.7,10.5,44.6z M10.5,46.1
						c0-0.1,0.1-0.2,0.2-0.2s0.2,0.1,0.2,0.2c0,0.1-0.1,0.2-0.2,0.2S10.5,46.2,10.5,46.1z"/>
					<path class="st4" d="M11.3,44.9c0-0.8,0.3-1.3,0.7-1.3c0.5,0,0.7,0.5,0.7,1.3c0,0.8-0.3,1.3-0.7,1.3
						C11.6,46.2,11.3,45.8,11.3,44.9z M12.6,44.9c0-0.8-0.2-1.1-0.6-1.1c-0.3,0-0.6,0.4-0.6,1.1c0,0.7,0.2,1.1,0.6,1.1
						C12.4,46.1,12.6,45.7,12.6,44.9z"/>
					<path class="st4" d="M13.2,44.9c0-0.8,0.3-1.3,0.7-1.3c0.5,0,0.7,0.5,0.7,1.3c0,0.8-0.3,1.3-0.7,1.3
						C13.4,46.2,13.2,45.8,13.2,44.9z M14.5,44.9c0-0.8-0.2-1.1-0.6-1.1c-0.3,0-0.6,0.4-0.6,1.1c0,0.7,0.2,1.1,0.6,1.1
						C14.2,46.1,14.5,45.7,14.5,44.9z"/>
					<path class="st4" d="M6.9,51.9h0.6v-2H7.1v-0.1c0.2,0,0.4-0.1,0.5-0.2h0.1v2.3h0.5v0.2H6.9V51.9z"/>
					<path class="st4" d="M8.6,51.8l0.1-0.1C8.8,51.8,9,52,9.3,52c0.3,0,0.6-0.2,0.6-0.5c0-0.3-0.2-0.6-0.9-0.6v-0.2
						c0.6,0,0.8-0.2,0.8-0.5c0-0.3-0.2-0.5-0.5-0.5c-0.2,0-0.4,0.1-0.6,0.3l-0.1-0.1c0.2-0.2,0.4-0.3,0.7-0.3c0.4,0,0.7,0.2,0.7,0.6
						c0,0.3-0.2,0.5-0.5,0.6v0c0.3,0.1,0.6,0.3,0.6,0.6c0,0.4-0.3,0.7-0.8,0.7C8.9,52.1,8.7,51.9,8.6,51.8z"/>
					<path class="st4" d="M10.5,50.5c0-0.1,0.1-0.2,0.2-0.2s0.2,0.1,0.2,0.2c0,0.1-0.1,0.2-0.2,0.2S10.5,50.6,10.5,50.5z M10.5,51.9
						c0-0.1,0.1-0.2,0.2-0.2s0.2,0.1,0.2,0.2c0,0.1-0.1,0.2-0.2,0.2S10.5,52,10.5,51.9z"/>
					<path class="st4" d="M11.3,50.8c0-0.8,0.3-1.3,0.7-1.3c0.5,0,0.7,0.5,0.7,1.3c0,0.8-0.3,1.3-0.7,1.3
						C11.6,52.1,11.3,51.6,11.3,50.8z M12.6,50.8c0-0.8-0.2-1.1-0.6-1.1c-0.3,0-0.6,0.4-0.6,1.1s0.2,1.1,0.6,1.1
						C12.4,52,12.6,51.6,12.6,50.8z"/>
					<path class="st4" d="M13.2,50.8c0-0.8,0.3-1.3,0.7-1.3c0.5,0,0.7,0.5,0.7,1.3c0,0.8-0.3,1.3-0.7,1.3
						C13.4,52.1,13.2,51.6,13.2,50.8z M14.5,50.8c0-0.8-0.2-1.1-0.6-1.1c-0.3,0-0.6,0.4-0.6,1.1s0.2,1.1,0.6,1.1
						C14.2,52,14.5,51.6,14.5,50.8z"/>
					<path class="st4" d="M6.9,57.8h0.6v-2H7.1v-0.1c0.2,0,0.4-0.1,0.5-0.2h0.1v2.3h0.5v0.2H6.9V57.8z"/>
					<path class="st4" d="M9.6,56.2c0-0.1,0-0.3,0-0.4h0c-0.1,0.1-0.1,0.2-0.2,0.3l-0.7,1h1.5v0.1H8.5v-0.1l1.1-1.6h0.2v2.5H9.6
						V56.2z"/>
					<path class="st4" d="M10.5,56.3c0-0.1,0.1-0.2,0.2-0.2s0.2,0.1,0.2,0.2c0,0.1-0.1,0.2-0.2,0.2S10.5,56.5,10.5,56.3z M10.5,57.8
						c0-0.1,0.1-0.2,0.2-0.2s0.2,0.1,0.2,0.2c0,0.1-0.1,0.2-0.2,0.2S10.5,57.9,10.5,57.8z"/>
					<path class="st4" d="M11.3,56.7c0-0.8,0.3-1.3,0.7-1.3c0.5,0,0.7,0.5,0.7,1.3c0,0.8-0.3,1.3-0.7,1.3
						C11.6,58,11.3,57.5,11.3,56.7z M12.6,56.7c0-0.8-0.2-1.1-0.6-1.1c-0.3,0-0.6,0.4-0.6,1.1s0.2,1.1,0.6,1.1
						C12.4,57.8,12.6,57.5,12.6,56.7z"/>
					<path class="st4" d="M13.2,56.7c0-0.8,0.3-1.3,0.7-1.3c0.5,0,0.7,0.5,0.7,1.3c0,0.8-0.3,1.3-0.7,1.3
						C13.4,58,13.2,57.5,13.2,56.7z M14.5,56.7c0-0.8-0.2-1.1-0.6-1.1c-0.3,0-0.6,0.4-0.6,1.1s0.2,1.1,0.6,1.1
						C14.2,57.8,14.5,57.5,14.5,56.7z"/>
					<path class="st4" d="M6.9,63.7h0.6v-2H7.1v-0.1c0.2,0,0.4-0.1,0.5-0.2h0.1v2.3h0.5v0.2H6.9V63.7z"/>
					<path class="st4" d="M8.5,63.5l0.1-0.1c0.1,0.2,0.3,0.3,0.7,0.3c0.3,0,0.6-0.3,0.6-0.7c0-0.4-0.2-0.6-0.6-0.6
						c-0.2,0-0.3,0.1-0.5,0.2l-0.1-0.1l0.1-1.2H10v0.2H9l-0.1,0.9c0.1-0.1,0.3-0.1,0.4-0.1c0.4,0,0.8,0.2,0.8,0.8
						c0,0.5-0.4,0.8-0.8,0.8C8.9,63.9,8.7,63.7,8.5,63.5z"/>
					<path class="st4" d="M10.5,62.2c0-0.1,0.1-0.2,0.2-0.2s0.2,0.1,0.2,0.2c0,0.1-0.1,0.2-0.2,0.2S10.5,62.3,10.5,62.2z M10.5,63.7
						c0-0.1,0.1-0.2,0.2-0.2s0.2,0.1,0.2,0.2c0,0.1-0.1,0.2-0.2,0.2S10.5,63.8,10.5,63.7z"/>
					<path class="st4" d="M11.3,62.6c0-0.8,0.3-1.3,0.7-1.3c0.5,0,0.7,0.5,0.7,1.3c0,0.8-0.3,1.3-0.7,1.3
						C11.6,63.9,11.3,63.4,11.3,62.6z M12.6,62.6c0-0.8-0.2-1.1-0.6-1.1c-0.3,0-0.6,0.4-0.6,1.1s0.2,1.1,0.6,1.1
						C12.4,63.7,12.6,63.3,12.6,62.6z"/>
					<path class="st4" d="M13.2,62.6c0-0.8,0.3-1.3,0.7-1.3c0.5,0,0.7,0.5,0.7,1.3c0,0.8-0.3,1.3-0.7,1.3
						C13.4,63.9,13.2,63.4,13.2,62.6z M14.5,62.6c0-0.8-0.2-1.1-0.6-1.1c-0.3,0-0.6,0.4-0.6,1.1s0.2,1.1,0.6,1.1
						C14.2,63.7,14.5,63.3,14.5,62.6z"/>
					<path class="st4" d="M6.9,69.6h0.6v-2H7.1v-0.1c0.2,0,0.4-0.1,0.5-0.2h0.1v2.3h0.5v0.2H6.9V69.6z"/>
					<path class="st4" d="M8.6,68.6c0-1,0.4-1.4,0.9-1.4c0.2,0,0.4,0.1,0.5,0.2L10,67.6c-0.1-0.1-0.3-0.2-0.4-0.2
						c-0.4,0-0.7,0.3-0.7,1.2c0,0.6,0.2,1,0.6,1c0.3,0,0.5-0.3,0.5-0.6c0-0.4-0.2-0.6-0.5-0.6c-0.2,0-0.4,0.1-0.6,0.4l0-0.2
						c0.2-0.2,0.4-0.4,0.6-0.4c0.4,0,0.7,0.3,0.7,0.8c0,0.4-0.3,0.8-0.7,0.8C9,69.7,8.6,69.3,8.6,68.6z"/>
					<path class="st4" d="M10.5,68.1c0-0.1,0.1-0.2,0.2-0.2s0.2,0.1,0.2,0.2c0,0.1-0.1,0.2-0.2,0.2S10.5,68.2,10.5,68.1z M10.5,69.6
						c0-0.1,0.1-0.2,0.2-0.2s0.2,0.1,0.2,0.2c0,0.1-0.1,0.2-0.2,0.2S10.5,69.7,10.5,69.6z"/>
					<path class="st4" d="M11.3,68.5c0-0.8,0.3-1.3,0.7-1.3c0.5,0,0.7,0.5,0.7,1.3c0,0.8-0.3,1.3-0.7,1.3
						C11.6,69.7,11.3,69.3,11.3,68.5z M12.6,68.5c0-0.8-0.2-1.1-0.6-1.1c-0.3,0-0.6,0.4-0.6,1.1s0.2,1.1,0.6,1.1
						C12.4,69.6,12.6,69.2,12.6,68.5z"/>
					<path class="st4" d="M13.2,68.5c0-0.8,0.3-1.3,0.7-1.3c0.5,0,0.7,0.5,0.7,1.3c0,0.8-0.3,1.3-0.7,1.3
						C13.4,69.7,13.2,69.3,13.2,68.5z M14.5,68.5c0-0.8-0.2-1.1-0.6-1.1c-0.3,0-0.6,0.4-0.6,1.1s0.2,1.1,0.6,1.1
						C14.2,69.6,14.5,69.2,14.5,68.5z"/>
				</g>
			</g>
		</g>
	</g>
</g>
<g>
	<path class="st8" d="M24.7,58.3c-0.1,0.3-0.3,1.7-0.3,1.7c0.8-0.2,1.5-0.4,2.3-0.7c1.8-0.5,3.5-1.1,5.2-1.8
		c1.2-0.5,2.4-0.9,3.6-1.4c0.1,0,0.1-0.1,0.2-0.1c0.1-0.1,0.5-0.2,0.5-0.2s0.1-0.3,0.2-0.4c0.1-0.2,1-2.6,0.8-2.7
		c-0.3-0.1-0.9,0.3-1.2,0.4c-0.5,0.2-0.9,0.3-1.4,0.5c-1,0.4-2,0.7-2.9,1.1c-1.9,0.7-3.8,1.4-5.7,2.2c-0.3,0.1-0.5,0.2-0.8,0.4
		C24.9,57.5,24.8,57.9,24.7,58.3z"/>
	<path class="st9" d="M24.7,58c-0.1,0.3-0.3,1.7-0.3,1.7s0.7-0.2,0.9-0.3c0.5-0.2,1.1-0.3,1.6-0.5c1.1-0.3,2.2-0.7,3.2-1.1
		c1.9-0.6,3.7-1.4,5.6-2.1c0.1-0.1,0.5-0.2,0.6-0.3c0.1-0.1,0.1-0.2,0.1-0.3c0.1-0.2,0.8-2.4,0.7-2.5c-0.3,0-0.8,0.3-1.1,0.4
		c-0.5,0.2-0.9,0.3-1.4,0.5c-1,0.4-2,0.7-3,1.1c-1.9,0.7-3.9,1.4-5.8,2.1c-0.3,0.1-0.6,0.2-0.8,0.4C24.9,57.3,24.8,57.7,24.7,58z"/>
	<path class="st8" d="M20.3,42.1C20.3,42.1,20.4,42.1,20.3,42.1c-0.1,0.1,0,1,0,1.2c0,0.4-0.1,0.9-0.1,1.3c0,0.9,0,1.6,0.3,2.4
		c1.3,4.4,2.6,8.6,3.9,13c0.3-0.6,0.5-1.1,0.7-1.7c0.1-0.4,0.2-0.7,0.2-1.1c0-0.4-0.2-0.9-0.3-1.3c-1-2.7-1.8-5.4-2.6-8.1
		c-0.6-1.9-1.1-3.9-1.9-5.8"/>
	<path class="st10" d="M20.3,42.1c0,0.1,0,0.2,0,0.3c0.5,2.4,1.4,4.7,2.1,7.1c0.4,1.4,2.6,8.1,2.8,8.1c0.2,0.1,4-1.5,5.1-1.9
		c1.8-0.7,3.6-1.3,5.4-2c0.5-0.2,1-0.4,1.5-0.7c0.3-0.2,0.2-0.3,0.1-0.6c-0.1-0.3-0.2-0.7-0.3-1c-0.2-0.7-0.4-1.3-0.7-2
		c-0.4-1.3-0.9-2.6-1.3-3.9c-0.4-1.3-0.8-2.6-1.2-3.8c-0.4-1.2-0.9-2.4-1.3-3.6c-0.2-0.5-0.3-0.7-0.9-0.5
		C30,38.2,20.4,41.9,20.3,42.1z"/>
	<path class="st11" d="M26,55.3c-1.6-4.6-3.1-9.2-4.3-13.9c-0.8,0.3-1.3,0.6-1.4,0.6c0,0.1,0,0.2,0,0.3c0.5,2.4,1.4,4.7,2.1,7.1
		c0.4,1.4,2.6,8.1,2.8,8.1c0.1,0,0.6-0.2,1.4-0.5C26.4,56.6,26.2,56,26,55.3z"/>
	<path class="st12" d="M24.1,43.4c2,1.9,4.7,2.8,7.4,3.2c1.3,0.2,2.7,0.3,4,0.2c-0.1-0.4-0.3-0.9-0.4-1.3c-0.4-1.3-0.8-2.6-1.2-3.8
		c-0.4-1.2-0.9-2.4-1.3-3.6c-0.2-0.5-0.3-0.7-0.9-0.5c-1.2,0.4-6.2,2.4-9.2,3.5C22.9,42,23.4,42.8,24.1,43.4z"/>
	<path class="st13" d="M37,51.4c0-0.1,0-0.1-0.1-0.2c-0.1,0-0.1,0-0.2,0c-3.4,0.5-6.8,0.3-10.2-0.4c-1.2-0.3-2.5-0.7-3.5-1.3
		c-0.3-0.2-0.5-0.3-0.7-0.5c0.1,0.2,0.1,0.3,0.2,0.5c0.4,1.4,2.6,8.1,2.8,8.1c0.2,0.1,4-1.5,5.1-1.9c1.8-0.7,3.6-1.3,5.4-2
		c0.5-0.2,1-0.4,1.5-0.7c0.3-0.2,0.2-0.3,0.1-0.6C37.2,52.1,37.1,51.8,37,51.4z"/>
	<path class="st8" d="M24.3,50.1c-0.4-0.2-0.8-0.4-1.2-0.6c-0.3-0.2-0.5-0.3-0.7-0.5c0.1,0.2,0.1,0.3,0.2,0.5
		c0.4,1.4,2.6,8.1,2.8,8.1c0.1,0,0.6-0.2,1.4-0.5c-0.2-0.6-0.4-1.2-0.6-1.8C25.4,53.6,24.8,51.9,24.3,50.1z"/>
	<g>
		<path class="st2" d="M32.3,46.6L32.3,46.6c-0.5-0.1-1-0.2-1.5-0.2c0.1-0.4,0.2-0.7,0.3-1.1c0,0,0-0.1,0-0.1c0.1-0.3,0.2-0.7,0-0.9
			c-0.3-0.3-0.8,0.1-1,0.3l0,0c-0.3,0.3-0.6,0.7-0.9,1.1c-0.3-0.3-0.5-0.7-0.8-1c-0.2-0.2-0.4-0.4-0.6-0.4c-0.2,0-0.4,0-0.5,0.2
			c-0.1,0.1-0.2,0.3-0.2,0.5c0,0.2,0.1,0.4,0.2,0.6c0,0.1,0.1,0.2,0.1,0.3c0.1,0.2,0.2,0.5,0.4,0.7c-0.4,0.1-0.9,0.1-1.3,0.2
			c-0.2,0.1-0.5,0.1-0.7,0.4c-0.1,0.2-0.1,0.3-0.1,0.5c0,0.2,0.2,0.3,0.3,0.4c0.2,0.1,0.4,0.1,0.6,0.2c0.1,0,0.2,0,0.3,0
			c0.3,0,0.6,0,0.8,0c-0.2,0.4-0.3,0.8-0.5,1.2c-0.1,0.2-0.1,0.5,0,0.7c0.1,0.2,0.2,0.3,0.4,0.3c0,0,0.1,0,0.1,0
			c0.1,0,0.2,0,0.4-0.1c0.2-0.1,0.3-0.3,0.5-0.5c0.1-0.1,0.1-0.2,0.2-0.3c0,0,0,0,0,0c0.2-0.2,0.3-0.5,0.5-0.8
			c0.3,0.3,0.5,0.6,0.8,0.9c0,0,0.1,0.1,0.1,0.1c0.2,0.2,0.5,0.5,0.7,0.5c0,0,0.1,0,0.1,0c0.4-0.1,0.3-0.7,0.2-1l0,0
			c-0.1-0.5-0.3-0.9-0.6-1.4c0.4-0.1,0.8-0.2,1.1-0.3c0,0,0.1,0,0.1,0c0.3-0.1,0.7-0.2,0.8-0.5C33.1,46.9,32.6,46.7,32.3,46.6z
			 M29.1,48.1c-0.2-0.2-0.3-0.4-0.5-0.7c0.1-0.3,0.2-0.5,0.4-0.8l0,0c0.3,0,0.5,0,0.8-0.1c0.2,0.2,0.3,0.5,0.5,0.7
			c-0.1,0.2-0.2,0.5-0.3,0.7C29.7,48.1,29.4,48.1,29.1,48.1z M29.8,48.3c-0.1,0.2-0.2,0.3-0.3,0.5c-0.1-0.1-0.2-0.3-0.3-0.4
			C29.4,48.3,29.6,48.3,29.8,48.3z M28.9,48.1c-0.2,0-0.4,0-0.5,0c0.1-0.2,0.1-0.3,0.2-0.5C28.7,47.8,28.8,48,28.9,48.1z M28.5,47.3
			c-0.1-0.2-0.2-0.3-0.3-0.5c0.2,0,0.4,0,0.6-0.1C28.7,46.9,28.6,47.1,28.5,47.3z M29.1,46.5c0.1-0.2,0.2-0.3,0.2-0.4
			c0.1,0.1,0.2,0.3,0.3,0.4C29.5,46.5,29.3,46.5,29.1,46.5z M30.4,47.5c0.1,0.1,0.2,0.3,0.3,0.4c-0.2,0-0.3,0.1-0.5,0.1
			C30.2,47.9,30.3,47.7,30.4,47.5z M30.4,47.1c-0.1-0.2-0.2-0.3-0.3-0.5c0.2,0,0.3,0,0.5,0C30.5,46.8,30.4,47,30.4,47.1z M30.3,44.8
			L30.3,44.8c0.2-0.2,0.4-0.4,0.6-0.4c0,0,0.1,0,0.1,0c0.1,0.1,0,0.5-0.1,0.7c0,0.1,0,0.1,0,0.2c-0.1,0.4-0.2,0.8-0.3,1.1
			c-0.2,0-0.5,0-0.7,0c-0.1-0.2-0.3-0.4-0.4-0.6C29.7,45.5,30,45.1,30.3,44.8z M27.7,45.8C27.7,45.8,27.7,45.8,27.7,45.8
			c0-0.1-0.1-0.2-0.1-0.3c-0.1-0.2-0.2-0.4-0.2-0.6c0-0.1,0-0.3,0.1-0.3c0.1-0.1,0.2-0.1,0.3-0.1c0,0,0,0,0,0c0.2,0,0.4,0.2,0.5,0.3
			c0.3,0.3,0.6,0.7,0.9,1c-0.1,0.2-0.2,0.4-0.3,0.6c-0.3,0-0.5,0.1-0.8,0.1C28,46.4,27.9,46.1,27.7,45.8z M27.2,48.1
			c-0.1,0-0.2,0-0.3,0c-0.2,0-0.4,0-0.6-0.1c-0.1-0.1-0.2-0.2-0.2-0.3c0-0.1,0-0.2,0.1-0.3c0.1-0.2,0.3-0.2,0.5-0.3
			c0.4-0.1,0.9-0.2,1.3-0.2c0.1,0.2,0.3,0.4,0.4,0.7c-0.1,0.2-0.2,0.4-0.3,0.7C27.8,48.1,27.5,48.1,27.2,48.1z M28.9,49.7
			c-0.1,0.1-0.1,0.2-0.2,0.3c-0.1,0.2-0.2,0.3-0.4,0.4c-0.1,0.1-0.3,0.1-0.4,0.1c-0.1,0-0.2-0.1-0.3-0.2c-0.1-0.2,0-0.4,0-0.6
			c0.1-0.4,0.3-0.9,0.5-1.3c0,0,0,0,0.1,0c0.2,0,0.5,0,0.7,0c0.1,0.2,0.3,0.4,0.5,0.6C29.3,49.2,29.1,49.4,28.9,49.7z M31.3,49.5
			L31.3,49.5c0.1,0.3,0.2,0.7-0.1,0.8c-0.2,0.1-0.5-0.3-0.6-0.4c0,0-0.1-0.1-0.1-0.1c-0.3-0.3-0.6-0.6-0.8-0.9
			c0.1-0.2,0.2-0.4,0.4-0.6c0.2,0,0.5-0.1,0.7-0.1C31,48.6,31.2,49,31.3,49.5z M32.9,47.3c0,0.2-0.4,0.3-0.7,0.3c-0.1,0-0.1,0-0.2,0
			c-0.4,0.1-0.8,0.2-1.2,0.3c-0.1-0.2-0.2-0.4-0.4-0.6l0,0c0.1-0.2,0.2-0.5,0.3-0.7c0.5,0,1,0,1.4,0.2l0,0
			C32.5,46.9,32.9,47,32.9,47.3z"/>
		<path class="st2" d="M29.6,47.2c-0.1-0.1-0.3-0.1-0.4,0.1c-0.1,0.1-0.1,0.3,0.1,0.4c0.1,0.1,0.3,0.1,0.4-0.1
			C29.8,47.5,29.7,47.3,29.6,47.2z"/>
	</g>
</g>
<g>
	<g>
		<path class="st14" d="M47.4,23.1c-0.9,1.3-5.1,7.2-6.4,9.1c-0.2,0.3,0,0.7,0.3,0.7l18.8,3.4c0.2,0,0.4-0.2,0.2-0.4L47.9,23.1
			C47.7,23,47.5,23,47.4,23.1z M43.8,31.7c0,0,4.1-5.8,4.1-5.9l8.2,8.1L43.8,31.7z"/>
	</g>
	<g>
		<path class="st15" d="M55,32.8l1.1,1.1L55,33.7c0,0.6,0.1,1.2,0.2,1.7l4.9,0.9c0.2,0,0.4-0.2,0.2-0.4l-5-5.1
			C55.2,31.5,55.1,32.1,55,32.8z"/>
		<path class="st16" d="M49.1,32.6l-5.3-1c0,0,4.1-5.8,4.1-5.9l0.8,0.8c0.1-0.4,0.2-0.9,0.4-1.3c0.1-0.2,0.2-0.4,0.3-0.6l-1.6-1.6
			c-0.1-0.1-0.3-0.1-0.4,0c-0.9,1.3-5.1,7.2-6.4,9.1c-0.2,0.3,0,0.7,0.3,0.7l8.4,1.5C49.5,33.9,49.2,33.2,49.1,32.6z"/>
	</g>
	<path class="st2" d="M47.7,24.2C47.7,24.2,47.7,24.2,47.7,24.2C47.7,24.2,47.7,24.2,47.7,24.2l0.5-0.7c0,0,0,0,0.1,0c0,0,0,0,0,0.1
		L47.7,24.2C47.8,24.2,47.8,24.2,47.7,24.2z"/>
	<path class="st2" d="M48.2,24.7C48.2,24.7,48.2,24.7,48.2,24.7C48.2,24.7,48.2,24.7,48.2,24.7l0.5-0.7c0,0,0,0,0.1,0c0,0,0,0,0,0.1
		L48.2,24.7C48.3,24.7,48.2,24.7,48.2,24.7z"/>
	<path class="st2" d="M48.8,25.2C48.8,25.2,48.7,25.2,48.8,25.2C48.7,25.2,48.7,25.2,48.8,25.2l0.5-0.7c0,0,0,0,0.1,0c0,0,0,0,0,0.1
		L48.8,25.2C48.8,25.2,48.8,25.2,48.8,25.2z"/>
	<path class="st2" d="M49.3,25.8C49.2,25.8,49.2,25.8,49.3,25.8C49.2,25.7,49.2,25.7,49.3,25.8l0.5-0.7c0,0,0,0,0.1,0c0,0,0,0,0,0.1
		L49.3,25.8C49.3,25.8,49.3,25.8,49.3,25.8z"/>
	<path class="st2" d="M49.7,26.3C49.7,26.3,49.7,26.3,49.7,26.3C49.7,26.2,49.7,26.2,49.7,26.3l0.5-0.7c0,0,0,0,0.1,0c0,0,0,0,0,0.1
		L49.7,26.3C49.8,26.3,49.7,26.3,49.7,26.3z"/>
	<path class="st2" d="M50.2,26.8C50.2,26.8,50.2,26.8,50.2,26.8C50.2,26.7,50.2,26.7,50.2,26.8l0.5-0.7c0,0,0,0,0.1,0c0,0,0,0,0,0.1
		L50.2,26.8C50.2,26.8,50.2,26.8,50.2,26.8z"/>
	<path class="st2" d="M50.7,27.3C50.7,27.3,50.7,27.3,50.7,27.3C50.7,27.3,50.7,27.2,50.7,27.3l0.5-0.7c0,0,0,0,0.1,0c0,0,0,0,0,0.1
		L50.7,27.3C50.8,27.3,50.8,27.3,50.7,27.3z"/>
	<path class="st2" d="M51.2,27.8C51.2,27.8,51.2,27.8,51.2,27.8C51.2,27.8,51.2,27.8,51.2,27.8l0.5-0.7c0,0,0,0,0.1,0c0,0,0,0,0,0.1
		L51.2,27.8C51.3,27.8,51.2,27.8,51.2,27.8z"/>
	<path class="st2" d="M51.8,28.3C51.7,28.3,51.7,28.3,51.8,28.3C51.7,28.3,51.7,28.2,51.8,28.3l0.5-0.7c0,0,0,0,0.1,0c0,0,0,0,0,0.1
		L51.8,28.3C51.8,28.3,51.8,28.3,51.8,28.3z"/>
	<path class="st2" d="M52.2,28.8C52.2,28.8,52.2,28.8,52.2,28.8C52.2,28.8,52.2,28.8,52.2,28.8l0.5-0.7c0,0,0,0,0.1,0c0,0,0,0,0,0.1
		L52.2,28.8C52.3,28.8,52.3,28.8,52.2,28.8z"/>
	<path class="st2" d="M52.8,29.3C52.8,29.3,52.8,29.3,52.8,29.3C52.7,29.3,52.7,29.3,52.8,29.3l0.5-0.7c0,0,0,0,0.1,0c0,0,0,0,0,0.1
		L52.8,29.3C52.8,29.3,52.8,29.3,52.8,29.3z"/>
	<path class="st2" d="M53.3,29.9C53.3,29.9,53.2,29.8,53.3,29.9C53.2,29.8,53.2,29.8,53.3,29.9l0.5-0.7c0,0,0,0,0.1,0c0,0,0,0,0,0.1
		L53.3,29.9C53.3,29.8,53.3,29.9,53.3,29.9z"/>
	<path class="st2" d="M53.7,30.3C53.7,30.3,53.7,30.3,53.7,30.3C53.7,30.3,53.7,30.3,53.7,30.3l0.5-0.7c0,0,0,0,0.1,0c0,0,0,0,0,0.1
		L53.7,30.3C53.8,30.3,53.7,30.3,53.7,30.3z"/>
	<path class="st2" d="M54.2,30.9C54.2,30.9,54.2,30.9,54.2,30.9C54.2,30.8,54.2,30.8,54.2,30.9l0.5-0.7c0,0,0,0,0.1,0c0,0,0,0,0,0.1
		L54.2,30.9C54.2,30.9,54.2,30.9,54.2,30.9z"/>
	<path class="st2" d="M54.8,31.4C54.7,31.4,54.7,31.4,54.8,31.4C54.7,31.4,54.7,31.3,54.8,31.4l0.5-0.7c0,0,0,0,0.1,0c0,0,0,0,0,0.1
		L54.8,31.4C54.8,31.4,54.8,31.4,54.8,31.4z"/>
	<path class="st2" d="M55.2,31.9C55.2,31.9,55.2,31.9,55.2,31.9C55.2,31.9,55.2,31.9,55.2,31.9l0.5-0.7c0,0,0,0,0.1,0c0,0,0,0,0,0.1
		L55.2,31.9C55.3,31.9,55.3,31.9,55.2,31.9z"/>
	<path class="st2" d="M55.7,32.4C55.7,32.4,55.7,32.3,55.7,32.4C55.7,32.3,55.7,32.3,55.7,32.4l0.5-0.7c0,0,0,0,0.1,0c0,0,0,0,0,0.1
		L55.7,32.4C55.7,32.3,55.7,32.4,55.7,32.4z"/>
	<path class="st2" d="M56.2,32.9C56.2,32.9,56.2,32.9,56.2,32.9C56.1,32.8,56.1,32.8,56.2,32.9l0.5-0.7c0,0,0,0,0.1,0c0,0,0,0,0,0.1
		L56.2,32.9C56.2,32.9,56.2,32.9,56.2,32.9z"/>
	<path class="st2" d="M56.7,33.4C56.7,33.4,56.7,33.4,56.7,33.4C56.7,33.4,56.7,33.3,56.7,33.4l0.5-0.7c0,0,0,0,0.1,0c0,0,0,0,0,0.1
		L56.7,33.4C56.7,33.4,56.7,33.4,56.7,33.4z"/>
	<path class="st2" d="M57.2,33.9C57.2,33.9,57.2,33.9,57.2,33.9C57.2,33.9,57.2,33.9,57.2,33.9l0.5-0.7c0,0,0,0,0.1,0c0,0,0,0,0,0.1
		L57.2,33.9C57.2,33.9,57.2,33.9,57.2,33.9z"/>
	<path class="st2" d="M57.7,34.4C57.7,34.4,57.7,34.4,57.7,34.4C57.6,34.4,57.6,34.4,57.7,34.4l0.5-0.7c0,0,0,0,0.1,0c0,0,0,0,0,0.1
		L57.7,34.4C57.7,34.4,57.7,34.4,57.7,34.4z"/>
	<path class="st2" d="M58.2,34.9C58.2,34.9,58.1,34.9,58.2,34.9C58.1,34.9,58.1,34.9,58.2,34.9l0.5-0.7c0,0,0,0,0.1,0c0,0,0,0,0,0.1
		L58.2,34.9C58.2,34.9,58.2,34.9,58.2,34.9z"/>
	<path class="st2" d="M58.7,35.4C58.7,35.4,58.7,35.4,58.7,35.4C58.7,35.4,58.7,35.4,58.7,35.4l0.5-0.7c0,0,0,0,0.1,0c0,0,0,0,0,0.1
		L58.7,35.4C58.7,35.4,58.7,35.4,58.7,35.4z"/>
	<path class="st2" d="M59.2,36C59.2,36,59.2,36,59.2,36C59.1,35.9,59.1,35.9,59.2,36l0.5-0.7c0,0,0,0,0.1,0c0,0,0,0,0,0.1L59.2,36
		C59.2,36,59.2,36,59.2,36z"/>
</g>
<g>
	<path class="st17" d="M73.4,58.7c1.1-0.6,2.2-1.2,3.2-1.8c0.5-0.3,1-0.6,1.6-0.9c0.2-0.1,0.5-0.3,0.7-0.4c0.1-0.1,0.2-0.1,0.3-0.2
		c0.1-0.1,0.2-0.1,0.3-0.2c0.1-0.1,0.1-0.2,0.1-0.4c0-0.1,0.1-0.3,0.1-0.4c0-0.1,0.2-0.9,0.2-0.9c-0.2,0-0.5-0.1-0.7-0.1
		c-0.2,0-0.4,0-0.6,0c-0.4,0-0.7,0.1-1,0.1c-1.4,0.1-2.7-0.2-4-0.7c-0.3-0.2-0.7-0.3-1-0.5c-1-0.6-1.9-1.3-2.8-2.1
		c-0.9-0.8-1.6-1.8-2.3-2.8c-0.3-0.5-0.7-1-1-1.5c-0.2-0.2-0.4-0.5-0.5-0.7c-0.1-0.2-0.4-0.4-0.5-0.6c-0.2-0.2-0.4-0.4-0.6-0.6
		c-0.1-0.1-0.2-0.3-0.4-0.4c-0.2,0.2-0.2,0.4-0.2,0.7c-0.1,0.3-0.1,0.5-0.1,0.8c0,0.2,0.1,0.4,0.2,0.5c0.1,0.2,0.2,0.4,0.3,0.6
		c0.1,0.3,0.2,0.5,0.3,0.8c0.3,0.6,0.5,1.2,0.8,1.8c0.5,1.2,1.1,2.4,1.6,3.6c0.5,1.1,1,2.3,1.5,3.4c0.6,1.3,1.2,2.6,1.8,3.8
		c0,0.1,0.1,0.2,0.2,0.3c0.2,0.1,0.3,0,0.5,0c0.3-0.1,0.5-0.2,0.8-0.4C72.4,59.2,72.9,59,73.4,58.7z"/>
	<path class="st18" d="M71.1,39.8c-0.3,0.1-0.5,0.3-0.8,0.5c-0.3,0.2-0.6,0.3-0.9,0.5c-1,0.6-2.1,1.2-3.1,1.8
		c-0.3,0.2-0.7,0.4-1,0.6c-0.3,0.2-0.6,0.3-0.9,0.6c-0.1,0.1,0,0.2,0,0.3c0.1,0.3,0.3,0.5,0.4,0.8c0.1,0.3,0.2,0.5,0.3,0.8
		c0.3,0.6,0.5,1.2,0.8,1.8c0.5,1.2,1.1,2.4,1.6,3.6c0.5,1.1,1,2.3,1.5,3.4c0.3,0.8,0.7,1.5,1,2.2c0.2,0.4,0.3,0.8,0.5,1.1
		c0.1,0.2,0.3,0.9,0.6,1c0.1,0,0.1,0,0.2-0.1c0.8-0.5,1.6-0.9,2.4-1.3c1.1-0.6,2.2-1.2,3.2-1.8c0.5-0.3,1-0.6,1.6-0.9
		c0.5-0.3,1-0.5,1.4-0.9c0,0,0,0,0-0.1c0,0,0-0.1,0-0.1c-0.2-0.5-0.4-1-0.6-1.4c-0.2-0.5-0.4-1-0.7-1.4c-0.4-1-0.9-1.9-1.3-2.9
		c-0.9-1.9-1.7-3.8-2.6-5.7c-0.5-1-0.9-2-1.5-3c0-0.1-0.1-0.1-0.1-0.1c-0.1,0-0.3,0.1-0.4,0.2c-0.2,0.1-0.4,0.2-0.6,0.3
		C71.8,39.5,71.4,39.6,71.1,39.8z"/>
	<path class="st19" d="M68.5,44.5c1.9,1.8,4.3,3.2,6.9,3.8c0.8,0.2,1.6,0.3,2.4,0.3c-0.1-0.3-0.3-0.7-0.4-1
		c-0.9-1.9-1.7-3.8-2.6-5.7c-0.5-1-0.9-2-1.5-3c0-0.1-0.1-0.1-0.1-0.1c-0.1,0-0.3,0.1-0.4,0.2c-0.2,0.1-0.4,0.2-0.6,0.3
		c-0.4,0.2-0.7,0.4-1.1,0.5c-0.3,0.1-0.5,0.3-0.8,0.5c-0.3,0.2-0.6,0.3-0.9,0.5c-0.9,0.5-1.8,1-2.8,1.6
		C67.2,43.1,67.8,43.9,68.5,44.5z"/>
	<path class="st20" d="M71.2,53.8c-1.1-0.4-2.2-1-3.2-1.7c0.3,0.8,0.7,1.5,1,2.3c0.3,0.8,0.7,1.5,1,2.2c0.2,0.4,0.3,0.8,0.5,1.1
		c0.1,0.2,0.3,0.9,0.6,1c0.1,0,0.1,0,0.2-0.1c0.8-0.5,1.6-0.9,2.4-1.3c1.1-0.6,2.2-1.2,3.2-1.8c0.4-0.2,0.7-0.4,1.1-0.7
		C75.7,54.9,73.4,54.6,71.2,53.8z"/>
	<g>
		<path class="st21" d="M69.4,49.7c0,0-0.1,0-0.1,0.1c0,0-0.1,0-0.1,0.1c-0.2,0.1-0.3,0.2-0.5,0.3c-0.1,0-0.1,0.1-0.2,0.1
			c0,0-0.1,0-0.1,0.1c0,0,0,0,0,0c0,0,0,0.1,0,0.1c0,0,0,0,0,0.1c0,0.1,0.1,0.1,0.1,0.2c0.1,0.1,0.1,0.2,0.2,0.3
			c0,0.1,0.1,0.2,0.2,0.3c0,0.1,0.1,0.1,0.1,0.2c0,0,0,0.1,0.1,0.1c0,0,0,0.1,0.1,0.1c0,0,0,0,0,0c0.1-0.1,0.3-0.1,0.4-0.2
			c0.2-0.1,0.3-0.2,0.5-0.3c0.1,0,0.2-0.1,0.2-0.1c0.1,0,0.2-0.1,0.2-0.1c0,0,0,0,0,0c0,0,0,0,0,0c0,0,0-0.1-0.1-0.1
			c0,0,0-0.1-0.1-0.1c0-0.1-0.1-0.2-0.1-0.3c-0.1-0.2-0.2-0.4-0.3-0.5c0-0.1-0.1-0.2-0.2-0.3c0,0,0,0,0,0c0,0-0.1,0-0.1,0
			c0,0-0.1,0-0.1,0C69.5,49.6,69.5,49.6,69.4,49.7z"/>
		<path class="st21" d="M71.4,48.5c0,0-0.1,0-0.1,0.1c0,0-0.1,0-0.1,0.1c-0.2,0.1-0.3,0.2-0.5,0.3c-0.1,0-0.1,0.1-0.2,0.1
			c0,0-0.1,0-0.1,0.1c0,0,0,0,0,0c0,0,0,0.1,0,0.1c0,0,0,0,0,0.1c0,0.1,0.1,0.1,0.1,0.2c0.1,0.1,0.1,0.2,0.2,0.3
			c0,0.1,0.1,0.2,0.2,0.3c0,0.1,0.1,0.1,0.1,0.2c0,0,0,0.1,0.1,0.1c0,0,0,0.1,0.1,0.1c0,0,0,0,0,0c0.1-0.1,0.3-0.1,0.4-0.2
			c0.2-0.1,0.3-0.2,0.5-0.3c0.1,0,0.2-0.1,0.2-0.1c0.1,0,0.2-0.1,0.2-0.1c0,0,0,0,0,0c0,0,0,0,0,0c0,0,0-0.1-0.1-0.1
			c0,0,0-0.1-0.1-0.1c0-0.1-0.1-0.2-0.1-0.3c-0.1-0.2-0.2-0.4-0.3-0.5c0-0.1-0.1-0.2-0.2-0.3c0,0,0,0,0,0c0,0-0.1,0-0.1,0
			c0,0-0.1,0-0.1,0C71.5,48.5,71.4,48.5,71.4,48.5z"/>
		<path class="st21" d="M73.4,47.4c0,0-0.1,0-0.1,0.1c0,0-0.1,0-0.1,0.1c-0.2,0.1-0.3,0.2-0.5,0.3c-0.1,0-0.1,0.1-0.2,0.1
			c0,0-0.1,0-0.1,0.1c0,0,0,0,0,0c0,0,0,0.1,0,0.1c0,0,0,0,0,0.1c0,0.1,0.1,0.1,0.1,0.2c0.1,0.1,0.1,0.2,0.2,0.3
			c0,0.1,0.1,0.2,0.2,0.3c0,0.1,0.1,0.1,0.1,0.2c0,0,0,0.1,0.1,0.1c0,0,0,0.1,0.1,0.1c0,0,0,0,0,0c0.1-0.1,0.3-0.1,0.4-0.2
			c0.2-0.1,0.3-0.2,0.5-0.3c0.1,0,0.2-0.1,0.2-0.1c0.1,0,0.2-0.1,0.2-0.1c0,0,0,0,0,0c0,0,0,0,0,0c0,0,0-0.1-0.1-0.1
			c0,0,0-0.1-0.1-0.1c0-0.1-0.1-0.2-0.1-0.3c-0.1-0.2-0.2-0.4-0.3-0.5c0-0.1-0.1-0.2-0.2-0.3c0,0,0,0,0,0c0,0-0.1,0-0.1,0
			c0,0-0.1,0-0.1,0C73.5,47.3,73.4,47.3,73.4,47.4z"/>
		<path class="st21" d="M75.3,46.2c0,0-0.1,0-0.1,0.1c0,0-0.1,0-0.1,0.1c-0.2,0.1-0.3,0.2-0.5,0.3c-0.1,0-0.1,0.1-0.2,0.1
			c0,0-0.1,0-0.1,0.1c0,0,0,0,0,0c0,0,0,0.1,0,0.1c0,0,0,0,0,0.1c0,0.1,0.1,0.1,0.1,0.2c0.1,0.1,0.1,0.2,0.2,0.3
			c0,0.1,0.1,0.2,0.2,0.3c0,0.1,0.1,0.1,0.1,0.2c0,0,0,0.1,0.1,0.1c0,0,0,0.1,0.1,0.1c0,0,0,0,0,0c0.1-0.1,0.3-0.1,0.4-0.2
			c0.2-0.1,0.3-0.2,0.5-0.3c0.1,0,0.2-0.1,0.2-0.1c0.1,0,0.2-0.1,0.2-0.1c0,0,0,0,0,0c0,0,0,0,0,0c0,0,0-0.1-0.1-0.1
			c0,0,0-0.1-0.1-0.1c0-0.1-0.1-0.2-0.1-0.3c-0.1-0.2-0.2-0.4-0.3-0.5c0-0.1-0.1-0.2-0.2-0.3c0,0,0,0,0,0c0,0-0.1,0-0.1,0
			c0,0-0.1,0-0.1,0C75.4,46.2,75.3,46.2,75.3,46.2z"/>
		<path class="st21" d="M70.2,51.6c0,0-0.1,0-0.1,0.1c0,0-0.1,0-0.1,0.1c-0.2,0.1-0.3,0.2-0.5,0.3c-0.1,0-0.1,0.1-0.2,0.1
			c0,0-0.1,0-0.1,0.1c0,0,0,0,0,0c0,0,0,0.1,0,0.1c0,0,0,0,0,0.1c0,0.1,0.1,0.1,0.1,0.2c0.1,0.1,0.1,0.2,0.2,0.3
			c0,0.1,0.1,0.2,0.2,0.3c0,0.1,0.1,0.1,0.1,0.2c0,0,0,0.1,0.1,0.1c0,0,0,0.1,0.1,0.1c0,0,0,0,0,0c0.1-0.1,0.3-0.1,0.4-0.2
			c0.2-0.1,0.3-0.2,0.5-0.3c0.1,0,0.2-0.1,0.2-0.1c0.1,0,0.2-0.1,0.2-0.1c0,0,0,0,0,0c0,0,0,0,0,0c0,0,0-0.1-0.1-0.1
			c0,0,0-0.1-0.1-0.1c0-0.1-0.1-0.2-0.1-0.3c-0.1-0.2-0.2-0.4-0.3-0.5c0-0.1-0.1-0.2-0.2-0.3c0,0,0,0,0,0c0,0-0.1,0-0.1,0
			c0,0-0.1,0-0.1,0C70.3,51.5,70.2,51.6,70.2,51.6z"/>
		<path class="st21" d="M72.2,50.4c0,0-0.1,0-0.1,0.1c0,0-0.1,0-0.1,0.1c-0.2,0.1-0.3,0.2-0.5,0.3c-0.1,0-0.1,0.1-0.2,0.1
			c0,0-0.1,0-0.1,0.1c0,0,0,0,0,0c0,0,0,0.1,0,0.1c0,0,0,0,0,0.1c0,0.1,0.1,0.1,0.1,0.2c0.1,0.1,0.1,0.2,0.2,0.3
			c0,0.1,0.1,0.2,0.2,0.3c0,0.1,0.1,0.1,0.1,0.2c0,0,0,0.1,0.1,0.1c0,0,0,0.1,0.1,0.1c0,0,0,0,0,0c0.1-0.1,0.3-0.1,0.4-0.2
			c0.2-0.1,0.3-0.2,0.5-0.3c0.1,0,0.2-0.1,0.2-0.1c0.1,0,0.2-0.1,0.2-0.1c0,0,0,0,0,0c0,0,0,0,0,0c0,0,0-0.1-0.1-0.1
			c0,0,0-0.1-0.1-0.1c0-0.1-0.1-0.2-0.1-0.3c-0.1-0.2-0.2-0.4-0.3-0.5c0-0.1-0.1-0.2-0.2-0.3c0,0,0,0,0,0c0,0-0.1,0-0.1,0
			c0,0-0.1,0-0.1,0C72.3,50.4,72.2,50.4,72.2,50.4z"/>
		<path class="st21" d="M74.1,49.3c0,0-0.1,0-0.1,0.1c0,0-0.1,0-0.1,0.1c-0.2,0.1-0.3,0.2-0.5,0.3c-0.1,0-0.1,0.1-0.2,0.1
			c0,0-0.1,0-0.1,0.1c0,0,0,0,0,0c0,0,0,0.1,0,0.1c0,0,0,0,0,0.1c0,0.1,0.1,0.1,0.1,0.2c0.1,0.1,0.1,0.2,0.2,0.3
			c0,0.1,0.1,0.2,0.2,0.3c0,0.1,0.1,0.1,0.1,0.2c0,0,0,0.1,0.1,0.1c0,0,0,0.1,0.1,0.1c0,0,0,0,0,0c0.1-0.1,0.3-0.1,0.4-0.2
			c0.2-0.1,0.3-0.2,0.5-0.3c0.1,0,0.2-0.1,0.2-0.1c0.1,0,0.2-0.1,0.2-0.1c0,0,0,0,0,0c0,0,0,0,0,0c0,0,0-0.1-0.1-0.1
			c0,0,0-0.1-0.1-0.1c0-0.1-0.1-0.2-0.1-0.3c-0.1-0.2-0.2-0.4-0.3-0.5c0-0.1-0.1-0.2-0.2-0.3c0,0,0,0,0,0c0,0-0.1,0-0.1,0
			c0,0-0.1,0-0.1,0C74.2,49.2,74.2,49.3,74.1,49.3z"/>
		<path class="st21" d="M76,48.2c0,0-0.1,0-0.1,0.1c0,0-0.1,0-0.1,0.1c-0.2,0.1-0.3,0.2-0.5,0.3c-0.1,0-0.1,0.1-0.2,0.1
			c0,0-0.1,0-0.1,0.1c0,0,0,0,0,0c0,0,0,0.1,0,0.1c0,0,0,0,0,0.1c0,0.1,0.1,0.1,0.1,0.2c0.1,0.1,0.1,0.2,0.2,0.3
			c0,0.1,0.1,0.2,0.2,0.3c0,0.1,0.1,0.1,0.1,0.2c0,0,0,0.1,0.1,0.1c0,0,0,0.1,0.1,0.1c0,0,0,0,0,0c0.1-0.1,0.3-0.1,0.4-0.2
			c0.2-0.1,0.3-0.2,0.5-0.3c0.1,0,0.2-0.1,0.2-0.1c0.1,0,0.2-0.1,0.2-0.1c0,0,0,0,0,0c0,0,0,0,0,0c0,0,0-0.1-0.1-0.1
			c0,0,0-0.1-0.1-0.1c0-0.1-0.1-0.2-0.1-0.3c-0.1-0.2-0.2-0.4-0.3-0.5c0-0.1-0.1-0.2-0.2-0.3c0,0,0,0,0,0c0,0-0.1,0-0.1,0
			c0,0-0.1,0-0.1,0C76.1,48.1,76.1,48.1,76,48.2z"/>
		<path class="st21" d="M71.1,53.4c0,0-0.1,0-0.1,0.1c0,0-0.1,0-0.1,0.1c-0.2,0.1-0.3,0.2-0.5,0.3c-0.1,0-0.1,0.1-0.2,0.1
			c0,0-0.1,0-0.1,0.1c0,0,0,0,0,0c0,0,0,0.1,0,0.1c0,0,0,0,0,0.1c0,0.1,0.1,0.1,0.1,0.2c0.1,0.1,0.1,0.2,0.2,0.3
			c0,0.1,0.1,0.2,0.2,0.3c0,0.1,0.1,0.1,0.1,0.2c0,0,0,0.1,0.1,0.1c0,0,0,0.1,0.1,0.1c0,0,0,0,0,0c0.1-0.1,0.3-0.1,0.4-0.2
			c0.2-0.1,0.3-0.2,0.5-0.3c0.1,0,0.2-0.1,0.2-0.1c0.1,0,0.2-0.1,0.2-0.1c0,0,0,0,0,0c0,0,0,0,0,0c0,0,0-0.1-0.1-0.1
			c0,0,0-0.1-0.1-0.1c0-0.1-0.1-0.2-0.1-0.3c-0.1-0.2-0.2-0.4-0.3-0.5c0-0.1-0.1-0.2-0.2-0.3c0,0,0,0,0,0c0,0-0.1,0-0.1,0
			c0,0-0.1,0-0.1,0C71.2,53.4,71.2,53.4,71.1,53.4z"/>
		<path class="st21" d="M73.1,52.3c0,0-0.1,0-0.1,0.1c0,0-0.1,0-0.1,0.1c-0.2,0.1-0.3,0.2-0.5,0.3c-0.1,0-0.1,0.1-0.2,0.1
			c0,0-0.1,0-0.1,0.1c0,0,0,0,0,0c0,0,0,0.1,0,0.1c0,0,0,0,0,0.1c0,0.1,0.1,0.1,0.1,0.2c0.1,0.1,0.1,0.2,0.2,0.3
			c0,0.1,0.1,0.2,0.2,0.3c0,0.1,0.1,0.1,0.1,0.2c0,0,0,0.1,0.1,0.1c0,0,0,0.1,0.1,0.1c0,0,0,0,0,0c0.1-0.1,0.3-0.1,0.4-0.2
			c0.2-0.1,0.3-0.2,0.5-0.3c0.1,0,0.2-0.1,0.2-0.1c0.1,0,0.2-0.1,0.2-0.1c0,0,0,0,0,0c0,0,0,0,0,0c0,0,0-0.1-0.1-0.1
			c0,0,0-0.1-0.1-0.1c0-0.1-0.1-0.2-0.1-0.3c-0.1-0.2-0.2-0.4-0.3-0.5c0-0.1-0.1-0.2-0.2-0.3c0,0,0,0,0,0c0,0-0.1,0-0.1,0
			c0,0-0.1,0-0.1,0C73.2,52.2,73.2,52.3,73.1,52.3z"/>
		<path class="st21" d="M75.1,51.1c0,0-0.1,0-0.1,0.1c0,0-0.1,0-0.1,0.1c-0.2,0.1-0.3,0.2-0.5,0.3c-0.1,0-0.1,0.1-0.2,0.1
			c0,0-0.1,0-0.1,0.1c0,0,0,0,0,0c0,0,0,0.1,0,0.1c0,0,0,0,0,0.1c0,0.1,0.1,0.1,0.1,0.2c0.1,0.1,0.1,0.2,0.2,0.3
			c0,0.1,0.1,0.2,0.2,0.3c0,0.1,0.1,0.1,0.1,0.2c0,0,0,0.1,0.1,0.1c0,0,0,0.1,0.1,0.1c0,0,0,0,0,0c0.1-0.1,0.3-0.1,0.4-0.2
			c0.2-0.1,0.3-0.2,0.5-0.3c0.1,0,0.2-0.1,0.2-0.1c0.1,0,0.2-0.1,0.2-0.1c0,0,0,0,0,0c0,0,0,0,0,0c0,0,0-0.1-0.1-0.1
			c0,0,0-0.1-0.1-0.1c0-0.1-0.1-0.2-0.1-0.3c-0.1-0.2-0.2-0.4-0.3-0.5c0-0.1-0.1-0.2-0.2-0.3c0,0,0,0,0,0c0,0-0.1,0-0.1,0
			c0,0-0.1,0-0.1,0C75.2,51.1,75.2,51.1,75.1,51.1z"/>
		<path class="st21" d="M77,50c0,0-0.1,0-0.1,0.1c0,0-0.1,0-0.1,0.1c-0.2,0.1-0.3,0.2-0.5,0.3c-0.1,0-0.1,0.1-0.2,0.1
			c0,0-0.1,0-0.1,0.1c0,0,0,0,0,0c0,0,0,0.1,0,0.1c0,0,0,0,0,0.1c0,0.1,0.1,0.1,0.1,0.2c0.1,0.1,0.1,0.2,0.2,0.3
			c0,0.1,0.1,0.2,0.2,0.3c0,0.1,0.1,0.1,0.1,0.2c0,0,0,0.1,0.1,0.1c0,0,0,0.1,0.1,0.1c0,0,0,0,0,0c0.1-0.1,0.3-0.1,0.4-0.2
			c0.2-0.1,0.3-0.2,0.5-0.3c0.1,0,0.2-0.1,0.2-0.1c0.1,0,0.2-0.1,0.2-0.1c0,0,0,0,0,0c0,0,0,0,0,0c0,0,0-0.1-0.1-0.1
			c0,0,0-0.1-0.1-0.1c0-0.1-0.1-0.2-0.1-0.3c-0.1-0.2-0.2-0.4-0.3-0.5c0-0.1-0.1-0.2-0.2-0.3c0,0,0,0,0,0c0,0-0.1,0-0.1,0
			c0,0-0.1,0-0.1,0C77.1,49.9,77,50,77,50z"/>
		<path class="st21" d="M71.9,55.4c0,0-0.1,0-0.1,0.1c0,0-0.1,0-0.1,0.1c-0.2,0.1-0.3,0.2-0.5,0.3c-0.1,0-0.1,0.1-0.2,0.1
			c0,0-0.1,0-0.1,0.1c0,0,0,0,0,0c0,0,0,0.1,0,0.1c0,0,0,0,0,0.1c0,0.1,0.1,0.1,0.1,0.2c0.1,0.1,0.1,0.2,0.2,0.3
			c0,0.1,0.1,0.2,0.2,0.3c0,0.1,0.1,0.1,0.1,0.2c0,0,0,0.1,0.1,0.1c0,0,0,0.1,0.1,0.1c0,0,0,0,0,0c0.1-0.1,0.3-0.1,0.4-0.2
			c0.2-0.1,0.3-0.2,0.5-0.3c0.1,0,0.2-0.1,0.2-0.1c0.1,0,0.2-0.1,0.2-0.1c0,0,0,0,0,0c0,0,0,0,0,0c0,0,0-0.1-0.1-0.1
			c0,0,0-0.1-0.1-0.1c0-0.1-0.1-0.2-0.1-0.3c-0.1-0.2-0.2-0.4-0.3-0.5c0-0.1-0.1-0.2-0.2-0.3c0,0,0,0,0,0c0,0-0.1,0-0.1,0
			c0,0-0.1,0-0.1,0C72,55.3,71.9,55.3,71.9,55.4z"/>
		<path class="st21" d="M73.9,54.2c0,0-0.1,0-0.1,0.1c0,0-0.1,0-0.1,0.1c-0.2,0.1-0.3,0.2-0.5,0.3c-0.1,0-0.1,0.1-0.2,0.1
			c0,0-0.1,0-0.1,0.1c0,0,0,0,0,0c0,0,0,0.1,0,0.1c0,0,0,0,0,0.1c0,0.1,0.1,0.1,0.1,0.2c0.1,0.1,0.1,0.2,0.2,0.3
			c0,0.1,0.1,0.2,0.2,0.3c0,0.1,0.1,0.1,0.1,0.2c0,0,0,0.1,0.1,0.1c0,0,0,0.1,0.1,0.1c0,0,0,0,0,0c0.1-0.1,0.3-0.1,0.4-0.2
			c0.2-0.1,0.3-0.2,0.5-0.3c0.1,0,0.2-0.1,0.2-0.1c0.1,0,0.2-0.1,0.2-0.1c0,0,0,0,0,0c0,0,0,0,0,0c0,0,0-0.1-0.1-0.1
			c0,0,0-0.1-0.1-0.1c0-0.1-0.1-0.2-0.1-0.3c-0.1-0.2-0.2-0.4-0.3-0.5c0-0.1-0.1-0.2-0.2-0.3c0,0,0,0,0,0c0,0-0.1,0-0.1,0
			c0,0-0.1,0-0.1,0C74,54.2,73.9,54.2,73.9,54.2z"/>
		<path class="st21" d="M75.9,53.1c0,0-0.1,0-0.1,0.1c0,0-0.1,0-0.1,0.1c-0.2,0.1-0.3,0.2-0.5,0.3c-0.1,0-0.1,0.1-0.2,0.1
			c0,0-0.1,0-0.1,0.1c0,0,0,0,0,0c0,0,0,0.1,0,0.1c0,0,0,0,0,0.1c0,0.1,0.1,0.1,0.1,0.2c0.1,0.1,0.1,0.2,0.2,0.3
			c0,0.1,0.1,0.2,0.2,0.3c0,0.1,0.1,0.1,0.1,0.2c0,0,0,0.1,0.1,0.1c0,0,0,0.1,0.1,0.1c0,0,0,0,0,0c0.1-0.1,0.3-0.1,0.4-0.2
			c0.2-0.1,0.3-0.2,0.5-0.3c0.1,0,0.2-0.1,0.2-0.1c0.1,0,0.2-0.1,0.2-0.1c0,0,0,0,0,0c0,0,0,0,0,0c0,0,0-0.1-0.1-0.1
			c0,0,0-0.1-0.1-0.1c0-0.1-0.1-0.2-0.1-0.3c-0.1-0.2-0.2-0.4-0.3-0.5c0-0.1-0.1-0.2-0.2-0.3c0,0,0,0,0,0c0,0-0.1,0-0.1,0
			c0,0-0.1,0-0.1,0C76,53,75.9,53,75.9,53.1z"/>
		<path class="st21" d="M77.9,51.9c0,0-0.1,0-0.1,0.1c0,0-0.1,0-0.1,0.1c-0.2,0.1-0.3,0.2-0.5,0.3c-0.1,0-0.1,0.1-0.2,0.1
			c0,0-0.1,0-0.1,0.1c0,0,0,0,0,0c0,0,0,0.1,0,0.1c0,0,0,0,0,0.1c0,0.1,0.1,0.1,0.1,0.2c0.1,0.1,0.1,0.2,0.2,0.3
			c0,0.1,0.1,0.2,0.2,0.3c0,0.1,0.1,0.1,0.1,0.2c0,0,0,0.1,0.1,0.1c0,0,0,0.1,0.1,0.1c0,0,0,0,0,0c0.1-0.1,0.3-0.1,0.4-0.2
			c0.2-0.1,0.3-0.2,0.5-0.3c0.1,0,0.2-0.1,0.2-0.1c0.1,0,0.2-0.1,0.2-0.1c0,0,0,0,0,0c0,0,0,0,0,0c0,0,0-0.1-0.1-0.1
			c0,0,0-0.1-0.1-0.1c0-0.1-0.1-0.2-0.1-0.3c-0.1-0.2-0.2-0.4-0.3-0.5c0-0.1-0.1-0.2-0.2-0.3c0,0,0,0,0,0c0,0-0.1,0-0.1,0
			c0,0-0.1,0-0.1,0C78,51.8,77.9,51.8,77.9,51.9z"/>
	</g>
	<g>
		<path class="st2" d="M69.4,49.5c0,0-0.1,0-0.1,0.1c0,0-0.1,0-0.1,0.1c-0.2,0.1-0.3,0.2-0.5,0.3c-0.1,0-0.1,0.1-0.2,0.1
			c0,0-0.1,0-0.1,0.1c0,0,0,0,0,0c0,0,0,0.1,0,0.1c0,0,0,0,0,0.1c0,0.1,0.1,0.1,0.1,0.2c0.1,0.1,0.1,0.2,0.2,0.3
			c0,0.1,0.1,0.2,0.2,0.3c0,0.1,0.1,0.1,0.1,0.2c0,0,0,0.1,0.1,0.1c0,0,0,0.1,0.1,0.1c0,0,0,0,0,0c0.1-0.1,0.3-0.1,0.4-0.2
			c0.2-0.1,0.3-0.2,0.5-0.3c0.1,0,0.2-0.1,0.2-0.1c0.1,0,0.2-0.1,0.2-0.1c0,0,0,0,0,0c0,0,0,0,0,0c0,0,0-0.1-0.1-0.1
			c0,0,0-0.1-0.1-0.1c0-0.1-0.1-0.2-0.1-0.3c-0.1-0.2-0.2-0.4-0.3-0.5c0-0.1-0.1-0.2-0.2-0.3c0,0,0,0,0,0c0,0-0.1,0-0.1,0
			c0,0-0.1,0-0.1,0C69.5,49.5,69.5,49.5,69.4,49.5z"/>
		<path class="st2" d="M71.4,48.4c0,0-0.1,0-0.1,0.1c0,0-0.1,0-0.1,0.1c-0.2,0.1-0.3,0.2-0.5,0.3c-0.1,0-0.1,0.1-0.2,0.1
			c0,0-0.1,0-0.1,0.1c0,0,0,0,0,0c0,0,0,0.1,0,0.1c0,0,0,0,0,0.1c0,0.1,0.1,0.1,0.1,0.2c0.1,0.1,0.1,0.2,0.2,0.3
			c0,0.1,0.1,0.2,0.2,0.3c0,0.1,0.1,0.1,0.1,0.2c0,0,0,0.1,0.1,0.1c0,0,0,0.1,0.1,0.1c0,0,0,0,0,0c0.1-0.1,0.3-0.1,0.4-0.2
			c0.2-0.1,0.3-0.2,0.5-0.3c0.1,0,0.2-0.1,0.2-0.1c0.1,0,0.2-0.1,0.2-0.1c0,0,0,0,0,0c0,0,0,0,0,0c0,0,0-0.1-0.1-0.1
			c0,0,0-0.1-0.1-0.1c0-0.1-0.1-0.2-0.1-0.3c-0.1-0.2-0.2-0.4-0.3-0.5c0-0.1-0.1-0.2-0.2-0.3c0,0,0,0,0,0c0,0-0.1,0-0.1,0
			c0,0-0.1,0-0.1,0C71.5,48.3,71.5,48.3,71.4,48.4z"/>
		<path class="st2" d="M73.4,47.2c0,0-0.1,0-0.1,0.1c0,0-0.1,0-0.1,0.1c-0.2,0.1-0.3,0.2-0.5,0.3c-0.1,0-0.1,0.1-0.2,0.1
			c0,0-0.1,0-0.1,0.1c0,0,0,0,0,0c0,0,0,0.1,0,0.1c0,0,0,0,0,0.1c0,0.1,0.1,0.1,0.1,0.2c0.1,0.1,0.1,0.2,0.2,0.3
			c0,0.1,0.1,0.2,0.2,0.3c0,0.1,0.1,0.1,0.1,0.2c0,0,0,0.1,0.1,0.1c0,0,0,0.1,0.1,0.1c0,0,0,0,0,0c0.1-0.1,0.3-0.1,0.4-0.2
			c0.2-0.1,0.3-0.2,0.5-0.3c0.1,0,0.2-0.1,0.2-0.1c0.1,0,0.2-0.1,0.2-0.1c0,0,0,0,0,0c0,0,0,0,0,0c0,0,0-0.1-0.1-0.1
			c0,0,0-0.1-0.1-0.1c0-0.1-0.1-0.2-0.1-0.3c-0.1-0.2-0.2-0.4-0.3-0.5c0-0.1-0.1-0.2-0.2-0.3c0,0,0,0,0,0c0,0-0.1,0-0.1,0
			c0,0-0.1,0-0.1,0C73.5,47.1,73.5,47.2,73.4,47.2z"/>
		<path class="st2" d="M75.3,46.1c0,0-0.1,0-0.1,0.1c0,0-0.1,0-0.1,0.1c-0.2,0.1-0.3,0.2-0.5,0.3c-0.1,0-0.1,0.1-0.2,0.1
			c0,0-0.1,0-0.1,0.1c0,0,0,0,0,0c0,0,0,0.1,0,0.1c0,0,0,0,0,0.1c0,0.1,0.1,0.1,0.1,0.2c0.1,0.1,0.1,0.2,0.2,0.3
			c0,0.1,0.1,0.2,0.2,0.3c0,0.1,0.1,0.1,0.1,0.2c0,0,0,0.1,0.1,0.1c0,0,0,0.1,0.1,0.1c0,0,0,0,0,0c0.1-0.1,0.3-0.1,0.4-0.2
			c0.2-0.1,0.3-0.2,0.5-0.3c0.1,0,0.2-0.1,0.2-0.1c0.1,0,0.2-0.1,0.2-0.1c0,0,0,0,0,0c0,0,0,0,0,0c0,0,0-0.1-0.1-0.1
			c0,0,0-0.1-0.1-0.1c0-0.1-0.1-0.2-0.1-0.3c-0.1-0.2-0.2-0.4-0.3-0.5c0-0.1-0.1-0.2-0.2-0.3c0,0,0,0,0,0c0,0-0.1,0-0.1,0
			c0,0-0.1,0-0.1,0C75.4,46,75.3,46,75.3,46.1z"/>
		<path class="st2" d="M70.2,51.4c0,0-0.1,0-0.1,0.1c0,0-0.1,0-0.1,0.1c-0.2,0.1-0.3,0.2-0.5,0.3c-0.1,0-0.1,0.1-0.2,0.1
			c0,0-0.1,0-0.1,0.1c0,0,0,0,0,0c0,0,0,0.1,0,0.1c0,0,0,0,0,0.1c0,0.1,0.1,0.1,0.1,0.2c0.1,0.1,0.1,0.2,0.2,0.3
			c0,0.1,0.1,0.2,0.2,0.3c0,0.1,0.1,0.1,0.1,0.2c0,0,0,0.1,0.1,0.1c0,0,0,0.1,0.1,0.1c0,0,0,0,0,0c0.1-0.1,0.3-0.1,0.4-0.2
			c0.2-0.1,0.3-0.2,0.5-0.3c0.1,0,0.2-0.1,0.2-0.1c0.1,0,0.2-0.1,0.2-0.1c0,0,0,0,0,0c0,0,0,0,0,0c0,0,0-0.1-0.1-0.1
			c0,0,0-0.1-0.1-0.1c0-0.1-0.1-0.2-0.1-0.3c-0.1-0.2-0.2-0.4-0.3-0.5c0-0.1-0.1-0.2-0.2-0.3c0,0,0,0,0,0c0,0-0.1,0-0.1,0
			c0,0-0.1,0-0.1,0C70.3,51.4,70.2,51.4,70.2,51.4z"/>
		<path class="st2" d="M72.2,50.3c0,0-0.1,0-0.1,0.1c0,0-0.1,0-0.1,0.1c-0.2,0.1-0.3,0.2-0.5,0.3c-0.1,0-0.1,0.1-0.2,0.1
			c0,0-0.1,0-0.1,0.1c0,0,0,0,0,0c0,0,0,0.1,0,0.1c0,0,0,0,0,0.1c0,0.1,0.1,0.1,0.1,0.2c0.1,0.1,0.1,0.2,0.2,0.3
			c0,0.1,0.1,0.2,0.2,0.3c0,0.1,0.1,0.1,0.1,0.2c0,0,0,0.1,0.1,0.1c0,0,0,0.1,0.1,0.1c0,0,0,0,0,0c0.1-0.1,0.3-0.1,0.4-0.2
			c0.2-0.1,0.3-0.2,0.5-0.3c0.1,0,0.2-0.1,0.2-0.1c0.1,0,0.2-0.1,0.2-0.1c0,0,0,0,0,0c0,0,0,0,0,0c0,0,0-0.1-0.1-0.1
			c0,0,0-0.1-0.1-0.1c0-0.1-0.1-0.2-0.1-0.3c-0.1-0.2-0.2-0.4-0.3-0.5c0-0.1-0.1-0.2-0.2-0.3c0,0,0,0,0,0c0,0-0.1,0-0.1,0
			c0,0-0.1,0-0.1,0C72.3,50.2,72.2,50.3,72.2,50.3z"/>
		<path class="st2" d="M74.2,49.1c0,0-0.1,0-0.1,0.1c0,0-0.1,0-0.1,0.1c-0.2,0.1-0.3,0.2-0.5,0.3c-0.1,0-0.1,0.1-0.2,0.1
			c0,0-0.1,0-0.1,0.1c0,0,0,0,0,0c0,0,0,0.1,0,0.1c0,0,0,0,0,0.1c0,0.1,0.1,0.1,0.1,0.2c0.1,0.1,0.1,0.2,0.2,0.3
			c0,0.1,0.1,0.2,0.2,0.3c0,0.1,0.1,0.1,0.1,0.2c0,0,0,0.1,0.1,0.1c0,0,0,0.1,0.1,0.1c0,0,0,0,0,0c0.1-0.1,0.3-0.1,0.4-0.2
			c0.2-0.1,0.3-0.2,0.5-0.3c0.1,0,0.2-0.1,0.2-0.1c0.1,0,0.2-0.1,0.2-0.1c0,0,0,0,0,0c0,0,0,0,0,0c0,0,0-0.1-0.1-0.1
			c0,0,0-0.1-0.1-0.1c0-0.1-0.1-0.2-0.1-0.3c-0.1-0.2-0.2-0.4-0.3-0.5c0-0.1-0.1-0.2-0.2-0.3c0,0,0,0,0,0c0,0-0.1,0-0.1,0
			c0,0-0.1,0-0.1,0C74.3,49.1,74.2,49.1,74.2,49.1z"/>
		<path class="st2" d="M76,48c0,0-0.1,0-0.1,0.1c0,0-0.1,0-0.1,0.1c-0.2,0.1-0.3,0.2-0.5,0.3c-0.1,0-0.1,0.1-0.2,0.1
			c0,0-0.1,0-0.1,0.1c0,0,0,0,0,0c0,0,0,0.1,0,0.1c0,0,0,0,0,0.1c0,0.1,0.1,0.1,0.1,0.2c0.1,0.1,0.1,0.2,0.2,0.3
			c0,0.1,0.1,0.2,0.2,0.3c0,0.1,0.1,0.1,0.1,0.2c0,0,0,0.1,0.1,0.1c0,0,0,0.1,0.1,0.1c0,0,0,0,0,0c0.1-0.1,0.3-0.1,0.4-0.2
			c0.2-0.1,0.3-0.2,0.5-0.3c0.1,0,0.2-0.1,0.2-0.1c0.1,0,0.2-0.1,0.2-0.1c0,0,0,0,0,0c0,0,0,0,0,0c0,0,0-0.1-0.1-0.1
			c0,0,0-0.1-0.1-0.1c0-0.1-0.1-0.2-0.1-0.3c-0.1-0.2-0.2-0.4-0.3-0.5c0-0.1-0.1-0.2-0.2-0.3c0,0,0,0,0,0c0,0-0.1,0-0.1,0
			c0,0-0.1,0-0.1,0C76.2,47.9,76.1,48,76,48z"/>
		<path class="st2" d="M71.1,53.3c0,0-0.1,0-0.1,0.1c0,0-0.1,0-0.1,0.1c-0.2,0.1-0.3,0.2-0.5,0.3c-0.1,0-0.1,0.1-0.2,0.1
			c0,0-0.1,0-0.1,0.1c0,0,0,0,0,0c0,0,0,0.1,0,0.1c0,0,0,0,0,0.1c0,0.1,0.1,0.1,0.1,0.2c0.1,0.1,0.1,0.2,0.2,0.3
			c0,0.1,0.1,0.2,0.2,0.3c0,0.1,0.1,0.1,0.1,0.2c0,0,0,0.1,0.1,0.1c0,0,0,0.1,0.1,0.1c0,0,0,0,0,0c0.1-0.1,0.3-0.1,0.4-0.2
			c0.2-0.1,0.3-0.2,0.5-0.3c0.1,0,0.2-0.1,0.2-0.1c0.1,0,0.2-0.1,0.2-0.1c0,0,0,0,0,0c0,0,0,0,0,0c0,0,0-0.1-0.1-0.1
			c0,0,0-0.1-0.1-0.1c0-0.1-0.1-0.2-0.1-0.3c-0.1-0.2-0.2-0.4-0.3-0.5c0-0.1-0.1-0.2-0.2-0.3c0,0,0,0,0,0c0,0-0.1,0-0.1,0
			c0,0-0.1,0-0.1,0C71.3,53.2,71.2,53.2,71.1,53.3z"/>
		<path class="st2" d="M73.1,52.1c0,0-0.1,0-0.1,0.1c0,0-0.1,0-0.1,0.1c-0.2,0.1-0.3,0.2-0.5,0.3c-0.1,0-0.1,0.1-0.2,0.1
			c0,0-0.1,0-0.1,0.1c0,0,0,0,0,0c0,0,0,0.1,0,0.1c0,0,0,0,0,0.1c0,0.1,0.1,0.1,0.1,0.2c0.1,0.1,0.1,0.2,0.2,0.3
			c0,0.1,0.1,0.2,0.2,0.3c0,0.1,0.1,0.1,0.1,0.2c0,0,0,0.1,0.1,0.1c0,0,0,0.1,0.1,0.1c0,0,0,0,0,0c0.1-0.1,0.3-0.1,0.4-0.2
			c0.2-0.1,0.3-0.2,0.5-0.3c0.1,0,0.2-0.1,0.2-0.1c0.1,0,0.2-0.1,0.2-0.1c0,0,0,0,0,0c0,0,0,0,0,0c0,0,0-0.1-0.1-0.1
			c0,0,0-0.1-0.1-0.1c0-0.1-0.1-0.2-0.1-0.3c-0.1-0.2-0.2-0.4-0.3-0.5c0-0.1-0.1-0.2-0.2-0.3c0,0,0,0,0,0c0,0-0.1,0-0.1,0
			c0,0-0.1,0-0.1,0C73.2,52.1,73.2,52.1,73.1,52.1z"/>
		<path class="st2" d="M75.1,51c0,0-0.1,0-0.1,0.1c0,0-0.1,0-0.1,0.1c-0.2,0.1-0.3,0.2-0.5,0.3c-0.1,0-0.1,0.1-0.2,0.1
			c0,0-0.1,0-0.1,0.1c0,0,0,0,0,0c0,0,0,0.1,0,0.1c0,0,0,0,0,0.1c0,0.1,0.1,0.1,0.1,0.2c0.1,0.1,0.1,0.2,0.2,0.3
			c0,0.1,0.1,0.2,0.2,0.3c0,0.1,0.1,0.1,0.1,0.2c0,0,0,0.1,0.1,0.1c0,0,0,0.1,0.1,0.1c0,0,0,0,0,0c0.1-0.1,0.3-0.1,0.4-0.2
			c0.2-0.1,0.3-0.2,0.5-0.3c0.1,0,0.2-0.1,0.2-0.1c0.1,0,0.2-0.1,0.2-0.1c0,0,0,0,0,0c0,0,0,0,0,0c0,0,0-0.1-0.1-0.1
			c0,0,0-0.1-0.1-0.1c0-0.1-0.1-0.2-0.1-0.3c-0.1-0.2-0.2-0.4-0.3-0.5c0-0.1-0.1-0.2-0.2-0.3c0,0,0,0,0,0c0,0-0.1,0-0.1,0
			c0,0-0.1,0-0.1,0C75.2,50.9,75.2,50.9,75.1,51z"/>
		<path class="st2" d="M77,49.8c0,0-0.1,0-0.1,0.1c0,0-0.1,0-0.1,0.1c-0.2,0.1-0.3,0.2-0.5,0.3c-0.1,0-0.1,0.1-0.2,0.1
			c0,0-0.1,0-0.1,0.1c0,0,0,0,0,0c0,0,0,0.1,0,0.1c0,0,0,0,0,0.1c0,0.1,0.1,0.1,0.1,0.2c0.1,0.1,0.1,0.2,0.2,0.3
			c0,0.1,0.1,0.2,0.2,0.3c0,0.1,0.1,0.1,0.1,0.2c0,0,0,0.1,0.1,0.1c0,0,0,0.1,0.1,0.1c0,0,0,0,0,0c0.1-0.1,0.3-0.1,0.4-0.2
			c0.2-0.1,0.3-0.2,0.5-0.3c0.1,0,0.2-0.1,0.2-0.1c0.1,0,0.2-0.1,0.2-0.1c0,0,0,0,0,0c0,0,0,0,0,0c0,0,0-0.1-0.1-0.1
			c0,0,0-0.1-0.1-0.1c0-0.1-0.1-0.2-0.1-0.3c-0.1-0.2-0.2-0.4-0.3-0.5c0-0.1-0.1-0.2-0.2-0.3c0,0,0,0,0,0c0,0-0.1,0-0.1,0
			c0,0-0.1,0-0.1,0C77.1,49.8,77.1,49.8,77,49.8z"/>
		<path class="st2" d="M71.9,55.2c0,0-0.1,0-0.1,0.1c0,0-0.1,0-0.1,0.1c-0.2,0.1-0.3,0.2-0.5,0.3c-0.1,0-0.1,0.1-0.2,0.1
			c0,0-0.1,0-0.1,0.1c0,0,0,0,0,0c0,0,0,0.1,0,0.1c0,0,0,0,0,0.1C71,56,71,56,71,56.1c0.1,0.1,0.1,0.2,0.2,0.3
			c0,0.1,0.1,0.2,0.2,0.3c0,0.1,0.1,0.1,0.1,0.2c0,0,0,0.1,0.1,0.1c0,0,0,0.1,0.1,0.1c0,0,0,0,0,0c0.1-0.1,0.3-0.1,0.4-0.2
			c0.2-0.1,0.3-0.2,0.5-0.3c0.1,0,0.2-0.1,0.2-0.1c0.1,0,0.2-0.1,0.2-0.1c0,0,0,0,0,0c0,0,0,0,0,0c0,0,0-0.1-0.1-0.1
			c0,0,0-0.1-0.1-0.1c0-0.1-0.1-0.2-0.1-0.3c-0.1-0.2-0.2-0.4-0.3-0.5c0-0.1-0.1-0.2-0.2-0.3c0,0,0,0,0,0c0,0-0.1,0-0.1,0
			c0,0-0.1,0-0.1,0C72,55.1,72,55.2,71.9,55.2z"/>
		<path class="st2" d="M73.9,54.1c0,0-0.1,0-0.1,0.1c0,0-0.1,0-0.1,0.1c-0.2,0.1-0.3,0.2-0.5,0.3c-0.1,0-0.1,0.1-0.2,0.1
			c0,0-0.1,0-0.1,0.1c0,0,0,0,0,0c0,0,0,0.1,0,0.1c0,0,0,0,0,0.1c0,0.1,0.1,0.1,0.1,0.2c0.1,0.1,0.1,0.2,0.2,0.3
			c0,0.1,0.1,0.2,0.2,0.3c0,0.1,0.1,0.1,0.1,0.2c0,0,0,0.1,0.1,0.1c0,0,0,0.1,0.1,0.1c0,0,0,0,0,0c0.1-0.1,0.3-0.1,0.4-0.2
			c0.2-0.1,0.3-0.2,0.5-0.3c0.1,0,0.2-0.1,0.2-0.1c0.1,0,0.2-0.1,0.2-0.1c0,0,0,0,0,0c0,0,0,0,0,0c0,0,0-0.1-0.1-0.1
			c0,0,0-0.1-0.1-0.1c0-0.1-0.1-0.2-0.1-0.3c-0.1-0.2-0.2-0.4-0.3-0.5c0-0.1-0.1-0.2-0.2-0.3c0,0,0,0,0,0c0,0-0.1,0-0.1,0
			c0,0-0.1,0-0.1,0C74,54,74,54,73.9,54.1z"/>
		<path class="st2" d="M75.9,52.9c0,0-0.1,0-0.1,0.1c0,0-0.1,0-0.1,0.1c-0.2,0.1-0.3,0.2-0.5,0.3c-0.1,0-0.1,0.1-0.2,0.1
			c0,0-0.1,0-0.1,0.1c0,0,0,0,0,0c0,0,0,0.1,0,0.1c0,0,0,0,0,0.1c0,0.1,0.1,0.1,0.1,0.2c0.1,0.1,0.1,0.2,0.2,0.3
			c0,0.1,0.1,0.2,0.2,0.3c0,0.1,0.1,0.1,0.1,0.2c0,0,0,0.1,0.1,0.1c0,0,0,0.1,0.1,0.1c0,0,0,0,0,0c0.1-0.1,0.3-0.1,0.4-0.2
			c0.2-0.1,0.3-0.2,0.5-0.3c0.1,0,0.2-0.1,0.2-0.1c0.1,0,0.2-0.1,0.2-0.1c0,0,0,0,0,0c0,0,0,0,0,0c0,0,0-0.1-0.1-0.1
			c0,0,0-0.1-0.1-0.1c0-0.1-0.1-0.2-0.1-0.3c-0.1-0.2-0.2-0.4-0.3-0.5c0-0.1-0.1-0.2-0.2-0.3c0,0,0,0,0,0c0,0-0.1,0-0.1,0
			c0,0-0.1,0-0.1,0C76,52.8,75.9,52.9,75.9,52.9z"/>
		<path class="st2" d="M77.9,51.7c0,0-0.1,0-0.1,0.1c0,0-0.1,0-0.1,0.1c-0.2,0.1-0.3,0.2-0.5,0.3c-0.1,0-0.1,0.1-0.2,0.1
			c0,0-0.1,0-0.1,0.1c0,0,0,0,0,0c0,0,0,0.1,0,0.1c0,0,0,0,0,0.1c0,0.1,0.1,0.1,0.1,0.2c0.1,0.1,0.1,0.2,0.2,0.3
			c0,0.1,0.1,0.2,0.2,0.3c0,0.1,0.1,0.1,0.1,0.2c0,0,0,0.1,0.1,0.1c0,0,0,0.1,0.1,0.1c0,0,0,0,0,0c0.1-0.1,0.3-0.1,0.4-0.2
			c0.2-0.1,0.3-0.2,0.5-0.3c0.1,0,0.2-0.1,0.2-0.1c0.1,0,0.2-0.1,0.2-0.1c0,0,0,0,0,0c0,0,0,0,0,0c0,0,0-0.1-0.1-0.1
			c0,0,0-0.1-0.1-0.1c0-0.1-0.1-0.2-0.1-0.3c-0.1-0.2-0.2-0.4-0.3-0.5c0-0.1-0.1-0.2-0.2-0.3c0,0,0,0,0,0c0,0-0.1,0-0.1,0
			c0,0-0.1,0-0.1,0C78,51.7,77.9,51.7,77.9,51.7z"/>
	</g>
	<path class="st22" d="M69.1,48.5l-1,0.6c-0.1,0.1-0.3,0-0.4-0.1l0,0c-0.1-0.1,0-0.3,0.1-0.4l1-0.6c0.1-0.1,0.3,0,0.4,0.1l0,0
		C69.3,48.3,69.2,48.4,69.1,48.5z"/>
	<path class="st22" d="M71,47.4l-1,0.6c-0.1,0.1-0.3,0-0.4-0.1l0,0c-0.1-0.1,0-0.3,0.1-0.4l1-0.6c0.1-0.1,0.3,0,0.4,0.1l0,0
		C71.1,47.1,71.1,47.3,71,47.4z"/>
	<path class="st22" d="M72.9,46.3l-1,0.6c-0.1,0.1-0.3,0-0.4-0.1l0,0c-0.1-0.1,0-0.3,0.1-0.4l1-0.6c0.1-0.1,0.3,0,0.4,0.1l0,0
		C73,46.1,73,46.2,72.9,46.3z"/>
	<path class="st22" d="M74.7,45.2l-1,0.6c-0.1,0.1-0.3,0-0.4-0.1l0,0c-0.1-0.1,0-0.3,0.1-0.4l1-0.6c0.1-0.1,0.3,0,0.4,0.1l0,0
		C74.9,44.9,74.9,45.1,74.7,45.2z"/>
	<path class="st9" d="M66.1,44.3l6.4-3.5c0.2-0.1,0.4,0,0.4,0.1l1.1,2.4c0.1,0.2,0,0.3-0.1,0.4l-6.4,3.5c-0.2,0.1-0.4,0-0.4-0.1
		L66,44.8C65.9,44.6,66,44.4,66.1,44.3z"/>
	<path class="st23" d="M66.7,44l-0.6,0.3c-0.1,0.1-0.2,0.3-0.1,0.4l1.1,2.4c0.1,0.2,0.3,0.2,0.4,0.1l2.9-1.6
		C69.2,45.1,67.9,44.6,66.7,44z"/>
	<path class="st24" d="M73.3,44.1l0.6-0.3c0.1-0.1,0.2-0.3,0.1-0.4L72.9,41c-0.1-0.2-0.3-0.2-0.4-0.1l-2.9,1.6L73.3,44.1z"/>
</g>
<g>
	<path class="st25" d="M99,23.3c-0.2-0.6-0.5-1.1-0.8-1.6c-0.7-1.2-2-3.1-3.5-3.2c-0.8,0-1.6,0.5-2,1.2c-0.4,0.7-0.6,1.5-0.7,2.3
		c-0.2,0.8-0.3,1.6-0.8,2.3c-0.3,0.5-0.8,0.9-1.3,1.3c-1.2,0.9-2.5,1.7-3.6,2.8c-2.5,2.6-1.9,7.1,1.4,8.8c2.6,1.3,5.6,0.6,7.8-1.1
		c0.8-0.7,1.6-1.3,2.3-2.1C100.4,30.9,100.5,26.7,99,23.3z M95.5,21.8c0,0.3-0.1,0.6-0.2,0.8c-0.2,0.4-1.6,1.7-1.8,0.7
		c0-0.2,0-0.4,0-0.6c0.1-0.3,0.1-0.7,0.2-1c0.1-0.3,0.3-0.6,0.5-0.8c0.2-0.1,0.4-0.2,0.6-0.2C95.3,20.8,95.5,21.3,95.5,21.8z"/>
	<path class="st26" d="M96.1,30.7c-1.6,1.2-3.6,1.9-5.7,1.6c-1.7-0.3-3.4-1.4-4-3.1c-0.1-0.2-0.1-0.5-0.2-0.7
		c-2.5,2.6-1.8,7.1,1.5,8.7c2.6,1.3,5.6,0.6,7.8-1.1c0.8-0.7,1.6-1.3,2.3-2.1c1.7-2.1,2.3-4.7,2-7.3C99,28.2,97.6,29.6,96.1,30.7z"
		/>
	<path class="st27" d="M92,22c-0.2,0.8-0.3,1.6-0.8,2.3c-0.1,0.2-0.3,0.4-0.5,0.6c0.2,0.9,0.7,1.7,1.6,2.1c1.4,0.6,3,0,4.1-0.9
		c1.1-0.8,1.9-1.9,2.5-3.1c-0.2-0.5-0.5-1-0.8-1.5c-0.7-1.2-2-3.1-3.5-3.2c-0.8,0-1.6,0.5-2,1.2C92.3,20.4,92.2,21.2,92,22z
		 M94.2,21c0.2-0.1,0.4-0.2,0.6-0.2c0.6,0,0.8,0.5,0.7,1c0,0.3-0.1,0.6-0.2,0.8c-0.2,0.4-1.6,1.7-1.8,0.7c0-0.2,0-0.4,0-0.6
		c0.1-0.3,0.1-0.7,0.2-1C93.8,21.5,93.9,21.2,94.2,21z"/>
	<path class="st11" d="M88.4,35.4c-0.1,0.1-0.1,0.3-0.1,0.5c0,0.1,0,0.2,0,0.3c0.1,0.2,0.2,0.3,0.4,0.3c0.2,0.1,0.5,0.1,0.8,0.1
		c0.4-0.1,0.7-0.6,0.5-1C89.7,35,88.7,34.9,88.4,35.4z"/>
	<path class="st28" d="M92.9,34.8c0,0-0.1-0.1-0.1-0.1c0,0-0.1-0.1-0.1-0.1c0,0,0,0,0-0.1c-0.2-0.2-0.5-0.3-0.7-0.1
		c-0.4,0.2-1,0.8-0.6,1.3c0.2,0.2,0.3,0.2,0.5,0.2c0.2,0.1,0.5,0.2,0.7,0.1c0.3-0.1,0.6-0.5,0.6-0.8C93,35.1,93,34.9,92.9,34.8z"/>
	<path class="st29" d="M95.4,32.1c-0.1,0.1-0.2,0.2-0.3,0.3c-0.1-0.4-0.8-0.4-1,0c-0.1,0.2-0.2,0.5-0.3,0.8
		c-0.1,0.3,0.2,0.6,0.5,0.6c0,0,0,0,0,0c0,0,0,0,0,0c0,0.1,0.1,0.2,0.1,0.3c0.2,0.3,0.8,0.3,0.9-0.1c0-0.1,0.1-0.2,0.1-0.2
		c0.2,0.1,0.5,0,0.6-0.3c0.1-0.3,0.2-0.7,0.2-1C96.3,32.1,95.7,31.8,95.4,32.1z"/>
	<path class="st18" d="M98.2,29.4c0-0.5-0.6-0.7-1-0.3c-0.1,0.1-0.1,0.1-0.2,0.2c0,0,0,0,0,0c-0.5-0.1-0.7,0.4-0.5,0.8
		c-0.1,0.3,0.2,0.7,0.5,0.7c0,0.3,0.3,0.5,0.6,0.5c0.2,0.3,0.7,0.2,0.9-0.1c0.1-0.4,0.2-0.7,0.2-1.1C98.7,29.6,98.5,29.4,98.2,29.4z
		"/>
	<path class="st14" d="M98.5,24.3c-0.4-0.6-1.2,0.1-0.9,0.6c0,0,0,0,0,0.1c-0.1,0.1-0.2,0.3-0.2,0.4c-0.3,0-0.5,0.2-0.5,0.4
		c-0.2,0.2-0.4,0.5-0.2,0.8c0.2,0.4,0.5,0.9,1,0.9c0.2,0,0.4-0.1,0.5-0.2c0.2,0.1,0.5,0,0.6-0.3c0.1-0.3,0.1-0.6,0-0.9
		C99,26.1,99,26,99,25.8C98.9,25.2,98.8,24.8,98.5,24.3z"/>
</g>
<g>
	<path class="st30" d="M114.2,56.5c0,0.3,0.1,1.7,0.1,1.7c0.7-0.4,1.3-0.7,2-1.1c1.5-0.9,3-1.8,4.4-2.7c1-0.7,2.1-1.3,3-2.1
		c0.1,0,0.1-0.1,0.2-0.1c0.1-0.1,0.4-0.3,0.4-0.3s0.1-0.3,0.1-0.4c0-0.2,0.3-2.6,0.2-2.6c-0.3,0-0.8,0.5-1,0.6
		c-0.4,0.2-0.8,0.5-1.2,0.7c-0.8,0.5-1.7,1.1-2.5,1.6c-1.6,1.1-3.2,2.1-4.8,3.2c-0.2,0.2-0.5,0.3-0.6,0.5
		C114.3,55.8,114.2,56.2,114.2,56.5z"/>
	<path class="st9" d="M114.2,56.2c0,0.3,0.1,1.6,0.1,1.6s0.6-0.3,0.8-0.4c0.5-0.3,0.9-0.5,1.4-0.8c0.9-0.5,1.9-1.1,2.8-1.7
		c1.6-1,3.2-2.1,4.7-3.1c0.1-0.1,0.4-0.2,0.5-0.4c0.1-0.1,0-0.2,0-0.3c0-0.2,0.3-2.4,0.1-2.4c-0.3,0-0.7,0.4-0.9,0.6
		c-0.4,0.2-0.8,0.5-1.2,0.7c-0.8,0.5-1.7,1.1-2.5,1.6c-1.6,1.1-3.3,2.1-4.9,3.2c-0.2,0.2-0.5,0.3-0.6,0.5
		C114.3,55.6,114.2,55.9,114.2,56.2z"/>
	<path class="st30" d="M106.8,42.5C106.8,42.4,106.8,42.4,106.8,42.5c-0.1,0.1,0.2,0.9,0.2,1.1c0.1,0.4,0.1,0.8,0.2,1.2
		c0.2,0.8,0.4,1.4,0.8,2.2c2.1,3.8,4.2,7.4,6.3,11.2c0.2-0.6,0.2-1.1,0.3-1.8c0-0.4,0-0.7,0-1.1c-0.1-0.4-0.3-0.8-0.6-1.1
		c-1.4-2.3-2.8-4.6-4.1-7c-1-1.7-1.9-3.4-2.9-4.9"/>
	<path class="st14" d="M106.8,42.5c0,0.1,0,0.2,0.1,0.3c1,2.1,2.3,4.1,3.5,6.1c0.7,1.2,4.1,6.9,4.3,6.9c0.2,0,3.4-2.3,4.3-2.9
		c1.5-1,3.1-2,4.6-3c0.4-0.3,0.9-0.6,1.3-0.9c0.3-0.2,0.1-0.4,0-0.6c-0.2-0.3-0.4-0.6-0.5-0.9c-0.3-0.6-0.7-1.2-1-1.7
		c-0.7-1.1-1.4-2.2-2-3.3c-0.6-1.1-1.3-2.2-2-3.3c-0.6-1-1.3-2-1.9-3c-0.3-0.4-0.4-0.6-1-0.3C114.9,36.9,106.8,42.2,106.8,42.5z"/>
	<path class="st22" d="M114.8,53.5c-2.4-3.9-4.8-7.9-6.9-11.9c-0.7,0.5-1.1,0.8-1.1,0.9c0,0.1,0,0.2,0.1,0.3c1,2.1,2.3,4.1,3.5,6.1
		c0.7,1.2,4.1,6.9,4.3,6.9c0.1,0,0.6-0.3,1.2-0.7C115.5,54.6,115.2,54.1,114.8,53.5z"/>
	<path class="st31" d="M110.6,42.9c2.2,1.3,4.9,1.6,7.5,1.4c1.3-0.1,2.5-0.3,3.7-0.6c-0.2-0.4-0.5-0.7-0.7-1.1
		c-0.6-1.1-1.3-2.2-2-3.3c-0.6-1-1.3-2-1.9-3c-0.3-0.4-0.4-0.6-1-0.3c-1,0.6-5.3,3.5-7.7,5.2C109.1,41.8,109.8,42.4,110.6,42.9z"/>
	<path class="st32" d="M124.2,47.6c0-0.1-0.1-0.1-0.1-0.2c0,0-0.1,0-0.1,0.1c-3,1.2-6.3,1.7-9.5,1.8c-1.2,0-2.4-0.1-3.6-0.5
		c-0.3-0.1-0.5-0.2-0.8-0.3c0.1,0.1,0.2,0.3,0.3,0.4c0.7,1.2,4.1,6.9,4.3,6.9c0.2,0,3.4-2.3,4.3-2.9c1.5-1,3.1-2,4.6-3
		c0.4-0.3,0.9-0.6,1.3-0.9c0.3-0.2,0.1-0.4,0-0.6C124.5,48.2,124.4,47.9,124.2,47.6z"/>
	<path class="st22" d="M110,48.3c0.4,0.2,0.9,0.4,1.4,0.5c0.2,0.1,0.5,0.1,0.7,0.1c-1.4-2.4-2.8-4.9-4.2-7.4
		c-0.7,0.5-1.1,0.8-1.1,0.9c0,0.1,0,0.2,0.1,0.3C107.8,44.7,108.9,46.5,110,48.3z"/>
	<path class="st33" d="M112.1,49.1c-0.4-0.1-0.9-0.2-1.3-0.3c-0.3-0.1-0.5-0.2-0.8-0.3c0.1,0.1,0.2,0.3,0.3,0.4
		c0.7,1.2,4.1,6.9,4.3,6.9c0.1,0,0.6-0.3,1.2-0.7c-0.3-0.5-0.7-1.1-1-1.6C113.9,52,113,50.6,112.1,49.1z"/>
	<g>
		<path class="st2" d="M115.2,46.4c-0.5-0.7-0.9-1.3-1.6-1.8c0,0-0.1-0.1-0.3-0.1c-0.1,0-0.2,0-0.2,0.1c-0.1,0.1-0.1,0.4-0.1,0.4
			c0.1,0.7,0.4,1.3,0.6,1.9l0.9,2.1c0,0.1,0.1,0.1,0.1,0.1c0,0,0,0,0.1,0c0.1,0,0.1-0.1,0.1-0.2l-0.6-1.4c0.3-0.2,0.6-0.4,0.8-0.7
			c0.3,0.4,0.6,0.8,1,1.2c0.1,0.1,0.2,0.1,0.2,0c0.1-0.1,0.1-0.2,0-0.2C115.9,47.3,115.5,46.9,115.2,46.4z M114.2,47.2l-0.2-0.4
			c-0.3-0.6-0.5-1.2-0.6-1.8c0-0.1,0-0.1,0-0.1c0,0,0,0,0,0c0.6,0.5,1,1.1,1.5,1.7c0,0,0,0,0,0C114.7,46.8,114.4,47,114.2,47.2z"/>
		<path class="st2" d="M117.2,44.7c-0.3,0.1-0.5,0.2-0.7,0.3l0.1-0.6c0.1-0.4,0.2-0.8-0.1-1.1c-0.1-0.1-0.2-0.2-0.3-0.2
			c-0.2,0-0.3,0-0.5,0.1c-0.3,0.1-0.6,0.4-0.9,0.7c0,0.1,0,0.1,0,0.2c0.2,0.3,0.4,0.6,0.6,0.9c0.2,0.3,0.4,0.5,0.5,0.8
			c0.1,0.1,0.1,0.2,0.2,0.3c0.3,0.5,0.6,1,0.9,1.5c0,0,0.1,0.1,0.1,0.1c0,0,0,0,0,0c0,0,0.1,0,0.1-0.1c0.4-0.5,0.8-0.9,0.9-1.5
			c0.1-0.2,0.1-0.5,0-0.8C118.2,44.7,117.6,44.6,117.2,44.7z M116.1,45.2c-0.1-0.2-0.2-0.3-0.3-0.5c-0.2-0.3-0.4-0.5-0.5-0.7
			c0.2-0.2,0.5-0.4,0.7-0.5c0.1,0,0.2-0.1,0.2-0.1c0,0,0.1,0,0.1,0.1c0.2,0.2,0.1,0.5,0,0.8L116.1,45.2z M118,45.9
			c-0.1,0.4-0.4,0.8-0.7,1.2c-0.3-0.4-0.5-0.8-0.8-1.3c-0.1-0.1-0.1-0.2-0.2-0.3c0,0,0,0,0,0c0,0,0,0,0,0c0.3-0.2,0.6-0.5,0.9-0.5
			c0.3-0.1,0.7,0,0.8,0.3C118.1,45.5,118.1,45.7,118,45.9z"/>
		<path class="st2" d="M120.3,44.4c-0.1-0.3-0.2-0.5-0.4-0.8c0-0.1-0.1-0.1-0.2-0.1c-0.1,0-0.1,0.1-0.1,0.2c0.1,0.2,0.3,0.5,0.3,0.7
			c0.1,0.3,0.1,0.5,0,0.7c0,0.1-0.1,0.1-0.1,0.1c0,0,0,0-0.1,0c-0.4-0.1-0.6-0.4-0.8-0.8c-0.4-0.6-0.6-1.1-0.9-1.6
			c-0.1-0.2-0.2-0.5-0.1-0.8c0-0.1,0.1-0.3,0.2-0.3c0.1,0,0.2,0.1,0.3,0.3c0,0.1,0.1,0.1,0.2,0.1c0.1,0,0.1-0.1,0.1-0.2
			c-0.1-0.1-0.3-0.4-0.5-0.4c-0.3,0-0.5,0.3-0.6,0.5c-0.1,0.3,0,0.7,0.2,0.9c0.2,0.6,0.5,1.1,0.9,1.7c0.3,0.4,0.5,0.8,1,0.9
			c0,0,0.1,0,0.1,0c0,0,0.1,0,0.1,0c0.1,0,0.2-0.1,0.3-0.3C120.4,45.1,120.4,44.8,120.3,44.4z"/>
	</g>
</g>
<g>
	<path class="st34" d="M112.5,72.5l-1.4-6.2c0.9-1.7,1.4-3.7,1.4-5.7c0-6.6-5.4-12-12-12c-6.6,0-12,5.4-12,12c0,6.6,5.4,12,12,12
		c1.8,0,3.6-0.4,5.2-1.2l6,1.9C112.1,73.5,112.6,73,112.5,72.5z"/>
	<path class="st35" d="M111.5,71.5l-1.4-6.2c0.9-1.7,1.4-3.7,1.4-5.7c0-6.6-5.4-12-12-12c-6.6,0-12,5.4-12,12c0,6.6,5.4,12,12,12
		c1.8,0,3.6-0.4,5.2-1.2l6,1.9C111.2,72.5,111.7,72.1,111.5,71.5z"/>
	<g>
		<path class="st34" d="M98.9,61.8l-0.4-5.6c-0.1-1.1-0.1-1.9-0.1-2.4c0-0.7,0.2-1.2,0.5-1.5c0.3-0.4,0.8-0.5,1.4-0.5
			c0.7,0,1.1,0.2,1.4,0.7c0.2,0.5,0.3,1.1,0.3,2c0,0.5,0,1-0.1,1.6l-0.5,5.8c-0.1,0.7-0.2,1.2-0.4,1.6c-0.2,0.4-0.5,0.6-0.9,0.6
			c-0.4,0-0.7-0.2-0.9-0.5C99.1,63.1,98.9,62.6,98.9,61.8z"/>
		<path class="st34" d="M100.2,68.8c-0.5,0-0.9-0.2-1.3-0.5c-0.4-0.3-0.5-0.7-0.5-1.3c0-0.5,0.2-0.9,0.5-1.2
			c0.3-0.3,0.8-0.5,1.3-0.5c0.5,0,0.9,0.2,1.3,0.5c0.3,0.3,0.5,0.8,0.5,1.2c0,0.6-0.2,1-0.5,1.3C101.1,68.7,100.7,68.8,100.2,68.8z"
			/>
	</g>
	<g>
		<path class="st2" d="M98.3,61.2l-0.4-5.6c-0.1-1.1-0.1-1.9-0.1-2.4c0-0.7,0.2-1.2,0.5-1.5c0.3-0.4,0.8-0.5,1.4-0.5
			c0.7,0,1.1,0.2,1.4,0.7c0.2,0.5,0.3,1.1,0.3,2c0,0.5,0,1-0.1,1.6l-0.5,5.8c-0.1,0.7-0.2,1.2-0.4,1.6c-0.2,0.4-0.5,0.6-0.9,0.6
			c-0.4,0-0.7-0.2-0.9-0.5C98.5,62.5,98.3,62,98.3,61.2z"/>
		<path class="st2" d="M99.6,68.2c-0.5,0-0.9-0.2-1.3-0.5c-0.4-0.3-0.5-0.7-0.5-1.3c0-0.5,0.2-0.9,0.5-1.2c0.3-0.3,0.8-0.5,1.3-0.5
			c0.5,0,0.9,0.2,1.3,0.5c0.3,0.3,0.5,0.8,0.5,1.2c0,0.6-0.2,1-0.5,1.3C100.5,68.1,100.1,68.2,99.6,68.2z"/>
	</g>
</g>
</svg>
