<?xml version="1.0" encoding="utf-8"?>
<!-- Generator: Adobe Illustrator 25.1.0, SVG Export Plug-In . SVG Version: 6.00 Build 0)  -->
<svg version="1.1" id="Capa_1" xmlns="http://www.w3.org/2000/svg" xmlns:xlink="http://www.w3.org/1999/xlink" x="0px" y="0px"
	 viewBox="0 0 130 82.3" style="enable-background:new 0 0 130 82.3;" xml:space="preserve">
<style type="text/css">
	.st0{opacity:0.15;fill:#54678B;enable-background:new    ;}
	.st1{opacity:0.9;}
	.st2{fill:#A060BA;}
	.st3{fill:url(#SVGID_1_);}
	.st4{fill:#FFFFFF;}
	.st5{opacity:0.5;fill:#E01600;}
</style>
<g id="Group_103">
	<path id="Rectangle_31" class="st0" d="M12,7.3h111.9c2.9,0,5.3,1.8,5.3,4.1v65.3c0,2.3-2.4,4.1-5.3,4.1H12c-2.9,0-5.3-1.8-5.3-4.1
		V11.4C6.7,9.1,9.1,7.3,12,7.3z"/>
	<g>
		<g class="st1">
			<path class="st2" d="M120.3,74.3H5.6c-3.1,0-5.6-2.5-5.6-5.6V7.9c0-3.1,2.5-5.6,5.6-5.6h114.7c3.1,0,5.6,2.5,5.6,5.6v60.8
				C125.9,71.8,123.4,74.3,120.3,74.3z"/>
		</g>
	</g>
</g>
<g>
	<linearGradient id="SVGID_1_" gradientUnits="userSpaceOnUse" x1="11.4982" y1="14.8969" x2="31.8791" y2="35.2778">
		<stop  offset="0" style="stop-color:#FFE900"/>
		<stop  offset="0.4973" style="stop-color:#FFB500"/>
		<stop  offset="1" style="stop-color:#FF8B00"/>
	</linearGradient>
	<path class="st3" d="M29.5,35.8H13.3c-2.2,0-3.9-1.7-3.9-3.9V19.1c0-2.9,2.3-5.2,5.2-5.2h14.7c2.6,0,4.7,2.1,4.7,4.7v12.7
		C34,33.8,32,35.8,29.5,35.8z"/>
	<path class="st4" d="M29.6,54.7h-17c-1.8,0-3.2-1.5-3.2-3.3c0-1.8,1.4-3.3,3.2-3.3h17c1.8,0,3.2,1.5,3.2,3.3
		C32.9,53.2,31.4,54.7,29.6,54.7z"/>
	<path class="st4" d="M115.4,22.5H84.3c-1.8,0-3.2-1.5-3.2-3.3c0-1.8,1.4-3.3,3.2-3.3h31.1c1.8,0,3.2,1.5,3.2,3.3
		C118.6,21,117.2,22.5,115.4,22.5z"/>
	<path class="st4" d="M115.4,33.8H59.1c-1.8,0-3.2-1.5-3.2-3.3c0-1.8,1.4-3.3,3.2-3.3h56.3c1.8,0,3.2,1.5,3.2,3.3
		C118.6,32.4,117.2,33.8,115.4,33.8z"/>
	<path class="st4" d="M58.2,54.7h-17c-1.8,0-3.2-1.5-3.2-3.3c0-1.8,1.4-3.3,3.2-3.3h17c1.8,0,3.2,1.5,3.2,3.3
		C61.4,53.2,60,54.7,58.2,54.7z"/>
	<path class="st4" d="M86.8,54.7h-17c-1.8,0-3.2-1.5-3.2-3.3c0-1.8,1.4-3.3,3.2-3.3h17c1.8,0,3.2,1.5,3.2,3.3
		C90,53.2,88.6,54.7,86.8,54.7z"/>
	<path class="st4" d="M115.4,54.7h-17c-1.8,0-3.2-1.5-3.2-3.3c0-1.8,1.4-3.3,3.2-3.3h17c1.8,0,3.2,1.5,3.2,3.3
		C118.6,53.2,117.2,54.7,115.4,54.7z"/>
	<path class="st5" d="M29.8,20H34v-0.7h-4.2c-0.7,0-1.4,0.6-1.4,1.4v3.8h-2.6v-2.4c0-0.8-0.6-1.4-1.4-1.4H22v-6.9h-0.7v6.9h-2.3
		c-0.8,0-1.4,0.6-1.4,1.4v2.4H15v-3.8c0-0.8-0.6-1.4-1.4-1.4H9.4V20h4.2c0.4,0,0.7,0.3,0.7,0.7V29c0,0.4-0.3,0.7-0.7,0.7H9.4v0.7
		h4.2c0.7,0,1.4-0.6,1.4-1.4v-3.8h2.7v2.4c0,0.8,0.6,1.4,1.4,1.4h2.3v6.9H22v-6.9h2.4c0.8,0,1.4-0.6,1.4-1.4v-2.4h2.6V29
		c0,0.7,0.6,1.4,1.4,1.4H34v-0.7h-4.2c-0.4,0-0.7-0.3-0.7-0.7v-8.2C29.1,20.4,29.4,20,29.8,20z M25.1,27.6c0,0.4-0.3,0.7-0.7,0.7
		h-5.4c-0.4,0-0.7-0.3-0.7-0.7v-5.4c0-0.4,0.3-0.7,0.7-0.7h5.4c0.4,0,0.7,0.3,0.7,0.7V27.6z"/>
</g>
</svg>
