<?xml version="1.0" encoding="utf-8"?>
<!-- Generator: Adobe Illustrator 25.1.0, SVG Export Plug-In . SVG Version: 6.00 Build 0)  -->
<svg version="1.1" id="Capa_1" xmlns="http://www.w3.org/2000/svg" xmlns:xlink="http://www.w3.org/1999/xlink" x="0px" y="0px"
	 viewBox="0 0 130 82.3" style="enable-background:new 0 0 130 82.3;" xml:space="preserve">
<style type="text/css">
	.st0{opacity:0.15;fill:#54678B;enable-background:new    ;}
	.st1{fill:#00B9C7;}
	.st2{fill:#FFFFFF;}
	.st3{font-family:'OpenSans-Bold';}
	.st4{font-size:4.3934px;}
	.st5{font-size:3.4187px;}
	.st6{fill:url(#SVGID_1_);}
	.st7{fill:#C6D7F7;}
	.st8{font-family:'OpenSans-Semibold';}
	.st9{font-size:3.2322px;}
	.st10{fill:url(#SVGID_2_);}
	.st11{fill:#343B97;}
	.st12{clip-path:url(#SVGID_4_);}
	.st13{fill:#00487E;}
	.st14{fill:#003B60;}
	.st15{fill:url(#SVGID_5_);}
	.st16{fill:url(#SVGID_6_);}
	.st17{fill:url(#SVGID_7_);}
	.st18{fill:url(#SVGID_8_);}
	.st19{fill:url(#SVGID_9_);}
	.st20{fill:url(#SVGID_10_);}
	.st21{fill:url(#SVGID_11_);}
	.st22{fill:url(#SVGID_12_);}
	.st23{fill:url(#SVGID_13_);}
	.st24{fill:url(#SVGID_14_);}
	.st25{fill:url(#SVGID_15_);}
	.st26{fill:url(#SVGID_16_);}
	.st27{fill:url(#SVGID_17_);}
	.st28{fill:url(#SVGID_18_);}
	.st29{fill:url(#SVGID_19_);}
	.st30{fill:#CF9379;}
	.st31{fill:#2F3A9E;}
	.st32{fill:#FF9B72;}
</style>
<path id="Rectangle_31" class="st0" d="M12,7.3h111.9c2.9,0,5.3,1.8,5.3,4.1v65.3c0,2.3-2.4,4.1-5.3,4.1H12c-2.9,0-5.3-1.8-5.3-4.1
	V11.4C6.7,9.1,9.1,7.3,12,7.3z"/>
<path class="st1" d="M119.7,74.3H6.2c-3.4,0-6.2-2.8-6.2-6.2V8.5c0-3.4,2.8-6.2,6.2-6.2h113.6c3.4,0,6.2,2.8,6.2,6.2v59.6
	C125.9,71.5,123.2,74.3,119.7,74.3z"/>
<g>
	<text transform="matrix(1 0 0 1 31.208 10.0857)" class="st2 st3 st4">Fecha</text>
	<g>
		<text transform="matrix(1 0 0 1 34.8311 19.573)" class="st2 st3 st5">Lun</text>
	</g>
	<g>
		<text transform="matrix(1 0 0 1 50.2627 19.573)" class="st2 st3 st5">Mar</text>
	</g>
	<g>
		<text transform="matrix(1 0 0 1 65.4019 19.573)" class="st2 st3 st5">Mier</text>
	</g>
	<g>
		<text transform="matrix(1 0 0 1 82.2607 19.573)" class="st2 st3 st5">Jue</text>
	</g>
	<g>
		<text transform="matrix(1 0 0 1 97.9561 19.573)" class="st2 st3 st5">Vie</text>
	</g>
	<g>
		<text transform="matrix(1 0 0 1 113.1807 19.573)" class="st2 st3 st5">Sab</text>
	</g>
	<linearGradient id="SVGID_1_" gradientUnits="userSpaceOnUse" x1="53.6835" y1="23.3144" x2="53.6835" y2="34.645">
		<stop  offset="0" style="stop-color:#FF9800"/>
		<stop  offset="1" style="stop-color:#FF7F00"/>
	</linearGradient>
	<circle class="st6" cx="53.7" cy="28.6" r="6.8"/>
	<g>
		<path class="st7" d="M38,35.5c-3.8,0-6.9-3.1-6.9-6.9c0-3.8,3.1-6.9,6.9-6.9s6.9,3.1,6.9,6.9C45,32.4,41.9,35.5,38,35.5z M38,21.8
			c-3.7,0-6.8,3-6.8,6.8c0,3.7,3,6.8,6.8,6.8s6.8-3,6.8-6.8C44.8,24.8,41.8,21.8,38,21.8z"/>
	</g>
	<g>
		<path class="st7" d="M69.3,35.5c-3.8,0-6.9-3.1-6.9-6.9c0-3.8,3.1-6.9,6.9-6.9s6.9,3.1,6.9,6.9C76.2,32.4,73.1,35.5,69.3,35.5z
			 M69.3,21.8c-3.7,0-6.8,3-6.8,6.8c0,3.7,3,6.8,6.8,6.8c3.7,0,6.8-3,6.8-6.8C76.1,24.8,73,21.8,69.3,21.8z"/>
	</g>
	<g>
		<path class="st7" d="M85,35.5c-3.8,0-6.9-3.1-6.9-6.9c0-3.8,3.1-6.9,6.9-6.9c3.8,0,6.9,3.1,6.9,6.9C91.9,32.4,88.8,35.5,85,35.5z
			 M85,21.8c-3.7,0-6.8,3-6.8,6.8c0,3.7,3,6.8,6.8,6.8c3.7,0,6.8-3,6.8-6.8C91.7,24.8,88.7,21.8,85,21.8z"/>
	</g>
	<g>
		<path class="st7" d="M100.6,35.5c-3.8,0-6.9-3.1-6.9-6.9c0-3.8,3.1-6.9,6.9-6.9s6.9,3.1,6.9,6.9C107.5,32.4,104.4,35.5,100.6,35.5
			z M100.6,21.8c-3.7,0-6.8,3-6.8,6.8c0,3.7,3,6.8,6.8,6.8c3.7,0,6.8-3,6.8-6.8C107.4,24.8,104.3,21.8,100.6,21.8z"/>
	</g>
	<g>
		<path class="st7" d="M116.2,35.5c-3.8,0-6.9-3.1-6.9-6.9c0-3.8,3.1-6.9,6.9-6.9s6.9,3.1,6.9,6.9C123.2,32.4,120.1,35.5,116.2,35.5
			z M116.2,21.8c-3.7,0-6.8,3-6.8,6.8c0,3.7,3,6.8,6.8,6.8c3.7,0,6.8-3,6.8-6.8C123,24.8,120,21.8,116.2,21.8z"/>
	</g>
	<g>
		<text transform="matrix(1 0 0 1 35.5356 29.8796)" class="st2 st8 st4">25</text>
	</g>
	<g>
		<text transform="matrix(1 0 0 1 51.1753 29.8796)" class="st2 st3 st4">26</text>
	</g>
	<g>
		<text transform="matrix(1 0 0 1 66.8145 29.8796)" class="st2 st8 st4">27</text>
	</g>
	<g>
		<text transform="matrix(1 0 0 1 82.4531 29.8796)" class="st2 st8 st4">28</text>
	</g>
	<g>
		<text transform="matrix(1 0 0 1 98.0928 29.8796)" class="st2 st8 st4">29</text>
	</g>
	<g>
		<text transform="matrix(1 0 0 1 113.7305 29.8796)" class="st2 st8 st4">30</text>
	</g>
</g>
<g>
	<text transform="matrix(1 0 0 1 31.208 47.008)" class="st2 st3 st4">Horario</text>
	<g>
		<path class="st7" d="M47.3,59.3H34.6c-1.9,0-3.5-1.6-3.5-3.5c0-1.9,1.6-3.5,3.5-3.5h12.7c1.9,0,3.5,1.6,3.5,3.5
			C50.7,57.7,49.2,59.3,47.3,59.3z M34.6,52.5c-1.8,0-3.3,1.5-3.3,3.3c0,1.8,1.5,3.3,3.3,3.3h12.7c1.8,0,3.3-1.5,3.3-3.3
			c0-1.8-1.5-3.3-3.3-3.3H34.6z"/>
	</g>
	<g>
		<text transform="matrix(1 0 0 1 33.8125 56.887)" class="st2 st8 st9">09.00 AM</text>
	</g>
	<linearGradient id="SVGID_2_" gradientUnits="userSpaceOnUse" x1="54.9449" y1="55.8286" x2="74.3811" y2="55.8286">
		<stop  offset="0" style="stop-color:#FF9800"/>
		<stop  offset="1" style="stop-color:#FF7F00"/>
	</linearGradient>
	<path class="st10" d="M71,59.2H58.3c-1.9,0-3.4-1.5-3.4-3.4l0,0c0-1.9,1.5-3.4,3.4-3.4H71c1.9,0,3.4,1.5,3.4,3.4l0,0
		C74.4,57.7,72.9,59.2,71,59.2z"/>
	<g>
		<text transform="matrix(1 0 0 1 57.5488 56.887)" class="st2 st8 st9">09.30 AM</text>
	</g>
	<g>
		<path class="st7" d="M94.7,59.3H82.1c-1.9,0-3.5-1.6-3.5-3.5c0-1.9,1.6-3.5,3.5-3.5h12.7c1.9,0,3.5,1.6,3.5,3.5
			C98.2,57.7,96.6,59.3,94.7,59.3z M82.1,52.5c-1.8,0-3.3,1.5-3.3,3.3c0,1.8,1.5,3.3,3.3,3.3h12.7c1.8,0,3.3-1.5,3.3-3.3
			c0-1.8-1.5-3.3-3.3-3.3H82.1z"/>
	</g>
	<g>
		<text transform="matrix(1 0 0 1 81.2852 56.887)" class="st2 st8 st9">10.30 AM</text>
	</g>
	<g>
		<path class="st7" d="M118.5,59.3h-12.7c-1.9,0-3.5-1.6-3.5-3.5c0-1.9,1.6-3.5,3.5-3.5h12.7c1.9,0,3.5,1.6,3.5,3.5
			C121.9,57.7,120.4,59.3,118.5,59.3z M105.8,52.5c-1.8,0-3.3,1.5-3.3,3.3c0,1.8,1.5,3.3,3.3,3.3h12.7c1.8,0,3.3-1.5,3.3-3.3
			c0-1.8-1.5-3.3-3.3-3.3H105.8z"/>
	</g>
	<g>
		<text transform="matrix(1 0 0 1 105.0215 56.887)" class="st2 st8 st9">11.00 AM</text>
	</g>
	<g>
		<path class="st7" d="M47.3,70.7H34.6c-1.9,0-3.5-1.6-3.5-3.5s1.6-3.5,3.5-3.5h12.7c1.9,0,3.5,1.6,3.5,3.5S49.2,70.7,47.3,70.7z
			 M34.6,63.9c-1.8,0-3.3,1.5-3.3,3.3c0,1.8,1.5,3.3,3.3,3.3h12.7c1.8,0,3.3-1.5,3.3-3.3c0-1.8-1.5-3.3-3.3-3.3H34.6z"/>
	</g>
	<g>
		<text transform="matrix(1 0 0 1 33.8125 68.2629)" class="st2 st8 st9">11.30 AM</text>
	</g>
	<g>
		<path class="st7" d="M71,70.7H58.3c-1.9,0-3.5-1.6-3.5-3.5s1.6-3.5,3.5-3.5H71c1.9,0,3.5,1.6,3.5,3.5S72.9,70.7,71,70.7z
			 M58.3,63.9c-1.8,0-3.3,1.5-3.3,3.3c0,1.8,1.5,3.3,3.3,3.3H71c1.8,0,3.3-1.5,3.3-3.3c0-1.8-1.5-3.3-3.3-3.3H58.3z"/>
	</g>
	<g>
		<text transform="matrix(1 0 0 1 57.5488 68.2629)" class="st2 st8 st9">12.00 AM</text>
	</g>
</g>
<circle class="st11" cx="15" cy="21.8" r="14.2"/>
<g>
	<defs>
		<circle id="SVGID_3_" cx="15" cy="21.8" r="14.2"/>
	</defs>
	<clipPath id="SVGID_4_">
		<use xlink:href="#SVGID_3_"  style="overflow:visible;"/>
	</clipPath>
	<g class="st12">
		<path class="st13" d="M22.3,136.2c1.2,1,6.2,2.1,8,4.3c1.8,2.1,0.8,1.9,0.8,1.9H17.3l-0.3-6.8L22.3,136.2z"/>
		<path class="st14" d="M9.7,136.2c1.2,1,6.2,2.1,8,4.3s0.8,1.9,0.8,1.9H4.7l-0.3-6.8L9.7,136.2z"/>
		<linearGradient id="SVGID_5_" gradientUnits="userSpaceOnUse" x1="38.4329" y1="37.2011" x2="51.0113" y2="37.2011">
			<stop  offset="0" style="stop-color:#F59F7C"/>
			<stop  offset="1" style="stop-color:#F5D3AC"/>
		</linearGradient>
		<path class="st15" d="M51,36.5c-0.5,0.2-0.9,0.6-1.4,1c-0.4,0.4-0.8,0.7-1.3,1c-0.4,0.2-0.9,0.3-1.3,0.4c-1.5,0.3-2.9-0.3-4.4-0.2
			c-1.1,0.1-2.2,0.8-3.1,1.5L38.9,39l-0.4-0.9l1.3-1.9c1.3-1.8,3.1-1.4,5-1.8c0.8-0.1,1.6-0.4,2.4-0.1c0.1,0,0.3,0.2,0.2,0.3
			c0,0.1-0.1,0.1-0.1,0.1c-0.4,0.4-1,0.7-1.6,0.8c-0.4,0.1-1.4,0-1.6,0.4c0.7,0,1.3,0.2,2,0.4c0.7,0.1,1.5,0.2,2.2,0.1
			c0.6-0.1,1.2-0.4,1.8-0.4C50.4,36,50.8,36.2,51,36.5z"/>
		<linearGradient id="SVGID_6_" gradientUnits="userSpaceOnUse" x1="40.7978" y1="38.5036" x2="45.9521" y2="37.996">
			<stop  offset="0" style="stop-color:#F59F7C"/>
			<stop  offset="1" style="stop-color:#F5D3AC"/>
		</linearGradient>
		<path class="st16" d="M49.6,37.5c-0.4,0.4-0.8,0.7-1.3,1c-0.4,0.2-0.9,0.3-1.3,0.4c-1.5,0.3-2.9-0.3-4.4-0.2
			c-1.1,0.1-2.2,0.8-3.1,1.5L38.9,39c0.8-1,2.5-2.2,3.2-2.2c0.9,0,3.4,1.2,4.1,1.2s1.8-0.4,2.5-0.7C49.1,37.2,49.5,37.3,49.6,37.5z"
			/>
		<linearGradient id="SVGID_7_" gradientUnits="userSpaceOnUse" x1="38.2278" y1="36.7374" x2="18.5491" y2="46.9412">
			<stop  offset="0" style="stop-color:#FFFFFF"/>
			<stop  offset="0.8147" style="stop-color:#C6D3F5"/>
		</linearGradient>
		<path class="st17" d="M42.9,39.5c0,0-6.5,11.2-9.5,14.2c-5.1,5-9.1-2.9-10-6.9c0-0.1-1.1-6.4-2.2-12.2c-0.2-1.1-0.4-2.2-0.6-3.3
			c-0.2-1.2,4.2,0.6,4.2,0.6c1.3,1.2,6.4,14.8,6.2,15c3.1-4.1,4.8-6.4,7.8-10.1c0.1-0.1,0.9,0.5,1.9,1.1c0,0,0.1,0.1,0.1,0.1
			C42,38.9,42.7,39.4,42.9,39.5z"/>
		<linearGradient id="SVGID_8_" gradientUnits="userSpaceOnUse" x1="10.7202" y1="28.9665" x2="12.2637" y2="28.9665">
			<stop  offset="0" style="stop-color:#4A63FF"/>
			<stop  offset="1" style="stop-color:#98B5FF"/>
		</linearGradient>
		<path class="st18" d="M11.1,27.9h1.1V30c0,0-1.7-0.3-1.5-0.4S11.1,27.9,11.1,27.9z"/>
		<polygon class="st13" points="23.9,86.9 25.1,136.3 16.7,136.4 11.7,86.9 		"/>
		<polygon class="st14" points="3.1,86.9 3.6,136.4 11.9,136.6 15.2,86.9 		"/>
		<linearGradient id="SVGID_9_" gradientUnits="userSpaceOnUse" x1="34.3344" y1="25.6698" x2="3.2985" y2="86.1967">
			<stop  offset="0" style="stop-color:#FFFFFF"/>
			<stop  offset="0.8147" style="stop-color:#C6D3F5"/>
		</linearGradient>
		<path class="st19" d="M27.5,95c0,0-9.2,1.5-18.2,1.5c-2.4,0-4.9-0.1-7.1-0.4c-0.5-0.1-1-0.1-1.5-0.2c-0.6-13.7,0.2-43.1,1-56.8
			c0.1-2.1,0.2-3.7,0.4-5c0.1-1.4,0.3-2.2,0.4-2.3c1.1-0.7,6.8-1.7,6.8-1.7l9.4-0.2c2.7,0.4,4.8,1,6.3,1.9
			c0.6,3.5,1.1,12.1,1.5,21.9c0.1,1.7,0.1,3.4,0.2,5.2C27.2,76.3,27.5,95,27.5,95z"/>
		<linearGradient id="SVGID_10_" gradientUnits="userSpaceOnUse" x1="28.9145" y1="96.3792" x2="12.046" y2="77.1679">
			<stop  offset="0" style="stop-color:#FFFFFF"/>
			<stop  offset="0.8147" style="stop-color:#C6D3F5"/>
		</linearGradient>
		<path class="st20" d="M9.2,95.3c0,0-3.5,0.5-7.1,0.8c-0.5-0.1-1-0.1-1.5-0.2c-0.6-13.7,0.2-43.1,1-56.8c0.1-2.1,0.2-3.7,0.4-5
			l2.3,6.7L9.2,95.3z"/>
		<linearGradient id="SVGID_11_" gradientUnits="userSpaceOnUse" x1="15.8135" y1="33.9309" x2="-13.0295" y2="69.7504">
			<stop  offset="0" style="stop-color:#FFFFFF"/>
			<stop  offset="1" style="stop-color:#D6DFF8"/>
		</linearGradient>
		<path class="st21" d="M2.2,31.9c-3.4,1.2-4.2,7.1-5,13.1c-0.8,6.1-0.9,26.6-0.9,26.6l4.9,0.2c0,0,0.8-7.8,1.8-15.4
			C3.6,51.9,4.1,47,4.3,45C5,33.2,2.2,31.9,2.2,31.9z"/>
		<linearGradient id="SVGID_12_" gradientUnits="userSpaceOnUse" x1="18.0238" y1="36.6063" x2="9.5897" y2="56.9108">
			<stop  offset="0" style="stop-color:#FFFFFF"/>
			<stop  offset="1" style="stop-color:#FFFFFF"/>
		</linearGradient>
		<path class="st22" d="M18.2,30l2,5.9l-1.8,1.2l1.2,1.7c0,0-5,8.9-5,8.7C14.7,47.4,18.2,30,18.2,30z"/>
		<linearGradient id="SVGID_13_" gradientUnits="userSpaceOnUse" x1="7.7501" y1="38.8212" x2="14.6543" y2="38.8212">
			<stop  offset="0" style="stop-color:#FFFFFF"/>
			<stop  offset="1" style="stop-color:#D6DFF8"/>
		</linearGradient>
		<polygon class="st23" points="9.7,30 7.8,35.9 9.5,37.2 8.3,38.9 14.7,47.6 		"/>
		<linearGradient id="SVGID_14_" gradientUnits="userSpaceOnUse" x1="16.8165" y1="30.4552" x2="5.8832" y2="49.2759">
			<stop  offset="0" style="stop-color:#4A63FF"/>
			<stop  offset="1" style="stop-color:#98B5FF"/>
		</linearGradient>
		<path class="st24" d="M9.7,30.2c0,0,4.9,16,5.1,16.3c0,0.1,0.1-0.3,0.3-0.9c0.8-3.3,3.1-14.1,3.2-14.1L14.8,31L9.7,30.2z"/>
		<linearGradient id="SVGID_15_" gradientUnits="userSpaceOnUse" x1="12.8668" y1="34.5495" x2="10.095" y2="53.1963">
			<stop  offset="0" style="stop-color:#4A63FF"/>
			<stop  offset="1" style="stop-color:#98B5FF"/>
		</linearGradient>
		<path class="st25" d="M9.7,30.2c0,0,4.8,17.1,4.9,17.4c0,0.1,0.2-1.5,0.4-2.1c-0.1-1.4-0.2-2.7-0.3-4.1c-0.3-3-0.4-6.3,0.7-9
			L14.8,31L9.7,30.2z"/>
		<linearGradient id="SVGID_16_" gradientUnits="userSpaceOnUse" x1="19.1377" y1="25.6807" x2="3.8702" y2="31.8893">
			<stop  offset="0" style="stop-color:#F59F7C"/>
			<stop  offset="1" style="stop-color:#F5D3AC"/>
		</linearGradient>
		<path class="st26" d="M17.7,27.5L14,31.8c-0.9-0.4-1.9-0.9-2.4-1.3l0-0.3l-0.4-5.3c0,0,0,0,0,0.1l0,0
			C11.3,25.5,12.9,28.2,17.7,27.5z"/>
		<linearGradient id="SVGID_17_" gradientUnits="userSpaceOnUse" x1="8.4594" y1="26.5055" x2="15.6441" y2="35.4083">
			<stop  offset="0" style="stop-color:#4A63FF"/>
			<stop  offset="1" style="stop-color:#98B5FF"/>
		</linearGradient>
		<path class="st27" d="M15.5,32.5c-4.1-2.1-4.3-4.5-4.3-4.5c-1.3,0.1-1.4,2.3-1.4,2.3s1.6,3.2,3.7,4.9
			C13.5,33.4,15.5,32.5,15.5,32.5z"/>
		<linearGradient id="SVGID_18_" gradientUnits="userSpaceOnUse" x1="10.1741" y1="43.0488" x2="17.2807" y2="32.0374">
			<stop  offset="0" style="stop-color:#4A63FF"/>
			<stop  offset="1" style="stop-color:#98B5FF"/>
		</linearGradient>
		<path class="st28" d="M17.8,28.6c-0.6,2.5-2.3,3.9-2.3,3.9c1.8,1.1,2.1,2,2.1,2C18.5,31.9,18.8,28.7,17.8,28.6z"/>
		<g>
			
				<linearGradient id="SVGID_19_" gradientUnits="userSpaceOnUse" x1="-241.8082" y1="-373.2084" x2="-241.2539" y2="-373.2084" gradientTransform="matrix(18.0325 -15.0741 -15.0741 -18.0325 -1259.9807 -10344.6768)">
				<stop  offset="0" style="stop-color:#F59F7C"/>
				<stop  offset="1" style="stop-color:#F5D3AC"/>
			</linearGradient>
			<path class="st29" d="M19.7,25.3c-0.5,1.7-0.7,1.7-2,2.2c-0.4,3.7-0.9,4.2-2.3,5c-0.3-0.1-0.8-0.3-1.5-0.6
				c-0.9-0.4-1.9-0.9-2.4-1.3l0,0c0-0.1,0-0.2,0-0.3c-0.1-1.8-0.3-3.5-0.4-5.2l0,0c-0.2-2-0.3-4.1-0.5-6.2c-1.3-6.1,6.7-8.6,9.2-3
				C20.1,18.9,20.6,22.1,19.7,25.3z"/>
			<path class="st30" d="M17.5,21.9L17.5,21.9L17.5,21.9z"/>
			<path class="st1" d="M8.9,19.9c0.6,1.9,1.5,3.5,2.3,5.3c0.3-0.6,1.5-2.8,0.8-3.4c-0.1-0.1-0.3-0.2-0.5-0.3
				c-0.2-0.1-0.4-0.4-0.5-0.8c-0.2-0.5-0.2-1.2,0.2-1.5c0.8-0.6,1.1,0.7,1.1,1.3c0.1,0.2,0.4,0.1,0.5-0.1c0.4-0.7-0.1-1.6,0.6-2.3
				c0.1-0.1,0.2-0.2,0.3-0.3c0-0.1,0.1-0.2,0.1-0.3c0-0.7-0.1-1.5-0.5-2.1l0,0c1.1,0.1,2.2,0.2,3.3,0.2c1.1,0,2.3,0.2,3.4-0.2
				c0.7-0.3,1.3-1.3,1.2-2.1c-0.1-1.1-0.4-1.3-1.6-2c-1.6-0.9-4-2.1-7.3-0.7c-1.8,0.8-2.1,2.6-2,3.1C9.9,13.9,7.5,15.7,8.9,19.9z"/>
			<path class="st31" d="M19.4,19.4c0,0.2-0.1,0.3-0.3,0.3c-0.2,0-0.3-0.1-0.3-0.3c0-0.2,0.1-0.3,0.3-0.3
				C19.3,19.1,19.4,19.2,19.4,19.4z"/>
			<path class="st31" d="M16.5,19.4c0,0.2-0.1,0.3-0.3,0.3c-0.2,0-0.3-0.1-0.3-0.3c0-0.2,0.1-0.3,0.3-0.3
				C16.3,19.1,16.5,19.2,16.5,19.4z"/>
			<path class="st31" d="M15.4,18.6c0.3-0.2,0.7-0.3,1.1-0.3c0.1,0,0.2,0,0.4,0c0.1,0,0.1,0,0.2-0.1c0-0.1,0-0.1-0.1-0.2
				c-0.1,0-0.3,0-0.4,0c-0.5,0-0.9,0.1-1.3,0.3c-0.1,0-0.1,0.1,0,0.2C15.2,18.6,15.3,18.6,15.4,18.6L15.4,18.6z"/>
			<path class="st31" d="M18.7,18.5c0.2-0.1,0.5-0.2,0.7-0.2c0.1,0,0.2,0,0.2,0c0.1,0,0.1,0,0.2-0.1c0-0.1,0-0.1-0.1-0.2
				c-0.1,0-0.2,0-0.3,0c-0.3,0-0.6,0.1-0.9,0.2c-0.1,0-0.1,0.1,0,0.2C18.5,18.5,18.6,18.5,18.7,18.5L18.7,18.5z"/>
			<path class="st32" d="M18.3,20.9c0.1,0.3,0.3,0.5,0.4,0.7c0.1,0.2,0.2,0.3,0.2,0.4l0,0h0l0,0l0,0h0h0l0,0l0,0h0l0,0l0,0
				c0,0-0.1,0.1-0.2,0.1l-0.1,0l0,0c-0.1,0-0.1,0.1-0.1,0.2c0,0.1,0.1,0.1,0.2,0.1c0,0,0.1,0,0.2-0.1c0.1,0,0.1-0.1,0.2-0.1
				c0.1,0,0.1-0.1,0.1-0.2l0,0c0-0.1-0.1-0.3-0.2-0.5c-0.1-0.2-0.2-0.4-0.4-0.7c0-0.1-0.1-0.1-0.2-0.1
				C18.3,20.8,18.3,20.8,18.3,20.9L18.3,20.9z"/>
			<path class="st32" d="M18.9,24.5c-0.2,0.2-0.5,0.3-0.8,0.3c-0.3,0-0.6-0.1-0.9-0.3c-0.1,0-0.1,0-0.2,0c0,0.1,0,0.1,0,0.2
				c0.4,0.3,0.7,0.4,1,0.4c0.4,0,0.7-0.2,1-0.3c0.1,0,0.1-0.1,0-0.2C19.1,24.5,19,24.4,18.9,24.5L18.9,24.5z"/>
		</g>
	</g>
</g>
</svg>
